<?xml version="1.0" encoding="utf-8"?>
<!-- Generator: Adobe Illustrator 22.1.0, SVG Export Plug-In . SVG Version: 6.00 Build 0)  -->
<svg version="1.1" 
	 xmlns="http://www.w3.org/2000/svg" xmlns:xlink="http://www.w3.org/1999/xlink" x="0px" y="0px" viewBox="0 0 841.9 595.3"
	 style="enable-background:new 0 0 841.9 595.3;" xml:space="preserve">
<style type="text/css">
	.st0{fill:#949494;}
	.st1{fill:#D9D9D9;}
</style>
<metadata>
	<sfw>
		<slices></slices>
		<sliceSourceBounds  bottomLeftOrigin="true" height="136.2" width="197.6" x="57.7" y="-146.4"></sliceSourceBounds>
	</sfw>
</metadata>
<g id="Слой_2">
	<g>
		<g>
			<path class="st0" d="M84.1,93.3c0-3.2-0.1-6.5-0.1-9.7c-6.8,1.8-13.5,3.6-20.3,5.4c5.7,15.7,10.9,31.5,15.6,47.5
				c1.8,6.2,20.3,0.7,20.3-5.4c0-16.4-4.1-32.3-12.1-46.7c-3-5.3-21.7-0.9-20.3,5.4C70,102.1,74,114,79.1,125.4
				c2.7,5.9,20.6,0.9,20.3-5.4c-0.6-13.1-5.6-25.1-13.9-35.2c-3.5-4.3-20.1,0.5-19.6,6.5c0.8,10.7,4.5,20.3,10.7,29.1
				c2.9,4.2,21.5-1,19.6-6.5c-3.8-11.1-8.8-21.7-14.7-31.8c-2.1,2-4.2,4-6.4,6.1c4.3-1.8,26.1-11.2,18.7-18.2
				c-6-5.7-28.8,3-20.9,10.8c3.5,3.4,12.3,0.3,15.6-1.5c5.2-2.8,10.4-5.7,15.6-8.5c1.7-1,5.7-3.7,3.4-6C103.2,60.5,93,64,89,67.1
				c-4.8,3.8-2,7.6,3.2,8.3c12.7,1.7,27.4-2.4,39.1-7c2-0.8,6.4-2.8,6.3-5.5c0-2.8-4-2.8-6-2.9c-11.4-0.5-23.2,2.6-33,8.3
				c-2.3,1.4-5.9,4-2.7,6.4c3,2.3,9.6,0.5,12.6-0.8c12.9-5.4,25.9-10.7,38.8-16.1c2.3-1,8.3-3.8,5.7-7.1c-2.5-3.1-10.5-0.6-13.3,0.4
				c-8.8,3.1-17.5,6.3-26.3,9.4c-1.9,0.7-7.1,3.1-6.4,6.1c0.8,3,6.5,2.4,8.5,2.1c8.2-1.2,16.2-3.3,23.9-6.5c1.9-0.8,7.2-3.1,6.4-6.1
				c-0.8-2.9-6.5-2.5-8.5-2.1c-11.8,2.2-23.3,5.3-34.6,9.5c-2.1,0.8-7.7,3.5-6,6.6c1.7,3.1,8.5,1.5,10.9,1
				c10.9-2.4,21.5-5.7,31.9-9.7c2-0.8,6.4-2.8,6.3-5.5c0-2.7-4-3-6-2.9c-10.8,0.3-21,3.1-30.6,8c-2.4,1.2-5.8,4.1-2.7,6.4
				c3.1,2.3,9.6,0.4,12.6-0.8c16.1-6.3,32.2-12.7,48.4-19c-3.3-1.9-6.6-3.8-9.9-5.6c-5.5,2.9-11,5.8-16.5,8.7
				c-1.8,0.9-5,3.2-3.7,5.5c1.3,2.4,6.1,1.9,8.2,1.6c16.9-2.3,32.7-8.4,46.9-17.8c-5.3-0.7-10.6-1.4-15.9-2.1
				c-1.9,1.4-3.8,2.1-6.1,2.6c1.6,2.5,3.3,5,4.9,7.6c7-2.6,14-5.2,21-7.9c2.1-0.8,7.7-3.5,6-6.6c-1.7-3.1-8.5-1.6-10.9-1
				c-6.5,1.5-20.7,4.3-17.8,14.2c2.7,9.3,16.2,6.6,22.4,3.1c5.1-2.8,9.1-9.7,3.9-14.6c-3-2.9-7.9-2.4-11.7-2.2
				c-6.4,0.5-12.6,2.1-18.6,4.5c-1.9,0.8-7.2,3.1-6.4,6.1c0.8,2.9,6.5,2.4,8.5,2.1c10.5-1.8,20.7-4.6,30.5-8.8
				c1.9-0.8,7.2-3.1,6.4-6.1c-0.8-3-6.5-2.4-8.5-2.1c-1.8,0.3-3.6,0.5-5.3,0.8c-3.4,0.5-8.8,1.9-10.9,5c-1.7,2.6,0.1,4.4,3,4.7
				c5.4,0.5,10.9,1.1,16.3,1.6c3.8,0.4,7.9-0.4,11.3-2.1c1.7-0.8,6-2.9,5.2-5.5c-0.9-3.2-1.9-6.5-2.8-9.7
				c-6.8,1.8-13.5,3.6-20.3,5.4c6.2,11.8,12.3,23.6,18.2,35.5c6.5-2.2,13.1-4.3,19.6-6.5c-3.3-4-5.1-8.4-6-13.5
				c-6.5,2.2-13.1,4.3-19.6,6.5c6.4,9.4,12.9,18.8,19.3,28.2c6.3-2.5,12.6-5,19-7.5c-4.6-4-8.4-8.5-11.3-13.8
				c-6.5,2.2-13.1,4.3-19.6,6.5c6,6.9,12,13.9,18,20.8c3.8,4.4,23.1-1.8,19-7.5c-1.3-1.8-2.6-3.6-3.9-5.3c-3-4.2-21.3,0.8-19.6,6.5
				c1.1,3.5,2.2,7.1,3.2,10.6c1,3.4,7.6,2.3,9.9,1.8c3.6-0.8,8.7-2.3,10.3-6c2.5-5.6-8-5.5-10.7-5c-3.7,0.6-9,2-11.3,5.3
				c-1.8,2.5-0.3,5.2,0.4,7.8c6.8-1.8,13.5-3.6,20.3-5.4c-1.4-4.4-5.1-7.7-8.1-11.1c-3.6-4.2-7.1-8.3-10.7-12.5
				c-7.1-8.3-14.2-16.7-21.3-25c-3.3-3.9-22.1,1.6-19.6,6.5c7.7,15,16.7,29.2,26.9,42.7c6.3-2.5,12.6-5,19-7.5
				c-8.6-10.1-17.2-20.2-25.8-30.3c-3.2-3.8-21.6,0.9-19.6,6.5c5,13.7,11.8,26.5,20.2,38.4c3.2,4.5,22.1-2.1,19.6-6.5
				c-8.8-15.4-19.4-29.5-32-42c-3.4-3.4-21.5,0.5-19.6,6.5c4,12.4,10.4,23.7,19,33.6c3.3,3.8,22-1.2,19.6-6.5
				c-6.2-13.8-15-26.2-26.1-36.6c-2.8-2.6-8.9-1.1-11.9,0c-1.9,0.6-9.1,3.4-7.7,6.5c3.3,7.6,8.3,14.1,14.7,19.2
				c4.3,3.4,17.9,0.4,19.6-5.2c2-6.9-1.2-13.8-7.4-17.3c-8-4.5-19.2-2.1-26.8,2.3c-6.7,3.9-12.1,10.6-11,18.8
				c1,7.3,7.4,13,14.3,14.8c4.3,1.1,18.9-0.3,18.3-7.2c-1-11.7-9.1-21.3-20-25.3c-3.3-1.2-7.5-0.4-10.6,0.7
				c-2.2,0.7-7.1,2.5-7.6,5.3c-2.5,14,5,27.2,18,32.8c3.6,1.5,20.1-1,18.3-7.2c-3.6-12.6-11.3-23.7-21.9-31.4
				c-3.2-2.3-8.5-1.2-11.9,0c-2.1,0.7-8.8,3.2-7.7,6.5c4.6,13.6,12.2,25.9,22.3,36.2c4.1,4.2,23.3-2.3,19-7.5
				c-6.4-7.6-13.6-14.6-21.5-20.7c-9.1-7.1-18.4-9.8-29.5-5.2c-7.5,3.1-13.1,10.5-9.6,18.7c3.8,8.7,14.2,14.5,21.6,19.6
				c3.3,2.3,8.4,1.2,11.9,0c2.4-0.8,8.4-3,7.7-6.5c-2.9-15-12.3-28.2-25.5-35.9c-3.2-1.9-7.2-1.4-10.6-0.5c-2.5,0.7-8.6,2.6-8.9,5.7
				c-2.1,18.3,11,33.8,28.7,36.9c3.6,0.6,8.1-0.5,11.3-2.1c1.5-0.7,6.2-3.1,5.2-5.5c-7.1-17.3-28.7-43.8-49.1-27.6
				c-7,5.6-6.4,16.8-3.3,24.3c3.4,8.3,10,14.7,18.4,17.8c3.8,1.4,22-1.8,17.7-8.2c-6.1-9-12.7-17.9-20.2-25.8
				c-7.9-8.3-21-8.6-30.1-1.6c-5.8,4.5-6.5,12-2.9,18.2c4.3,7.5,14.1,9.4,18.5,16.8c3.3,5.5,22.6-0.2,20.3-5.4
				c-5.8-13-14.9-23.9-26.8-31.7c-4.5-3-19.7-0.5-19.6,6.5c0.1,14.2,7.3,27.6,18.9,35.6c3.3,2.3,8.5,1.2,11.9,0
				c1.5-0.5,9.4-3.7,7.7-6.5c-7.8-12.6-18.3-22.2-31.5-29c-3.6-1.8-20,1.2-18.3,7.2c3.7,13.4,11.1,25.5,21.2,34.9
				c2.8,2.6,8.9,1.1,11.9,0c2.1-0.7,8.8-3.2,7.7-6.5c-4.2-12.2-12.1-22.8-22.6-30.2c-2.9-2-7.4-1.3-10.6-0.5
				c-2.5,0.7-8.6,2.6-8.9,5.7c-2.1,17.9,8.1,32.8,18.2,46.6c3.1,4.2,21.9-1.3,19.6-6.5c-4.2-9.7-11.1-16.8-20.3-21.9
				c-4.2-2.4-16.8,0.8-18.3,6c-2.8,9.8-0.9,19.4,4.9,27.7c1.3,1.9,6.1,1.3,7.9,1.1c3.5-0.5,6.7-1.8,9.6-3.7c3.2-2.2,6-6.1,4.8-10.2
				c-1.6-5.3-10.3-4.2-14.4-3.4c-5.4,1.1-11.2,3.6-14.6,8.1c-3.1,4-3.3,8.9-3.5,13.7c6.5-2.2,13.1-4.3,19.6-6.5
				c-3.2-3.1-4.3-7.2-3-11.5c-6.7,1-13.4,2-20.2,3c-1.9,8.1,5.7,12.6,12.8,13.1c5.1,0.4,10.4-0.8,15.2-2.5c2.5-0.9,4.8-2,7.2-3.1
				c1-0.5,2.1-1,3.1-1.6c1.5-0.5,1.2-0.6-0.9-0.2c3.5-3.3,7-6.6,10.5-9.9c-9.4,0.8-18.2,3.1-26.4,7.7c-5.5,3.1-4.6,7.5,2,7.3
				c9.4-0.3,18.2-2.7,26.6-6.9c1.5-0.8,4.6-2.8,4-5c-0.6-2.2-4.3-2.4-6-2.3c-10.7,0.6-21.5,4-29.4,11.4c-6.7,6.3,5.2,6.3,9.1,5.3
				c15.2-3.8,30.1-8.5,44.7-13.9c3.7-1.4,10.4-7.3,2.6-8.3c-10.8-1.3-21.2,0.3-31.4,3.9c2.5,2.2,5.1,4.5,7.6,6.7
				c7.6-3.3,15.1-6.5,22.7-9.8c3.6-1.6,10.4-7.1,2.6-8.3c-14-2.1-28.5,1.8-39.9,10c-5.1,3.7-0.1,6,3.8,6.1
				c14.3,0.4,28.3-4.2,40-12.3c1.2-0.9,3.4-3.4,1.5-4.8c-7.9-5.9-18.2-6.2-27.4-3.4c-1.7,0.5-10.8,3.6-9,6.9
				c3.4,6.4,8.5,11.6,16,12.5c8,0.9,18.5-2,23.8-8.4c4.2-5,3.6-11.9-2.7-14.8c-6.8-3.1-15.7-1.3-22.3,1.4
				c-4.3,1.7-16.8,8.7-10.6,14.7c5.3,5.1,17,4.4,23.5,3.4c6.8-1.1,18.4-4.6,19.9-12.7c1.8-9.7-10.8-9.4-16.7-8.1
				c-2.7,0.6-8.1,2.6-8.9,5.7c-2.8,10,10.3,12.8,17.5,11.7c11.4-1.7,18.4-8.7,23.5-18.4c0.8-1.5-1-2.5-1.9-3
				c-6.3-3.6-14.1-3-20.8-1.2c-1.6,0.4-10.9,3.7-9,6.9c6.5,11.5,25.9,9.1,34,0.5c3.3-3.5,3.9-8.1,1.4-12.2
				c-3.2-5.4-9.8-6.3-15.5-5.1c-3,0.6-12.4,2.6-11.7,7.5c2,15.8,21.4,14.5,31.8,8.3c4.7-2.8,9.2-8.1,7.1-13.9
				c-2.1-5.7-8.3-7.7-13.9-7.3c-3.1,0.3-15.6,2.2-14.3,7.7c4,16.8,23.9,18,36.2,9c4.9-3.6,7.9-9.5,3.8-14.9
				c-5-6.7-14.4-4.8-21.1-2.5c-1.3,0.5-7.8,3.5-6.4,6.1c2.8,5,5.7,10.1,11.1,12.7c6,2.9,13.6,1.8,19.6-0.5c4-1.5,11.1-5.1,11.2-10.3
				c0.2-7.3-13.7-5.3-17.6-4.3c-1.8,0.5-14.2,6.5-7.1,8.7c8.8,2.7,17.8,4.9,26.9,6.4c3.5-3.3,7-6.6,10.5-9.9
				c-25.7,1.4-50.5,8-73.5,19.4c-1.8,0.9-5,3.2-3.7,5.5c1.3,2.4,6.1,1.8,8.2,1.6c23.5-2.8,46.6-9.3,68-19.2c2.3-1.1,8.4-3.8,5.7-7.1
				c-2.4-3-10.7-0.8-13.3,0.4c-18.2,8.4-37.3,13.9-57.3,16.3c1.5,2.4,3,4.7,4.5,7.1c16.5-8.2,34.6-12.9,53-13.9
				c4.3-0.2,9.7-1.4,12.8-4.6c2.6-2.6,1.3-4.7-2.3-5.3c-7.9-1.3-15.6-3.2-23.3-5.6c-2.4,2.9-4.7,5.8-7.1,8.7c-5.2-1-6.6-0.6-4.3,1.1
				c-0.2-0.7-0.4-1.5-0.6-2.2c0,0.5-0.1,1-0.3,1.4c-1.2,2.6,1.2,1.9,7.1-2c-0.7-0.7-2.1-1.3-2.8-2c-2.4-2.1-3.9-5-5.5-7.7
				c-2.1,2-4.2,4-6.4,6.1c-7.3-0.7-9.8-0.3-7.3,1.3c0.3,0.2,0.5,0.4,0.7,0.6c0.5,0.8,1.2,1.4,1.5,2.4c0.3,1,0,1.8-0.1,2.8
				c-0.1,0.3-0.2,0.6-0.5,0.9c-1.6,1.9,0.3,1.3,5.8-1.7c0.2,0,0.4,0,0.5,0c-0.4-0.2-0.8-0.3-1.2-0.5c-0.9-0.8-1.8-1.4-2.6-2.3
				c-1.8-2.1-2.7-4.5-3.3-7.2c-4.8,2.6-9.5,5.2-14.3,7.7c-0.7-0.2-0.5,0,0.4,0.6c0.7,0.6,1.2,1.3,1.5,2.1c0.9,2.1-0.4,2.9-0.4,4.7
				c7.2-0.1,9.1-0.9,5.9-2.5c-0.7-0.6-1.4-1.2-2-2c-1.2-1.6-1.6-3.5-1.9-5.5c-3.9,2.5-7.8,5-11.7,7.5c-3.2-0.8-4-0.7-2.3,0.4
				c0.5,0.4,0.9,0.9,1.2,1.5c0.8,1.3,0.6,2.6,1,3.9c-0.1,0.6-0.2,1.1-0.5,1.5c8.6-0.7,11-1.7,7.2-2.8c-0.9-1-2.3-1.4-3-2.8
				c-3,2.3-6,4.6-9,6.9c-1.9,0-2.1,0.1-0.5,0.3c0.9,0.3,1.8,0.8,2.7,1.3c-0.6-1-1.3-2-1.9-3c-0.9,1.6-1.7,3.2-2.8,4.7
				c-1.9,2.6-4.4,3.1,1.4,1.8c6-1.3,3.5-0.2,1.6-2.2c-1-1.1-1.3-2.2-0.9-3.6c-3,1.9-6,3.8-8.9,5.7c0.4-0.1,0.7-0.2,1.1-0.2
				c-2.5,0.2-5,0.5-7.5,0.7c0.3,0,0.3,3.6,0.3,3.6c-0.3-0.2,3.6-0.4,2.8-1.1c-0.1-0.1-2-0.1-2.2-0.1c-1-0.1-3-0.3-3.8-1
				c-0.1-0.1-1.1-1.5-0.4-1.4c-0.6-0.1-3.7,1.8-3.8,1c0,0,1.9,1.5,2.2,1.9c0.4,0.9,0.6,1.9,0.3,2.9c-0.1,0.3-1.1,1.8-1.1,1.9
				c2.3-0.7,4.5-1.4,6.8-2.1c-0.4-0.2-0.8-0.4-1.2-0.5c-0.5-0.6-1.5-1.1-2.1-1.6c-1.8-1.6-3.2-3.6-4.3-5.8c-3,2.3-6,4.6-9,6.9
				c1.7-0.5,1.9-0.6,0.5-0.2c0.4,0.1,0.8,0.2,1.2,0.3c1.5,0.8,2.9,1.2,4.4,2.3c0.5-1.6,1-3.2,1.5-4.8c-4.9,3.4-9.9,4.5-15.8,4.4
				c1.3,2,2.6,4.1,3.8,6.1c3.6-2.6,6.8-3,11.2-2.4c0.9-2.8,1.7-5.5,2.6-8.3c-7.6,3.3-15.1,6.5-22.7,9.8c-2.3,1-8.3,3.8-5.7,7.1
				c2.5,3.1,10.5,0.6,13.3-0.4c3.6-1.3,7.3-1.3,11.1-0.8c0.9-2.8,1.7-5.5,2.6-8.3c-12.9,4.8-26,8.8-39.4,12.2c3,1.8,6.1,3.5,9.1,5.3
				c1.4-1.3,3.2-3.3,5.2-3.5c-0.7-2.4-1.3-4.9-2-7.3c-2,1-3.9,1.3-6.1,1.4c0.7,2.4,1.3,4.9,2,7.3c1.9-1.1,3.7-2,5.9-2.2
				c4.3-0.3,9.6-1.3,12.8-4.6c2.4-2.4,1.5-5.1-2.3-5.3c-8-0.5-15.3,1.3-22.5,4.7c-1.3,0.6-2.7,1.2-3.9,1.9c-2.6,1.6-0.8-0.2,0.1,0.7
				c-2-1.9-4.4-2.7-3.7-6.2c1.5-6.4-18.4-2.8-20.2,3c-1.8,5.9-0.2,11.7,4.2,16c4.2,4.1,19.3-0.3,19.6-6.5c0.1-2,0.3-3.9,0.8-5.9
				c0.2-0.8,0.4-1.5,0.7-2.2c2.7-3.5-0.1-3.2-8.1,1.1c-0.7-0.6-1.3-1.2-2-1.8c0.5,1.1,1.4,2.9,0.1,3.8c5.8-0.9,11.6-1.8,17.5-2.7
				c-4.8-6.8-5.9-15.3-3.7-23.2c-6.1,2-12.2,4-18.3,6c7.4,4.1,13,10.7,16.4,18.4c6.5-2.2,13.1-4.3,19.6-6.5
				c-8.9-12.1-18.8-26.3-17-42.1c-6.5,1.7-13,3.5-19.6,5.2c10,7,17.3,16.6,21.3,28.1c6.5-2.2,13.1-4.3,19.6-6.5
				c-9.7-9-16.4-20.1-19.9-32.9c-6.1,2.4-12.2,4.8-18.3,7.2c11.2,5.7,20.9,14.7,27.5,25.4c6.5-2.2,13.1-4.3,19.6-6.5
				c-11.2-7.8-17.5-20-17.5-33.6c-6.5,2.2-13.1,4.3-19.6,6.5c11.2,7.3,20,17.4,25.5,29.7c6.8-1.8,13.5-3.6,20.3-5.4
				c-3.5-5.8-8.7-8.7-14-12.6c-4-3-7.5-7.2-6.6-12.7c0.1-0.5,0.2-0.9,0.4-1.4c0.5-1,0.5-1.1-0.1-0.4c-9.5,0.3-12.5,1.3-8.9,2.9
				c0.7,0.3,1.3,0.7,1.8,1.2c3,2.3,5.4,5.6,7.9,8.4c5.4,6.3,10.3,13,15,19.9c5.9-2.7,11.8-5.5,17.7-8.2c-6.2-2.3-11.2-7-14-13
				c-1.3-2.9-2.2-5.9-2.5-9.1c-0.2-1.6-0.2-3.2,0-4.8c0.1-0.9,0.3-1.8,0.6-2.7c1.1-2,0.4-2-2.1,0c-2.6,0.6-5.3,1.1-7.9,1.7
				c1.3-0.1,5.4,4,6.5,4.9c2.4,2,4.7,4.2,6.8,6.6c4.3,4.9,7.5,10.3,10,16.3c5.5-2.5,11-5.1,16.5-7.6c-13.3-2.4-22.8-17.1-21.3-30.1
				c-6.5,1.7-13,3.5-19.6,5.2c12.7,7.4,21.3,19.4,24.1,33.8c6.5-2.2,13.1-4.3,19.6-6.5c-5.4-3.7-11.1-7.5-16-12.1
				c-2.2-2.1-4.3-4.4-5-7.4c-0.3-1-0.4-2.1-0.3-3.1c0.3-3.2,3-3.7-2.8-1.6c-5.7,2.1-3.3,1.3-0.5,3c1.4,0.9,2.8,2,4.2,3.1
				c2.5,2,5,4.1,7.4,6.2c5,4.5,9.7,9.4,14,14.5c6.3-2.5,12.6-5,19-7.5c-9.6-9.7-16.6-21.2-21-34.1c-6.5,2.2-13.1,4.3-19.6,6.5
				c10.1,7.4,17.1,17.3,20.6,29.4c6.1-2.4,12.2-4.8,18.3-7.2c-10.2-4.3-16.1-16-14.2-26.8c-6.1,2-12.2,4-18.3,6
				c9.4,3.4,15.2,12,16.1,21.8c6.1-2.4,12.2-4.8,18.3-7.2c-7.3-1.9-13.4-10.5-9.1-17.9c0.4-0.8,1.3-1.4,1.7-2.1
				c0.2-0.2,0.5-0.3,0.7-0.5c-1.8,0.4-3.6,0.9-5.5,1.3c0-0.3,3.4,1.9,3.7,2.1c2.9,2.8,4,6.7,2.9,10.5c6.5-1.7,13-3.5,19.6-5.2
				c-5.9-4.7-10.4-10.3-13.4-17.2c-6.5,2.2-13.1,4.3-19.6,6.5c10.5,9.9,18.8,21.4,24.8,34.6c6.5-2.2,13.1-4.3,19.6-6.5
				c-8.1-9.3-13.9-19.8-17.7-31.5c-6.5,2.2-13.1,4.3-19.6,6.5c12,11.9,22.3,25.3,30.7,40c6.5-2.2,13.1-4.3,19.6-6.5
				c-8-11.2-14.2-23.4-18.9-36.3c-6.5,2.2-13.1,4.3-19.6,6.5c8.6,10.1,17.2,20.2,25.8,30.3c3.8,4.5,23.1-2,19-7.5
				c-9.7-12.8-18.2-26.3-25.6-40.6c-6.5,2.2-13.1,4.3-19.6,6.5c6.7,7.8,13.4,15.7,20.1,23.5c3.3,3.9,6.7,7.8,10,11.8
				c2.9,3.4,7.3,7,8.6,11.3c1.9,6,22,0.4,20.3-5.4c-0.2-0.6-1.4-3.5-1.3-4.1c-0.7,0.9-1.4,1.7-2.1,2.6c0.1-0.1,0.3-0.2,0.4-0.3
				c-3.2,1.2-6.4,2.5-9.6,3.7c-2.1-0.5-4.2-1-6.3-1.5c6.7-1.4,13.5-2.8,20.2-4.2c-1.1-3.5-2.2-7.1-3.2-10.6
				c-6.5,2.2-13.1,4.3-19.6,6.5c1.3,1.8,2.6,3.6,3.9,5.3c6.3-2.5,12.6-5,19-7.5c-6-6.9-12-13.9-18-20.8c-3.4-3.9-22.2,1.7-19.6,6.5
				c3.3,6.1,7.4,11.4,12.6,15.9c4.1,3.5,23.1-1.4,19-7.5c-6.4-9.4-12.9-18.8-19.3-28.2c-3-4.4-20.6,0.6-19.6,6.5
				c1,5.9,3.5,11,7.3,15.6c3.3,4,22.1-1.5,19.6-6.5c-5.9-11.9-12-23.7-18.2-35.5c-2.9-5.5-22-0.6-20.3,5.4c0.9,3.2,1.9,6.5,2.8,9.7
				c5.5-2.5,11-5.1,16.5-7.6c-5.4-0.5-10.9-1.1-16.3-1.6c-2.7,3.2-5.3,6.5-8,9.7c1.8-0.3,3.6-0.5,5.3-0.8c-0.7-2.7-1.5-5.4-2.2-8.1
				c-6.4,2.7-12.9,4.7-19.7,5.9c0.7,2.7,1.5,5.4,2.2,8.1c0.9-0.4,2.1-0.7,3-1.1c1.9-0.8,1.4,0.4,0.4-0.8c0.9,1.1,0.9,1.9,1.3,3.3
				c0.1,0.3-0.2,0.7-0.2,1c12.4,0.9,16.7-0.3,13-3.7c-0.2-0.2-0.4-0.4-0.5-0.6c-0.2-0.7-0.5-1.4-0.7-2.1c-0.3-1,0.9-1.6-0.2-0.9
				c-2.3,1.1-4.6,2.1-6.8,3.2c2.3-0.6,4.7-1.1,7-1.7c-1.6-2.5-3.3-5-4.9-7.6c-7,2.6-14,5.2-21,7.9c-2.1,0.8-7.7,3.5-6,6.6
				c1.7,3.1,8.5,1.6,10.9,1c7.2-1.7,13.8-4.7,19.8-9c3.4-2.4,2.1-5.3-1.6-6c-4.9-0.8-10.4,1.2-14.3,3.8c-8.4,5.6-17.8,9-27.7,10.3
				c1.5,2.4,3,4.7,4.5,7.1c5.5-2.9,11-5.8,16.5-8.7c2.4-1.3,5.8-4.1,2.7-6.4C169.5,38,163,39.8,160,41c-16.1,6.3-32.2,12.7-48.4,19
				c3.3,1.9,6.6,3.8,9.9,5.6c3.3-1.7,6.5-2.4,10.1-2.5c0.1-2.8,0.2-5.6,0.4-8.4c-8.7,3.3-17.5,5.9-26.6,7.9c1.6,2.5,3.3,5,4.9,7.6
				c7.7-2.9,15.7-5.2,23.8-6.6c-0.7-2.7-1.5-5.4-2.2-8.1c-4.3,1.8-8.5,3-13.1,3.6c0.7,2.7,1.5,5.4,2.2,8.1
				c8.8-3.1,17.5-6.3,26.3-9.4c-2.5-2.2-5.1-4.5-7.6-6.7c-12.9,5.4-25.9,10.7-38.8,16.1c3.3,1.9,6.6,3.8,9.9,5.6
				c4.2-2.5,7.7-3.1,12.5-2.8c0.1-2.8,0.2-5.6,0.4-8.4c-3.1,1.2-6.2,2.3-9.4,2.9c-1.7,0.3-3.4,0.6-5,0.7c-0.8,0.1-1.6,0.1-2.4,0.2
				c-2.3-0.1-2.4,0-0.3,0.5c-0.3,0.8-0.5,1.7-0.8,2.5c0.2-0.2,0.3-0.4,0.5-0.5c-2.7,1.5-5.5,3-8.2,4.4c0.2-0.1,0.4-0.1,0.6-0.2
				c-3.5-0.2-7.1-0.3-10.6-0.5c0.1,0.1,0.3,0.3,0.4,0.4c1.1-2,2.3-4,3.4-6c-5.2,2.8-10.4,5.7-15.6,8.5c5.2-0.5,10.4-1,15.6-1.5
				c-0.1,0-0.2,0.1-0.4,0.1c-1.8,1.2-3.7,2.4-5.5,3.6c0.3-0.1,0.6-0.3,0.9-0.4c-3.4,0.5-6.8,1-10.2,1.6c0.3,0.1,0.6,0.1,0.9,0.2
				c-1-0.4-2.1-0.8-3.1-1.2c0.5,0.4,0.7,0.9,0.5,1.5c0.3-0.8,0.5-1.7,0.8-2.5c-1.5,2.4-5.8,4.2-8.3,5.3c-1.2,0.5-7.8,3.5-6.4,6.1
				c6,10.1,10.9,20.7,14.7,31.8c6.5-2.2,13.1-4.3,19.6-6.5c-5.6-8-8.6-17.3-9.3-27c-6.5,2.2-13.1,4.3-19.6,6.5
				c7.8,9.4,11.9,21,12.5,33.2c6.8-1.8,13.5-3.6,20.3-5.4c-5.2-11.4-9.1-23.3-11.9-35.5c-6.8,1.8-13.5,3.6-20.3,5.4
				c8,14.3,12.1,30.2,12.1,46.7c6.8-1.8,13.5-3.6,20.3-5.4c-4.7-16-9.9-31.8-15.6-47.5c-2.2-6.1-20.3-0.7-20.3,5.4
				c0,3.2,0.1,6.5,0.1,9.7C63.9,103.7,84.2,100.3,84.1,93.3L84.1,93.3z"/>
		</g>
	</g>
	<g>
		<g>
			<path class="st1" d="M112.2,122.6c1.4-0.1,2.7-0.2,4.1-0.3c-1.1-0.5-2.1-0.9-3.2-1.4c-2,3.1,1.1,5.1,4,5.2c2.1,0.1,9.6-0.9,9.5-4
				c0-3.2-1.8-4.7-4.6-5.7c-1.8-0.6-11.1,0.9-10.6,3.8c0.5,2.7,2.1,4,4.7,4.8c2.1,0.6,9.9-0.5,10.5-3.3c0.4-1.6,0.4-2.6-0.2-4.2
				c-0.9-2.5-11.2,0.2-11.5,2.6c-0.4,2.6-0.2,4.4,1.5,6.5c1.8,2.4,8.3,0.1,10.2-1.4c3.3-2.5,4.8-6.4,1.2-9.4c-2-1.7-10.3,0.5-11.2,3
				c-0.9,2.6-0.7,4.6,1,6.9c1.6,2.2,10.9,0.2,11.5-2.6c1.2-5.1-2.5-8.3-7.4-8.6c-1.9-0.1-9.9,1-9.5,4c0.3,2.6,1.3,4.3,3.4,5.8
				c1.7,1.3,12.2-0.8,11.3-3.5c-0.8-2.4-2.1-4.2-4.3-5.6c-1.9-1.3-10.8,0.3-11.2,3c-0.5,3.3,0.4,5.8,3.4,7.6c2.6,1.6,9.7-0.4,11.2-3
				c0.9-1.6,1.1-2.8,0.8-4.6c-0.5-2.9-10,0.8-11,2c-0.1,0.1-0.2,0.2-0.3,0.4c-0.4,0.3-0.6,0.7-0.5,1.1c1.6,3.1,6.7,1.5,9.3,0.5
				c1.4-0.6,3.3-1.2,3.9-2.8c0.5-1.1-0.9-3.8-0.3-4.5c-3.7,0.7-7.4,1.3-11,2c1.9,4,5.1,4.6,9.2,3.8c3.3-0.6,8.8-2.4,8.3-6.5
				c-0.3-2.5-11.1,0.3-11.5,2.6c-1.8,9,21.7,4.4,15.9-4.9c-1.5-2.4-12.1,0.3-11.6,3.1c0.2,1.2,0.4,2.4,0.6,3.5
				c0.2,1.1,2.6,0.8,3.3,0.8c0.8,0,1.6-0.1,2.5-0.1c1.8-0.1,7.5-1.1,8.2-3.4c0.7-2.3,0.6-4.1-0.9-6.1c-2-2.7-9.1,0.3-11,2
				c-3.6,3.1,0,6.5,3.6,6.6c5.2,0.2,11.4-2.3,13.4-7.3c-3.7,1-7.5,2-11.2,3c4.2,5.2,18.6,1.1,17.3-6.3c-3.9,1-7.7,2.1-11.6,3.1
				c0.8,3.3,3.7,2.8,6.5,2.4c1.6-0.3,6.2-1.2,6.8-3.2c3-10-15.2-5.5-14.6,1c0.7,7.7,19.1,2.9,16.9-4.6c-3.8,1.2-7.5,2.4-11.3,3.5
				c5.8,3,17.6,0.3,19.5-6.6c0.7-2.6-10.3-0.5-11.4,2c-2.7,5.8,9.4,3,11.3,2.1c3.9-1.8,6.3-6.4,0.5-7.4c-5.1-0.9-12.7,1.7-14.5,7
				c-2.1,6.5,4.8,6,9.1,4.6c3.3-1.1,9.7-5,6.2-9.3c-3.1-3.9-12-0.8-15,1.8c-5,4.2,0.6,7.5,5.1,7.3c6.8-0.4,11.8-3.7,14.4-9.9
				c-3.8,0.7-7.6,1.3-11.4,2c-1.6,8.3,17,4.6,15.5-2.6c-0.7-3.2-10.4,1.1-11.5,2.6c-3.2,4.4,4.9,4.5,7,4c3.6-0.8,9-2.9,7.5-7.5
				c-0.8-2.5-7.8,0.1-9.1,0.7c-0.1,0.1-0.3,0.1-0.4,0.2c-0.8,0.4-2.5,1.2-2.4,2.4c0.1,0.8,0.2,0.9,0.8,1.3c2.4,1.7,7.8-0.4,9.9-1.8
				c2.9-1.8,3-4.3,1.7-7.3c-1.3-2.8-11.2,0.4-11.6,3.1c-0.3,2.6,1.3,3.9,3.6,4.4c2.4,0.6,10.3-0.6,10.6-3.8c0.1-1.4,0.2-2.8,0.3-4.2
				c-3.9,1-7.7,2.1-11.6,3.1c0.8,1.7,1.7,3.4,2.5,5c1.3,2.5,10.8-0.2,11.5-2.6c0.4-1.5,0.5-2.6,0.1-4.1c-0.8-3-10.5,0.8-11.5,2.6
				c-1,1.7-1.1,3.2-0.3,5c3.8-1.2,7.5-2.4,11.3-3.5c-5.7-7.1-18.6-4-24.3,1.5c-1.4,1.3,0.3,1.9,1.5,2c1.3,0.1,2.6,0.3,3.9,0.4
				c-0.5-0.7-1-1.3-1.5-2c-0.9,1-1.8,1.9-2.8,2.9c-1.8,1.9,1.6,2,2.8,2c2.4-0.1,6-1,7.8-2.8c0.9-1,1.8-1.9,2.8-2.9
				c1.3-1.4-0.3-1.9-1.5-2c-1.3-0.1-2.6-0.3-3.9-0.4c0.5,0.7,1,1.3,1.5,2c-1.2,1.2-1.2,0,0.8,1.3c0.9,0.6,1.5,1.3,2.1,2.1
				c1.5,1.9,12.2-1.4,11.3-3.5c-0.6-1.5-0.6-2.5,0.2-3.9c-3.8,0.9-7.7,1.7-11.5,2.6c0.4,1,0.4,2,0,3c3.8-0.9,7.7-1.7,11.5-2.6
				c-0.8-1.7-1.7-3.4-2.5-5c-1.4-2.7-11.4,0.3-11.6,3.1c-0.1,1.4-0.2,2.8-0.3,4.2c3.5-1.3,7-2.5,10.6-3.8c-1.7-0.4-1.7-1.7-1.5-3
				c-3.9,1-7.7,2.1-11.6,3.1c0.1,0.2,1.5,3.5,1,3.8c3.3-0.6,6.6-1.2,9.9-1.8c-0.1-0.2-0.1-0.3-0.2-0.5c-0.8,0.8-1.6,1.6-2.4,2.4
				c0.1-0.1,0.3-0.1,0.4-0.2c-3,0.2-6.1,0.5-9.1,0.7c0.1,0.7,0.4,1.2,1,1.6c2.4-0.5,4.7-1.1,7.1-1.6c-0.1-0.6,0-1.1,0.4-1.6
				c-3.8,0.9-7.7,1.7-11.5,2.6c0.6,0.1,1.2,0.3,1.8,0.4c2.3-0.3,4.5-0.6,6.8-0.9c-0.4-0.7-0.7-1.4-1.1-2c0.5-2.9-10.4-0.5-11.4,2
				c-0.6,1.4-2,3-2.3,4.3c5.9-2.8,5.2-3.6-2.2-2.2c0.5,0.5,0.7,1,0.8,1.6c-1.5,4.7,5.5,1.5,6.8-1.4c0.1-0.7,0.3-1.4,0.6-2.1
				c-5.8-0.5-7.4,0.2-4.6,2c2.7-0.5,5.4-1,8.1-1.5c-1.5-0.3-1.9,0.2-1.3-1.1c-3.8,0.7-7.6,1.3-11.4,2c-0.1,0.6-0.3,1.1-0.6,1.6
				c-1.2,1.6,0,1.3,3.5-0.9c-1.7-0.9-12.2,0.5-11.3,3.5c0.3,0.6,0.4,1.3,0.3,2c2.4-0.5,4.7-1.1,7.1-1.6c-2.5,0,0.8-3.3-2.9-1.9
				c-2.3,0.3-4.5,0.6-6.8,0.9c1,0.3,0.2,2.9,0.1,3.1c2.3-1.1,4.5-2.1,6.8-3.2c-0.3,0-0.5,0.1-0.8,0.1c1.5,0.1,2.9,0.1,4.4,0.2
				c-0.2-0.5-0.4-1-0.6-1.4c-0.7-2.6-12.1,0.3-11.6,3.1c0.4,1,0.3,1.8-0.4,2.5c1.8-0.7,3.7-1.3,5.5-2c1.1-0.2,1.1-0.6,0-1.3
				c-1.7-2.1-10.3,0.8-11.2,3c-0.2,0.7-0.5,1.4-0.9,2c2-0.5,3.9-1,5.9-1.6c-0.4,0-0.1-2.4,0.1-2.6c-3.7,0.7-7.4,1.3-11,2
				c1.2,1.6,1.7,3,1,5c2.7-1.1,5.5-2.3,8.2-3.4c-0.8,0-1.6,0.1-2.5,0.1c1.1,0.3,2.2,0.5,3.3,0.8c-0.2-1.2-0.4-2.4-0.6-3.5
				c-3.9,1-7.7,2.1-11.6,3.1c0.9,1.5,1.4,3.1-0.2,4.4c1.6-0.8,3.2-1.5,4.8-2.3c-0.3,0.1-0.7,0.2-1,0.2c1.7-0.1,3.5-0.3,5.2-0.4
				c-1.2-0.1-1.8-0.8-1.7-2.2c-3.8,0.9-7.7,1.7-11.5,2.6c0,0.3-0.1,0.7-0.1,1c2.3-0.7,4.6-1.4,6.9-2.2c-0.4-0.8-0.8-1.6-1.2-2.4
				c-1.3-2.8-9.7,0.4-11,2c-2.1,2.4,0.3,3.6-0.8,6.1c1.7-0.9,3.5-1.9,5.2-2.8c-0.2,0.1-0.4,0.1-0.6,0.2c2,0,4-0.1,6-0.1
				c-0.2,0.1-0.5,0.2-0.7,0.4c-3.7,0.7-7.4,1.3-11,2c0.4,1.3,0.2,2.5-0.6,3.5c3.7-1,7.5-2,11.2-3c-2.1-1.3-3.2-3.1-2.8-5.7
				c-3.7,1-7.5,2-11.2,3c1.9,1.3,2.9,2.6,3.6,4.7c3.8-1.2,7.5-2.4,11.3-3.5c-1.8-1.3-2.5-2.8-2.7-5c-3.2,1.3-6.4,2.6-9.5,4
				c2.7,0.1,4,3.6,3.4,5.8c3.8-0.9,7.7-1.7,11.5-2.6c-1.4-1.9-1.9-3.4-1.1-5.8c-3.7,1-7.5,2-11.2,3c1.1,0.9,2.3,3.9,0.8,5.1
				c3.4-0.5,6.8-0.9,10.2-1.4c-1.3-1.7-1.9-3.2-1.6-5.4c-3.8,0.9-7.7,1.7-11.5,2.6c0.5,1,0.6,2,0.3,3.1c3.5-1.1,7-2.2,10.5-3.3
				c-1.7-0.5-2.3-1.7-2.6-3.3c-3.5,1.3-7,2.5-10.6,3.8c2.3,0.8,2.5,2.4,2.5,4.3c3.2-1.3,6.4-2.6,9.5-4c-0.9,0,0-2.5,0-2.5
				c1-1.5-2.9-1.4-3.2-1.4c-1.4,0.1-2.7,0.2-4.1,0.3c-2,0.1-6.6,0.8-7.8,2.8C108.3,122.7,110.5,122.7,112.2,122.6L112.2,122.6z"/>
		</g>
	</g>
	<g>
		<g>
			<path class="st1" d="M126.8,123.2c6.9-1.5,13.7-3.7,20.2-6.4c1.6-0.6,4.7-2.5,3.1-4.5c-1.5-1.9-5.9-0.7-7.7,0
				c-5.6,2.3-11.3,4.1-17.2,5.4c-1.6,0.4-5.7,2-5,4.3C120.9,124.4,125.3,123.6,126.8,123.2L126.8,123.2z"/>
		</g>
	</g>
	<g>
		<g>
			<path class="st1" d="M137.6,107.2c-3.3,2.4-7,4.1-11.1,4.1c-2.6,0-6.3,0.7-7.6,3.4c-1.2,2.4,1,4.1,3.3,4.1c1.2,0,2.5,0,3.7,0
				c2.6,0,6.3-0.8,7.6-3.4c1.2-2.4-1-4.1-3.3-4.1c-1.2,0-2.5,0-3.7,0c-1.4,2.5-2.8,5-4.3,7.5c8.2,0,16.2-2.2,22.8-7.2
				c1.8-1.3,3.1-3.7,0.8-5.2C143.6,104.8,139.5,105.7,137.6,107.2L137.6,107.2z"/>
		</g>
	</g>
	<g>
		<g>
			<path class="st1" d="M133,113.1c-2.4,1.8-5.1,3.1-7.8,3.8c1.7,2.3,3.3,4.6,5,6.9c2.2-1.7,4.4-3.3,6.6-5c2-1.5,2.9-4.5,0.6-6.2
				c-2.4-1.7-6.1-1-8.3,0.6c-2.2,1.7-4.4,3.3-6.6,5c-1.6,1.2-2.7,3.5-1.4,5.4c1.4,1.9,4.3,2.1,6.4,1.5c4.8-1.3,9.3-3.5,13.3-6.5
				c2-1.5,2.9-4.5,0.6-6.2C139,110.7,135.2,111.4,133,113.1L133,113.1z"/>
		</g>
	</g>
	<g>
		<g>
			<path class="st1" d="M188.5,93.5c0.7,0.7,1.3,1.3,2,2c0.8,0.8,2.1,1,3.1,1.1c1.5,0.1,3.2-0.3,4.5-0.9c1.1-0.5,2.5-1.2,3.1-2.3
				c0.4-0.8,0.7-1.7,0-2.5c-0.7-0.7-1.3-1.3-2-2c-0.8-0.8-2.1-1-3.1-1.1c-1.5-0.1-3.2,0.3-4.5,0.9c-1.1,0.5-2.5,1.2-3.1,2.3
				C188,91.8,187.7,92.7,188.5,93.5L188.5,93.5z"/>
		</g>
	</g>
	<g>
		<g>
			<path class="st1" d="M207.2,89.3c-0.2,0-1-0.1-0.4,0c0.1,0,0.3,0.1,0.4,0.1c-0.2-0.1-0.5-0.2-0.7-0.2c0.6,0.2,1.1,0.6,1.5,1.1
				c-0.1-0.1-0.2-0.3-0.3-0.4c0.2,0.2,0.3,0.5,0.5,0.7c0.3,0.7,1.4,0.7,2,0.7c1.4,0,2.9-0.3,4.2-0.6c1.4-0.4,2.8-0.8,4-1.6
				c0.4-0.2,1.7-1,1.4-1.6c-1-2-2.9-2.5-5-2.7c-1.3-0.1-3,0.3-4.2,0.6c-1.3,0.3-2.8,0.8-4,1.6c-0.4,0.3-1.7,1-1.4,1.6
				C205.5,89.3,206.6,89.2,207.2,89.3L207.2,89.3z"/>
		</g>
	</g>
	<g>
		<g>
			<path class="st1" d="M218.8,84.2c1,1.3,2,2.7,3,4c0.6,0.8,2.2,1.1,3.2,1.2c1.5,0.1,3.2-0.3,4.6-0.9c1.7-0.8,4.7-2.8,3-5
				c-1-1.3-2-2.7-3-4c-0.6-0.8-2.2-1.1-3.2-1.2c-1.5-0.1-3.2,0.3-4.6,0.9C220.1,80.1,217.1,82.1,218.8,84.2L218.8,84.2z"/>
		</g>
	</g>
	<g>
		<g>
			<path class="st1" d="M207.5,66.5c1.8,1.7,3,3.5,3.7,5.9c1.6-1.6,3.3-3.2,4.9-4.8c-3.8,0.9-7.4,2.4-10.8,4.3
				c-1.8,1-3.2,3.6-0.9,4.9c2.5,1.4,6,0.3,8.2-1c1.6-0.9,3.1-1.4,5.2-1.8c1.8-0.4,5.7-2.3,4.9-4.8c-0.9-2.8-2.4-5.5-4.6-7.5
				c-2-1.9-5.4-1.3-7.7-0.3C209.1,62.1,205.5,64.6,207.5,66.5L207.5,66.5z"/>
		</g>
	</g>
	<g>
		<g>
			<path class="st1" d="M193.8,55.1c1,1,2,2,3,3c0.7,0.8,2.1,0.9,3.1,0.9c1.5,0,3.2-0.3,4.5-0.9c1.1-0.5,2.5-1.1,3.1-2.2
				c0.4-0.7,0.7-1.6,0-2.3c-1-1-2-2-3-3c-0.7-0.8-2.1-0.9-3.1-0.9c-1.5,0-3.2,0.3-4.5,0.9c-1.1,0.5-2.5,1.1-3.1,2.2
				C193.3,53.5,193.1,54.4,193.8,55.1L193.8,55.1z"/>
		</g>
	</g>
	<g>
		<g>
			<path class="st1" d="M178.5,64.3c0.1,0,0.1,0,0.2,0c-0.4-0.1-0.7-0.3-1.1-0.4c0.3,0.1,0.5,0.2,0.7,0.4c-0.3-0.2-0.5-0.4-0.8-0.6
				c0.3,0.2,0.5,0.5,0.7,0.9c-0.1-0.3-0.3-0.5-0.4-0.8c0.2,0.4,0.3,0.8,0.3,1.2c0-0.3,0-0.6,0-0.9c0,0.2,0,0.3,0,0.5
				c-0.4,2.6,3.3,2.9,5.1,2.7c1.5-0.2,3.1-0.6,4.4-1.5c0.9-0.6,2-1.4,2.2-2.5c0.2-1.3-0.1-2.4-0.8-3.5c-0.8-1.1-2.1-1.7-3.4-2.1
				c-1.3-0.4-3.1-0.1-4.3,0.2c-1.3,0.3-2.9,1-3.9,2c-0.6,0.6-1.5,1.6-1.1,2.6C176.6,63.6,177.5,64,178.5,64.3L178.5,64.3z"/>
		</g>
	</g>
	<g>
		<g>
			<path class="st1" d="M157.2,70.6c0.7,1,1.3,2,2,3c0.1,0.4,0.4,0.6,0.7,0.7c0.4,0.2,0.9,0.4,1.4,0.4c1.4,0.1,3-0.1,4.3-0.5
				c1.3-0.4,2.8-0.9,3.9-1.7c0.4-0.3,1.7-1.3,1.3-1.9c-0.7-1-1.3-2-2-3c-0.1-0.4-0.4-0.6-0.7-0.7c-0.4-0.2-0.9-0.4-1.4-0.4
				c-1.4-0.1-3,0.1-4.3,0.5c-1.3,0.4-2.8,0.9-3.9,1.7C158.1,68.9,156.8,69.9,157.2,70.6L157.2,70.6z"/>
		</g>
	</g>
	<g>
		<g>
			<path class="st1" d="M138.3,75.5c1,1.7,2,3.3,3,5c0.5,0.9,1.1,1.2,2.2,1.4c1.3,0.2,3,0,4.3-0.3c1.4-0.4,2.8-0.9,3.9-1.9
				c0.5-0.4,1.7-1.5,1.2-2.3c-1-1.7-2-3.3-3-5c-0.5-0.9-1.1-1.2-2.2-1.4c-1.3-0.2-3,0-4.3,0.3c-1.4,0.4-2.8,0.9-3.9,1.9
				C139,73.6,137.8,74.7,138.3,75.5L138.3,75.5z"/>
		</g>
	</g>
	<g>
		<g>
			<path class="st1" d="M122.7,84.7c0.2,0.1,0.4,0.1,0.6,0.2c-0.4-0.2-0.7-0.4-1.1-0.6c0.3,0.2,0.6,0.4,0.9,0.7
				c-0.3-0.3-0.6-0.5-0.8-0.8c0.3,0.3,0.6,0.7,0.8,1.1c-0.2-0.3-0.3-0.7-0.5-1c0.2,0.5,0.4,1,0.4,1.5c0-0.4-0.1-0.7-0.1-1.1
				c0,0.2,0,0.4,0,0.7c-0.3,2.8,3.1,4,5.4,3.8c2.5-0.3,6.1-1.8,6.4-4.7c0.4-3.5-2-6.6-5.2-7.6c-1.4-0.4-3-0.5-4.4-0.1
				c-1.3,0.4-2.9,1.2-3.8,2.3c-0.7,0.9-1.3,2.1-0.9,3.3C120.6,83.5,121.6,84.4,122.7,84.7L122.7,84.7z"/>
		</g>
	</g>
	<g>
		<g>
			<path class="st1" d="M104.6,84.7c-0.5,1.2-0.8,2.2-0.5,3.5c0.4,1.2,1.2,2.1,2.2,2.7c1,0.7,2.7,0.7,3.9,0.6
				c1.4-0.2,3.2-0.7,4.4-1.5c0.9-0.6,2-1.5,2.1-2.7c0.1-1.1-0.4-1.8-1.3-2.3c-0.1-0.1-0.2-0.1-0.3-0.2c0.3,0.2,0.5,0.4,0.8,0.6
				c-0.2-0.2-0.4-0.4-0.6-0.7c0.1,0.3,0.3,0.5,0.4,0.8c-0.2-0.3-0.3-0.7-0.3-1c0,0.3,0,0.6,0,0.9c0-0.3,0-0.6,0.1-0.9
				c-0.1,0.3-0.3,0.6-0.4,0.9c0,0,0-0.1,0.1-0.1c0.4-0.9,0.6-1.8-0.1-2.7c-0.7-0.8-2.2-1.2-3.2-1.2c-1.5-0.1-3.2,0.2-4.6,0.9
				c-0.4,0.2-0.9,0.5-1.3,0.7C105.7,83.5,105.1,84,104.6,84.7L104.6,84.7z"/>
		</g>
	</g>
	<g>
		<g>
			<path class="st1" d="M87.5,96.3c0.6,0.4,1.1,0.9,1.4,1.5c-0.1-0.2-0.3-0.4-0.4-0.6c0.4,0.7,0.7,1.5,0.7,2.4
				c0,0.9,1.6,1.3,2.2,1.4c1.3,0.2,3,0,4.3-0.3c1.9-0.6,5.2-1.7,5.1-4.2c-0.1-1.7-1.1-3.5-2.5-4.5c-2.2-1.4-5.3-0.9-7.6,0.1
				c-1.1,0.5-2.5,1.1-3.1,2.1C87.2,94.8,86.7,95.8,87.5,96.3L87.5,96.3z"/>
		</g>
	</g>
	<g>
		<g>
			<path class="st1" d="M76,102.6c0.4,1,0.7,2,1.1,3c0.3,0.8,1.4,0.9,2.1,1c1.4,0.1,3-0.1,4.3-0.5c1.3-0.4,2.8-0.8,3.9-1.7
				c0.5-0.4,1.6-1.1,1.3-1.9c-0.4-1-0.7-2-1.1-3c-0.3-0.8-1.4-0.9-2.1-1c-1.4-0.1-3,0.1-4.3,0.5c-1.3,0.4-2.8,0.8-3.9,1.7
				C76.8,101.1,75.8,101.8,76,102.6L76,102.6z"/>
		</g>
	</g>
	<g>
		<g>
			<path class="st1" d="M87.6,119.9c1.1-1.1,1.7-1.6,2.8-2.3c0.6-0.4,1.3-0.6,2.3-0.8c1.7-0.4,5.6-2.1,5-4.5c-0.7-2.4-5-1.8-6.6-1.4
				c-4.8,1.2-9.4,3.5-12.9,7.1c-1.7,1.7-1.3,3.6,1.1,4.2C82,122.7,85.7,121.8,87.6,119.9L87.6,119.9z"/>
		</g>
	</g>
	<g>
		<g>
			<path class="st1" d="M106.7,103.5c0.7,1,1.3,2,2,3c0.7,1,2.2,1.5,3.3,1.6c1.4,0.2,3.3-0.1,4.6-0.8c2.1-1.1,4.4-3.4,2.8-5.9
				c-0.7-1-1.3-2-2-3c-0.7-1-2.2-1.5-3.3-1.6c-1.4-0.2-3.3,0.1-4.6,0.8C107.3,98.8,105,101.1,106.7,103.5L106.7,103.5z"/>
		</g>
	</g>
	<g>
		<g>
			<path class="st1" d="M119.7,100.2c1.3,1,2.6,2.1,3.9,3.1c1,0.8,2.7,1,4,1c1.4-0.1,3.2-0.7,4.4-1.6c0.9-0.8,2-1.9,2-3.2
				c0-1.3-0.4-2.2-1.4-3c-1.3-1-2.6-2.1-3.9-3.1c-1-0.8-2.7-1-4-1c-1.4,0.1-3.2,0.7-4.4,1.6c-0.9,0.8-2,1.9-2,3.2
				C118.2,98.4,118.7,99.4,119.7,100.2L119.7,100.2z"/>
		</g>
	</g>
	<g>
		<g>
			<path class="st1" d="M138.6,95.6c0.4,0.1,0.7,0.2,1.1,0.3c-0.4-0.2-0.7-0.3-1.1-0.5c0.5,0.2,0.9,0.5,1.3,0.8
				c-0.3-0.2-0.5-0.5-0.8-0.7c0.5,0.5,0.9,1,1.3,1.6c-0.2-0.3-0.3-0.6-0.5-0.9c0.1,0.1,0.1,0.3,0.2,0.4c0.5,1.1,1.2,1.8,2.4,2.2
				c1.3,0.4,3.1,0.4,4.4,0c1.4-0.4,2.9-1,3.8-2.2c0.6-0.8,1.5-2,1-3.1c-0.7-1.5-1.5-2.6-2.8-3.6c-1-0.8-2.3-1.4-3.5-1.7
				c-1.5-0.3-2.9-0.4-4.4,0c-1.3,0.3-2.9,1.1-3.8,2.2c-0.7,0.8-1.4,1.9-1,3.1C136.6,94.5,137.5,95.3,138.6,95.6L138.6,95.6z"/>
		</g>
	</g>
	<g>
		<g>
			<path class="st1" d="M152.4,88.2c1,1,2,2,3,3c0.6,0.6,2.3,0.5,3,0.4c1.5-0.1,3.1-0.5,4.5-1c1.1-0.4,2.4-0.9,3.2-1.8
				c0.5-0.5,0.8-1.1,0.2-1.7c-1-1-2-2-3-3c-0.6-0.6-2.3-0.5-3-0.4c-1.5,0.1-3.1,0.5-4.5,1c-1.1,0.4-2.4,0.9-3.2,1.8
				C152.1,87.1,151.8,87.6,152.4,88.2L152.4,88.2z"/>
		</g>
	</g>
	<g>
		<g>
			<path class="st1" d="M93.3,128.3C93.6,128.4,93.6,128.4,93.3,128.3c0.1,0.1,0.2,0.1,0.4,0.2c0.2,0.1,0.4,0.3,0.6,0.4
				c0.4,0.4,0.8,0.8,1.2,1.2c-0.1-0.2-0.2-0.3-0.4-0.5c0.4,0.6,0.8,1.2,1,1.9c0.2,0.8,1.5,0.9,2.1,1c1.4,0.1,3-0.1,4.3-0.5
				c1.3-0.4,2.8-0.8,3.9-1.7c0.5-0.4,1.6-1.1,1.3-1.9c-0.8-2.4-2.6-4-4.9-4.9c-1-0.4-2.7-0.2-3.7,0c-1.5,0.2-3.1,0.7-4.4,1.4
				c-0.8,0.4-2,1-2.3,1.9C92,127.6,92.7,128,93.3,128.3L93.3,128.3z"/>
		</g>
	</g>
	<g>
		<g>
			<path class="st1" d="M68.1,89.6c0.3,0.7,0.6,1.4,0.9,2c0.3,0.7,1.4,0.9,2.1,0.9c1.4,0.1,3-0.2,4.3-0.5c1.3-0.4,2.8-0.8,3.9-1.7
				c0.5-0.3,1.7-1.1,1.3-1.8c-0.3-0.7-0.6-1.4-0.9-2c-0.3-0.7-1.4-0.9-2.1-0.9c-1.4-0.1-3,0.2-4.3,0.5c-1.3,0.4-2.8,0.8-3.9,1.7
				C69,88.1,67.8,88.9,68.1,89.6L68.1,89.6z"/>
		</g>
	</g>
	<g>
		<g>
			<path class="st1" d="M88.5,83.9c0.7,0.3,1.3,0.7,2,1c0.8,0.4,2.1,0.3,2.9,0.2c1.5-0.1,3.1-0.5,4.5-1c1.1-0.4,2.4-0.8,3.3-1.6
				c0.3-0.3,1-1,0.3-1.4c-0.7-0.3-1.3-0.7-2-1c-0.8-0.4-2.1-0.3-2.9-0.2c-1.5,0.1-3.1,0.5-4.5,1c-1.1,0.4-2.4,0.8-3.3,1.6
				C88.4,82.9,87.8,83.5,88.5,83.9L88.5,83.9z"/>
		</g>
	</g>
	<g>
		<g>
			<path class="st1" d="M103.8,76.1c1.4,1.7,3.5,2.7,5.7,3.1c1.4,0.2,2.9,0.1,4.3-0.3c1.3-0.3,2.9-1,3.9-1.9
				c0.6-0.6,1.5-1.5,1.2-2.5c-0.3-0.9-1.3-1.4-2.2-1.6c-0.1,0-0.6-0.1-0.7-0.1c0.1,0.1,1,0.4,0.3,0.1c-0.4-0.2-0.8-0.4-1.1-0.6
				c0.3,0.2,0.5,0.4,0.8,0.5c-0.5-0.3-0.9-0.7-1.2-1.1c-0.7-0.8-2.2-1-3.1-1c-1.5,0-3.2,0.3-4.5,0.9
				C105.4,72.2,102.1,74.1,103.8,76.1L103.8,76.1z"/>
		</g>
	</g>
	<g>
		<g>
			<path class="st1" d="M123.6,68.4c1,1.3,2,2.7,3,4c0.7,0.9,2.2,1.3,3.2,1.3c1.5,0.1,3.2-0.2,4.6-0.9c1.8-0.9,4.6-3,2.9-5.3
				c-1-1.3-2-2.7-3-4c-0.7-0.9-2.2-1.3-3.2-1.3c-1.5-0.1-3.2,0.2-4.6,0.9C124.7,64,121.9,66.2,123.6,68.4L123.6,68.4z"/>
		</g>
	</g>
	<g>
		<g>
			<path class="st1" d="M142.6,59.4c-1.1,2.6-0.4,5.4,1.9,7c1.1,0.8,2.7,1,3.9,0.9c1.4-0.1,3.2-0.7,4.4-1.6c0.9-0.7,2-1.8,2-3.1
				c0.1-1.2-0.4-2.2-1.4-2.9c-0.1-0.1-0.2-0.1-0.3-0.2c0.3,0.3,0.6,0.5,0.8,0.8c-0.2-0.2-0.4-0.5-0.6-0.8c0.2,0.3,0.3,0.7,0.5,1
				c-0.1-0.3-0.2-0.6-0.2-0.9c0,0.4,0,0.7,0.1,1.1c0-0.3,0-0.5,0.1-0.8c-0.1,0.4-0.2,0.7-0.3,1.1c0-0.1,0.1-0.2,0.1-0.3
				c0.5-1.1,0.5-2.2-0.2-3.2c-0.7-1-2.1-1.5-3.3-1.6c-1.5-0.1-3.2,0.1-4.6,0.8C144.4,57.3,143.1,58.1,142.6,59.4L142.6,59.4z"/>
		</g>
	</g>
	<g>
		<g>
			<path class="st1" d="M161.2,56.6c0.3,0.7,0.7,1.3,1,2c0.1,0.6,0.4,1,0.9,1.3c0.4,0.4,0.9,0.7,1.5,0.9c1.3,0.4,3.1,0.4,4.4,0
				c1.4-0.4,2.9-1.1,3.8-2.2c0.2-0.3,0.5-0.7,0.7-1c0.4-0.7,0.5-1.4,0.3-2.1c-0.3-0.7-0.7-1.3-1-2c-0.1-0.6-0.4-1-0.9-1.3
				c-0.4-0.4-0.9-0.7-1.5-0.9c-1.3-0.4-3.1-0.4-4.4,0c-1.4,0.4-2.9,1.1-3.8,2.2c-0.2,0.3-0.5,0.7-0.7,1
				C161.1,55.1,161,55.8,161.2,56.6L161.2,56.6z"/>
		</g>
	</g>
	<g>
		<g>
			<path class="st1" d="M175.2,47.6c0,0.7,0,1.3,0,2c-0.1,0.5,0,1,0.3,1.4c0.2,0.5,0.5,0.9,1,1.1c1.1,0.7,2.7,0.8,3.9,0.7
				c1.5-0.2,3.1-0.6,4.4-1.6c0.3-0.3,0.7-0.6,1-0.9c0.6-0.5,0.9-1.2,1.1-2c0-0.7,0-1.3,0-2c0.1-0.5,0-1-0.3-1.4
				c-0.2-0.5-0.5-0.9-1-1.1c-1.1-0.7-2.7-0.8-3.9-0.7c-1.5,0.2-3.1,0.6-4.4,1.6c-0.3,0.3-0.7,0.6-1,0.9
				C175.7,46.1,175.3,46.8,175.2,47.6L175.2,47.6z"/>
		</g>
	</g>
	<g>
		<g>
			<path class="st1" d="M190,43.4c0,1,0,2,0,3c0,1.2,0.4,2.2,1.4,3c1.1,0.8,2.7,1.1,4,0.9c1.5-0.2,3.2-0.6,4.4-1.6
				c0.9-0.7,2-1.9,2-3.1c0-1,0-2,0-3c0-1.2-0.4-2.2-1.4-3c-1.1-0.8-2.7-1.1-4-0.9c-1.5,0.2-3.2,0.6-4.4,1.6
				C191.2,41,190,42.2,190,43.4L190,43.4z"/>
		</g>
	</g>
	<g>
		<g>
			<path class="st1" d="M167.1,82.6c0.3,0.7,0.7,1.3,1,2c0.4,0.8,1.3,0.9,2.1,1c1.4,0.1,3-0.1,4.3-0.5c1.3-0.4,2.8-0.8,3.9-1.7
				c0.3-0.2,0.5-0.4,0.8-0.7c0.4-0.3,0.6-0.7,0.5-1.2c-0.3-0.7-0.7-1.3-1-2c-0.4-0.8-1.3-0.9-2.1-1c-1.4-0.1-3,0.1-4.3,0.5
				c-1.3,0.4-2.8,0.8-3.9,1.7c-0.3,0.2-0.5,0.4-0.8,0.7C167.2,81.7,167,82.1,167.1,82.6L167.1,82.6z"/>
		</g>
	</g>
	<g>
		<g>
			<path class="st1" d="M97.2,107.6c0.3,1,0.7,2,1,3c0.3,0.8,1.4,1,2.1,1.1c1.4,0.2,3-0.1,4.3-0.4c1.3-0.4,2.8-0.9,3.9-1.8
				c0.5-0.4,1.6-1.2,1.3-2c-0.3-1-0.7-2-1-3c-0.3-0.8-1.4-1-2.1-1.1c-1.4-0.2-3,0.1-4.3,0.4c-1.3,0.4-2.8,0.9-3.9,1.8
				C97.9,106,96.9,106.7,97.2,107.6L97.2,107.6z"/>
		</g>
	</g>
	<g>
		<g>
			<path class="st1" d="M80.2,133.6c0.3,1.3,0.7,2.7,1,4c0.3,1.1,1.4,1.7,2.4,2c1.3,0.4,3.1,0.3,4.4-0.1c1.4-0.4,2.9-1,3.8-2.1
				c0.7-0.8,1.3-1.8,1-2.9c-0.3-1.3-0.7-2.7-1-4c-0.3-1.1-1.4-1.7-2.4-2c-1.3-0.4-3.1-0.3-4.4,0.1c-1.4,0.4-2.9,1-3.8,2.1
				C80.5,131.4,79.9,132.4,80.2,133.6L80.2,133.6z"/>
		</g>
	</g>
	<g>
		<g>
			<path class="st1" d="M179.1,77.6c0.7,1.3,1.3,2.7,2,4c1.1,2.1,4.6,1.6,6.5,1.1c1.4-0.4,2.8-0.9,3.9-1.9c0.5-0.5,1.6-1.5,1.2-2.3
				c-0.7-1.3-1.3-2.7-2-4c-1.1-2.1-4.6-1.6-6.5-1.1c-1.4,0.4-2.8,0.9-3.9,1.9C179.8,75.8,178.7,76.8,179.1,77.6L179.1,77.6z"/>
		</g>
	</g>
	<g>
		<g>
			<path class="st1" d="M206.8,46.7c0.6,2.5,1.9,4.5,3.8,6.3c0.5,0.5,2.4,0.2,2.9,0.2c1.5-0.2,3.1-0.5,4.5-1c0.8-0.3,4.9-1.7,3.5-3
				c-1.6-1.5-2.6-3.5-3.1-5.6c-0.2-0.6-1.6-0.6-2-0.6c-1.4,0-2.9,0.3-4.2,0.7c-1.4,0.4-2.8,0.8-4,1.5
				C207.7,45.4,206.6,46,206.8,46.7L206.8,46.7z"/>
		</g>
	</g>
</g>
<g id="Слой_1">
	<g>
		<g>
			<path d="M59.8,89.3c7.5,18.2,13.4,36.9,17.7,56.1c0.2,1,3.1,0.3,2.9-0.8c-4.2-19.2-10.1-38-17.7-56.1
				C62.3,87.5,59.4,88.4,59.8,89.3L59.8,89.3z"/>
		</g>
	</g>
	<g>
		<g>
			<path d="M80.1,146.3c28.5-6.9,55.8-17.6,83.5-27.2c14.4-5,29-9.7,43.8-13.3c7.3-1.8,14.7-3.3,22.1-4.5c3.5-0.5,7-1,10.5-1.4
				c1.7-0.2,3.7,0,5.2-1.1c0.2-0.1,0.5-0.5,0.2-0.7c-0.4-0.3-0.7-0.4-1.2-0.6c-0.7-0.2-2.4,0.2-2.4,1.1c0,0.1,0,0.2,0,0.3
				c0,0.7,2.9,0.2,2.9-0.8c0-0.1,0-0.2,0-0.3c-0.8,0.4-1.6,0.7-2.4,1.1c0-1.1-0.6-1.2-1.9-0.5c-0.6,0.1-1.2,0.1-1.8,0.2
				c-1.8,0.2-3.5,0.4-5.3,0.7c-3.5,0.5-7,1.1-10.5,1.7c-6.5,1.2-13,2.7-19.4,4.3c-13.6,3.5-27,7.8-40.3,12.4
				c-27.7,9.6-55,20.3-83.6,27.2C78,145.5,78.4,146.8,80.1,146.3L80.1,146.3z"/>
		</g>
	</g>
	<g>
		<g>
			<path d="M215.4,33.2c8.9,16.5,17.9,33.1,26.8,49.6c0.6,1.1,3.4,0,2.7-1.3C236,65,227,48.5,218.1,32
				C217.5,30.9,214.7,31.9,215.4,33.2L215.4,33.2z"/>
		</g>
	</g>
	<g>
		<g>
			<path d="M59.8,87.1c50.9-18.6,101.8-37.2,152.7-55.8c1.9-0.7,0.1-1.2-1-0.8C160.5,49.1,109.6,67.7,58.7,86.3
				C56.8,87,58.6,87.5,59.8,87.1L59.8,87.1z"/>
		</g>
	</g>
	<g>
		<g>
			<path d="M241.3,76.5c3.1,5.2,6.3,10.5,9.4,15.7c0.4,0.7,3.1-0.5,2.9-0.8c-3.1-5.2-6.3-10.5-9.4-15.7
				C243.8,75.1,241.1,76.2,241.3,76.5L241.3,76.5z"/>
		</g>
	</g>
	<g>
		<g>
			<path d="M232.1,97.6c-1.3,0.7-2.6,1.5-3.9,2.2c-1.1,0.6-0.2,1.3,0.7,1.2c9.2-1.1,17.8-4.1,25.8-8.8c1.7-1-0.9-1.4-1.8-0.8
				c-7.3,4.4-15.1,7.1-23.6,8.1c0.2,0.4,0.5,0.8,0.7,1.2c1.3-0.7,2.6-1.5,3.9-2.2C235.6,97.4,233,97,232.1,97.6L232.1,97.6z"/>
		</g>
	</g>
	<g>
		<g>
			<path d="M108.6,118.4c1.8,3.9,3.9,12.3,9,13.1c2.6,0.4,5-1.3,7.2-2.5c3.5-1.9,7-3.7,10.6-5.3c16.1-7.4,33.2-12.8,49.8-18.8
				c1.7-0.6,1.2-2.6-0.5-2c-12.9,4.7-25.9,9.2-38.7,14.1c-6.3,2.4-12.4,5.1-18.4,8.1c-3.2,1.6-7.7,5.9-11.3,2.4
				c-2.2-2.2-3.5-7.1-4.8-9.9C110.9,116.3,108,117.2,108.6,118.4L108.6,118.4z"/>
		</g>
	</g>
	<g>
		<g>
			<path d="M179.3,91.5c1.5,4,2.9,7.9,4.4,11.9c0.4,0.9,3.2,0.1,2.9-0.8c-1.5-4-2.9-7.9-4.4-11.9C181.9,89.7,179,90.6,179.3,91.5
				L179.3,91.5z"/>
		</g>
	</g>
	<g>
		<g>
			<path d="M108.2,117.8c27.5-8.7,54.6-18.3,81.5-28.8c1.9-0.7,0.2-1.9-1.2-1.3c-26.6,10.4-53.5,19.9-80.7,28.6
				C106.1,116.7,106.5,118.3,108.2,117.8L108.2,117.8z"/>
		</g>
	</g>
	<g>
		<g>
			<path d="M91.9,126.9c2.5,2.6,2.8,7.4,7,8.1c2.3,0.4,6-0.5,6-3.4c0-0.8-2.9-0.3-2.9,0.8c0,1.3-1,1.3-2,0.9c-1-0.4-1.6-1.2-2.1-2.1
				c-1.1-1.8-1.8-3.9-3.3-5.4C93.9,125.1,91.1,126.1,91.9,126.9L91.9,126.9z"/>
		</g>
	</g>
	<g>
		<g>
			<path d="M100.8,125.3c2.2,1.8,3.4,4.3,3.7,7.1c0,0.5,3,0,2.9-0.8c-0.3-2.9-1.6-5.4-3.9-7.3C102.9,123.9,100.4,125,100.8,125.3
				L100.8,125.3z"/>
		</g>
	</g>
	<g>
		<g>
			<path d="M92.1,126.1c2.4-0.5,4.7-1,7.1-1.5c0.3-0.1,1.4-0.4,1.3-0.9c-0.1-0.5-1.3-0.2-1.6-0.1c-2.4,0.5-4.7,1-7.1,1.5
				c-0.3,0.1-1.4,0.4-1.3,0.9C90.6,126.5,91.8,126.2,92.1,126.1L92.1,126.1z"/>
		</g>
	</g>
	<g>
		<g>
			<path d="M81.7,129.3c-1,4.2,2.1,8.1,6.3,8.5c0.6,0.1,1.6-0.1,2-0.5c0.4-0.4,0.4-0.6-0.2-0.7c-3.6-0.4-6.1-4.3-5.3-7.8
				C84.8,128.1,81.9,128.5,81.7,129.3L81.7,129.3z"/>
		</g>
	</g>
	<g>
		<g>
			<path d="M86.3,129.5c1.4,2.6,2.8,5.3,4.2,7.9c0.4,0.8,3.2-0.2,2.9-0.8c-1.4-2.6-2.8-5.3-4.2-7.9C88.8,127.9,86,128.9,86.3,129.5
				L86.3,129.5z"/>
		</g>
	</g>
	<g>
		<g>
			<path d="M81.6,130.6c2-0.9,4.1-1.9,6.1-2.8c0.4-0.2,1.2-0.7,0.8-1.2c-0.4-0.5-1.5-0.2-1.9,0c-2,0.9-4.1,1.9-6.1,2.8
				c-0.4,0.2-1.2,0.7-0.8,1.2C80,131.1,81.1,130.8,81.6,130.6L81.6,130.6z"/>
		</g>
	</g>
	<g>
		<g>
			<path d="M189.2,90.2c-0.1,7.4,8.9,9.5,13.6,4.8c1.2-1.2-1.6-1.3-2.4-0.6c-3.6,3.6-8.4-0.2-8.3-4.5
				C192.1,88.6,189.2,89.2,189.2,90.2L189.2,90.2z"/>
		</g>
	</g>
	<g>
		<g>
			<path d="M198.6,89.7c1,1.7,1.9,3.4,2.9,5c0.7,1.2,3.4,0.1,2.6-1.3c-1-1.7-1.9-3.4-2.9-5C200.5,87.2,197.8,88.3,198.6,89.7
				L198.6,89.7z"/>
		</g>
	</g>
	<g>
		<g>
			<path d="M190.9,90.6c-0.3-0.3,4.4-1.5,5-1.6c1.1-0.2,2.3-0.5,3.4-0.7c0.4-0.1,1.4-0.5,1.3-1c-0.1-0.5-1.3-0.3-1.6-0.2
				c-2.1,0.4-4.2,0.8-6.2,1.4c-0.9,0.2-2.9,0.9-2.8,2.1c0.2,1.9,4.9,0.2,3.7-1C193,88.9,190.3,90,190.9,90.6L190.9,90.6z"/>
		</g>
	</g>
	<g>
		<g>
			<path d="M204.1,86.3c1.3,6.7,9.2,8.8,14.7,5.9c1.7-0.9-0.9-1-1.7-0.6c-4.3,2.2-9.3-2-10.1-6.1C206.9,84.7,204,85.4,204.1,86.3
				L204.1,86.3z"/>
		</g>
	</g>
	<g>
		<g>
			<path d="M214.7,86.3c1.4,2,2.7,4,4.1,6c0.5,0.8,3.2-0.3,2.9-0.8c-1.4-2-2.7-4-4.1-6C217.1,84.7,214.4,85.8,214.7,86.3L214.7,86.3
				z"/>
		</g>
	</g>
	<g>
		<g>
			<path d="M209.7,87.2c1-0.6,2-1.3,3-1.9c0.4-0.2,0.9-0.7,0.3-1.1c-0.6-0.3-1.5,0-2,0.3c-1,0.6-2,1.3-3,1.9
				c-0.4,0.2-0.9,0.7-0.3,1.1C208.3,87.7,209.2,87.5,209.7,87.2L209.7,87.2z"/>
		</g>
	</g>
	<g>
		<g>
			<path d="M218.4,81.3c1.2,3.4,2.7,7.4,6.6,8.1c2.7,0.5,5.8-0.3,7.3-2.8c0.3-0.6-2.4-0.4-2.9,0.4c-1.3,2.3-4.2,0.4-5.4-1
				c-1.3-1.6-2-3.6-2.7-5.6C221,79.7,218.2,80.5,218.4,81.3L218.4,81.3z"/>
		</g>
	</g>
	<g>
		<g>
			<path d="M227.6,79.6c1.7,2,3.3,4,5,6c0.7,0.8,3.4-0.2,2.7-1.1c-1.7-2-3.3-4-5-6C229.6,77.7,226.9,78.7,227.6,79.6L227.6,79.6z"/>
		</g>
	</g>
	<g>
		<g>
			<path d="M220.5,81.4c1.4-0.5,2.8-1,4.2-1.6c0.4-0.2,1.1-0.7,0.8-1.2c-0.4-0.5-1.5-0.2-1.9-0.1c-1.4,0.5-2.8,1-4.2,1.6
				c-0.4,0.2-1.1,0.7-0.8,1.2C219,81.9,220,81.6,220.5,81.4L220.5,81.4z"/>
		</g>
	</g>
	<g>
		<g>
			<path d="M79.3,124.1c5.3-1.4,11.5-3.1,16.2-6c1.5-0.9,4-4.1,1.1-4.9c-1.2-0.4-3.4,1.4-1.7,1.9c0.9,0.3-3.6,2.7-4,2.8
				c-1.1,0.5-2.2,0.9-3.4,1.4c-2.9,1.1-5.8,2-8.8,2.8C77,122.6,77.5,124.6,79.3,124.1L79.3,124.1z"/>
		</g>
	</g>
	<g>
		<g>
			<path d="M91.9,110.8c2.1,1.2,3.4,3.2,3.7,5.6c0.2,1.2,3.1,0.5,2.9-0.8c-0.3-2.7-2-5.1-4.4-6.4c-0.6-0.3-1.5-0.2-2.1,0.2
				C91.6,109.7,91.2,110.4,91.9,110.8L91.9,110.8z"/>
		</g>
	</g>
	<g>
		<g>
			<path d="M78.4,117.2c4.7-1.7,9.3-3.4,14-5c1.9-0.7,0.2-1.5-1.1-1.1c-4.7,1.7-9.3,3.4-14,5C75.4,116.8,77.2,117.7,78.4,117.2
				L78.4,117.2z"/>
		</g>
	</g>
	<g>
		<g>
			<path d="M77,115.5c0.4,2.5,1.3,4.7,2.8,6.8c0.5,0.7,3.1-0.5,2.9-0.8c-1.4-2-2.4-4.3-2.8-6.8C79.8,114.1,76.9,114.7,77,115.5
				L77,115.5z"/>
		</g>
	</g>
	<g>
		<g>
			<path d="M216.8,62.2c3.1,2.4,5.4,5.5,6.7,9.2c0.3,0.7,3.1-0.2,2.9-0.8c-1.4-3.7-3.8-6.9-6.9-9.4
				C218.9,60.8,216.4,61.9,216.8,62.2L216.8,62.2z"/>
		</g>
	</g>
	<g>
		<g>
			<path d="M207.9,79.4c5.6-2.2,11.2-4.4,16.7-6.7c1.9-0.7,0.2-1.7-1.1-1.2c-5.6,2.2-11.2,4.4-16.7,6.7
				C204.9,78.9,206.6,79.9,207.9,79.4L207.9,79.4z"/>
		</g>
	</g>
	<g>
		<g>
			<path d="M198.8,76.3c1.6,1,3.3,2.1,4.9,3.1c0.5,0.3,1.4,0,1.9-0.2c0.2-0.1,1.3-0.5,0.9-0.8c-1.6-1-3.3-2.1-4.9-3.1
				c-0.5-0.3-1.4,0-1.9,0.2C199.5,75.5,198.3,76,198.8,76.3L198.8,76.3z"/>
		</g>
	</g>
	<g>
		<g>
			<path d="M200.8,74.7c3.9-0.9,7.7-2.2,11.2-4.1c1.7-0.9-0.9-0.9-1.7-0.5c-2.9,1.6-5.9,2.7-9,3.4c-0.4,0.1-1.7,0.3-1.7,0.8
				C199.6,74.8,200.4,74.7,200.8,74.7L200.8,74.7z"/>
		</g>
	</g>
	<g>
		<g>
			<path d="M206.8,67.7c0.6,0.2,1.5,0.3,1.8,0.9c0.2,0.2,0.2,0.5,0.1,0.8c0,0.1-0.1,0.2-0.1,0.2c0.1-0.2,1.7-0.2,1.7-0.4
				c0,0-0.1-0.2-0.1-0.1c-0.4-0.7-3.1,0.4-2.9,0.8c0.4,0.8,1.5,0.5,2.2,0.4c0.8-0.2,1.7-0.6,2.1-1.4c0.7-1.4-1.5-2.1-2.4-2.4
				c-0.6-0.2-1.4,0.1-2,0.4C206.9,67.1,206.2,67.6,206.8,67.7L206.8,67.7z"/>
		</g>
	</g>
	<g>
		<g>
			<path d="M206.8,64.2c3.2-1.4,6.4-2.8,9.5-4.2c-0.6,0-1.3-0.1-1.9-0.1c1.4,2,2.4,4.2,3.1,6.5c0.4,1.2,3.3,0.4,2.9-0.8
				c-0.8-2.5-1.9-4.8-3.4-6.9c-0.4-0.6-1.5-0.4-1.9-0.1c-3.2,1.4-6.4,2.8-9.5,4.2C203.8,63.6,205.4,64.9,206.8,64.2L206.8,64.2z"/>
		</g>
	</g>
	<g>
		<g>
			<path d="M203.1,65.4c2.6,0.3,5.1,1.1,7.4,2.3c0.5,0.3,1.3,0,1.9-0.2c0.1,0,1.3-0.6,0.9-0.8c-2.6-1.4-5.4-2.2-8.3-2.5
				c-0.6-0.1-1.6,0.2-2,0.5C202.5,65.2,202.5,65.4,203.1,65.4L203.1,65.4z"/>
		</g>
	</g>
	<g>
		<g>
			<path d="M180.5,74.5c2.8,2.3,3.2,6.8,6.9,8c2.2,0.7,5.6,0.2,6.7-2.1c0.1-0.3-2.5-0.2-2.8,0.5c-1,2.2-3.9-1.4-4.5-2.4
				c-1.1-1.8-1.9-3.6-3.5-5C182.6,73.1,180.1,74.2,180.5,74.5L180.5,74.5z"/>
		</g>
	</g>
	<g>
		<g>
			<path d="M192.9,75.3C193.3,75,192.5,75.4,192.9,75.3C192.7,75.3,192.6,75.1,192.9,75.3c-0.2-0.1,0.1,0.1,0.1,0.1
				c-0.1-0.1,0.2,0.2,0.1,0.2c0.1,0.2,0,0.4,0,0.6c-0.1,0.2-0.1,0.1-0.1,0.1c0,0,0.5-0.1,0.1-0.1c-0.6,0-1.5,0.5-1.6,1.2
				c-0.1,0.8,0.8,1,1.4,1c1.8,0,3.9-1.7,3.2-3.6c-0.6-1.7-3-2.1-4.4-1.2c-0.5,0.3-1.1,0.9-0.7,1.5C191.3,75.6,192.3,75.6,192.9,75.3
				L192.9,75.3z"/>
		</g>
	</g>
	<g>
		<g>
			<path d="M185.2,75.3c-1.2-0.2-1.8-1.3-1.6-2.4c-0.1,0.1-0.2,0.3-0.3,0.4c2-1.1,3.9-2.1,5.9-3.2c0.5-0.3,0.3-0.6-0.2-0.6
				c-0.7-0.1-1.5,0.2-2,0.5c-1,0.6-2.1,1.1-3.1,1.7c-0.5,0.3-1,0.6-1.6,0.9c-0.4,0.2-1.1,0.4-1.4,0.8c-1,1.3,0.9,2.9,2,3.1
				c0.7,0.1,1.4-0.1,2-0.4C185.1,75.9,185.9,75.4,185.2,75.3L185.2,75.3z"/>
		</g>
	</g>
	<g>
		<g>
			<path d="M186.6,71.6c1.8,3.3,3.6,6.5,5.4,9.8c0.5,0.9,3.3,0,2.7-1.2c-1.8-3.3-3.6-6.5-5.4-9.8C188.7,69.6,185.9,70.5,186.6,71.6
				L186.6,71.6z"/>
		</g>
	</g>
	<g>
		<g>
			<path d="M166.4,80.9c1.5,2.5,3,6.2,6.1,7c2.3,0.6,5.3-0.6,5.7-3.1c0.3-1.3-2.7-0.9-2.9,0.3c-0.4,2.4-3-0.2-3.7-1.1
				c-1-1.4-1.8-2.9-2.6-4.3C168.5,78.6,165.7,79.6,166.4,80.9L166.4,80.9z"/>
		</g>
	</g>
	<g>
		<g>
			<path d="M174.1,77.5c0.6,1.8,1.5,3.5,2.6,5.1c0.6,0.9,3.4-0.1,2.7-1.2c-1-1.4-1.8-3-2.4-4.7C176.6,75.6,173.7,76.4,174.1,77.5
				L174.1,77.5z"/>
		</g>
	</g>
	<g>
		<g>
			<path d="M172.4,77.4c-2.3,0.9-4.5,1.8-6.8,2.7c0.5,0.4,1,0.9,1.5,1.3c2.2-1.3,4.5-2.6,6.7-3.8c0.5-0.3,0.7-0.9,0.2-1.3
				c-0.6-0.4-1.5-0.1-2.1,0.2c-2.2,1.3-4.5,2.6-6.7,3.8c-0.5,0.3-0.7,0.8-0.3,1.2c0.4,0.5,1.4,0.2,1.8,0c2.3-0.9,4.5-1.8,6.8-2.7
				c0.5-0.2,1.1-0.8,0.7-1.3C174,76.9,172.9,77.2,172.4,77.4L172.4,77.4z"/>
		</g>
	</g>
	<g>
		<g>
			<path d="M152.9,88.8c1.8,1.7,3.7,3.3,5.5,5c0.6,0.6,1.9,0.1,2.3-0.4c1.4-1.7,2.9-3.3,4.3-5c1.2-1.4-1.5-1.9-2.4-0.9
				c-1.4,1.7-2.9,3.3-4.3,5c0.8-0.1,1.6-0.3,2.3-0.4c-1.8-1.7-3.7-3.3-5.5-5C154.2,86.2,151.7,87.6,152.9,88.8L152.9,88.8z"/>
		</g>
	</g>
	<g>
		<g>
			<path d="M160.2,85.1c1,1.3,2.1,2.6,3.1,3.9c0.4,0.6,3.2-0.4,2.7-1c-1-1.3-2.1-2.6-3.1-3.9C162.5,83.5,159.7,84.5,160.2,85.1
				L160.2,85.1z"/>
		</g>
	</g>
	<g>
		<g>
			<path d="M156.7,85c-1.9,0.4-3.8,0.7-5.7,1.1c0.2,0.7,0.3,1.3,0.5,2c2.6-1,5.2-1.9,7.8-2.9c0.5-0.2,1.4-0.6,1.2-1.4
				c-0.2-0.7-1.2-0.8-1.7-0.6c-2.6,1-5.2,1.9-7.8,2.9c-1.7,0.6-1.3,2.3,0.5,2c1.9-0.4,3.8-0.7,5.7-1.1
				C159.1,86.6,158.5,84.6,156.7,85L156.7,85z"/>
		</g>
	</g>
	<g>
		<g>
			<path d="M138.1,93.2c1.7,5.4,8.2,6.7,12.8,4.3c0.5-0.3,0.7-0.7,0.3-1.1c-0.5-0.4-1.6,0-2,0.3c-3.2,1.7-7.2-1.2-8.2-4.2
				C140.7,91.5,137.8,92.3,138.1,93.2L138.1,93.2z"/>
		</g>
	</g>
	<g>
		<g>
			<path d="M145.8,90.5c1.3,1.3,2.6,2.7,3.9,4c0.5,0.5,1.3,0.5,2,0.2c0.4-0.2,1.2-1,0.7-1.5c-1.3-1.3-2.6-2.7-3.9-4
				c-0.5-0.5-1.3-0.5-2-0.2C146.1,89.2,145.3,90,145.8,90.5L145.8,90.5z"/>
		</g>
	</g>
	<g>
		<g>
			<path d="M137.4,90.8c1.7,0,3.3,0,5,0c0.6,0,1.6-0.2,1.9-0.8c0.3-0.6-0.3-0.9-0.8-0.9c-1.7,0-3.3,0-5,0c-0.6,0-1.6,0.2-1.9,0.8
				C136.3,90.5,136.9,90.8,137.4,90.8L137.4,90.8z"/>
		</g>
	</g>
	<g>
		<g>
			<path d="M119.9,97.4c0.2,8.3,11,9.3,15.1,3.4c0.7-1-2.2-0.7-2.7,0c-3.6,5.1-9.4,0.8-9.5-4.2C122.8,95.9,119.9,96.4,119.9,97.4
				L119.9,97.4z"/>
		</g>
	</g>
	<g>
		<g>
			<path d="M128.8,94.6c1.4,2,2.7,3.9,4.1,5.9c0.7,1,3.5-0.1,2.7-1.2c-1.4-2-2.7-3.9-4.1-5.9C130.7,92.3,127.9,93.4,128.8,94.6
				L128.8,94.6z"/>
		</g>
	</g>
	<g>
		<g>
			<path d="M118.2,94.9c3,2.7,7.8,2,10.8-0.4c0.5-0.4-0.5-0.5-0.7-0.5c-0.7,0-1.4,0.3-1.9,0.7c-1.7,1.4-4,0.5-5.4-0.8
				C120.4,93.4,117.8,94.5,118.2,94.9L118.2,94.9z"/>
		</g>
	</g>
	<g>
		<g>
			<path d="M106,100.8c1.6,3,3.7,6.5,7.4,6.9c2.6,0.3,5.7-0.6,7-3c0.2-0.3-2.4-0.2-2.9,0.5c-2.7,4.7-7.6-3.2-8.7-5.2
				C108.5,99.4,105.7,100.4,106,100.8L106,100.8z"/>
		</g>
	</g>
	<g>
		<g>
			<path d="M113.1,100.1c2.4,1,4.4,2.9,5.5,5.2c0.6,1.3,3.5,0.5,2.9-0.8c-1.4-3-3.7-5.2-6.7-6.5C113.5,97.5,111.4,99.4,113.1,100.1
				L113.1,100.1z"/>
		</g>
	</g>
	<g>
		<g>
			<path d="M110.8,99.2c-1.2,0.3-2.5,0.7-3.7,1c0.3,0.5,0.6,1.1,0.8,1.6c1.9-1,3.9-1.9,5.8-2.9c0.5-0.2,1.1-0.8,0.7-1.3
				c-0.4-0.5-1.5-0.4-1.9-0.1c-1.9,1-3.9,1.9-5.8,2.9c-1.5,0.8-0.6,2,0.8,1.6c1.2-0.3,2.5-0.7,3.7-1c0.5-0.1,1.4-0.6,1.2-1.3
				C112.3,99,111.3,99.1,110.8,99.2L110.8,99.2z"/>
		</g>
	</g>
	<g>
		<g>
			<path d="M94.3,108c4,0.2,5.6,5.5,9.8,5.7c2.6,0.2,5.9-2.1,4.8-5c-0.5-1.3-3.4-0.5-2.9,0.8c0.5,1.3-1,1.9-2.1,1.8
				c-0.5-0.1-1.1-0.7-1.5-1c-0.8-0.7-1.6-1.5-2.4-2.3c-1.4-1.2-2.9-2-4.7-2.1C93.8,105.8,92.3,107.9,94.3,108L94.3,108z"/>
		</g>
	</g>
	<g>
		<g>
			<path d="M101.8,103.6c1.3,1.7,2.7,3.3,4,5c0.8,1,3.6-0.1,2.7-1.3c-1.3-1.7-2.7-3.3-4-5C103.6,101.3,100.9,102.4,101.8,103.6
				L101.8,103.6z"/>
		</g>
	</g>
	<g>
		<g>
			<path d="M94.5,106.4c2-0.7,4-1.3,6-2c0.3-0.1,1.1-0.4,0.9-0.9c-0.3-0.4-1.6,0.1-1.9,0.1c-2,0.7-4,1.3-6,2
				c-0.3,0.1-1.1,0.4-0.9,0.9C92.9,106.9,94.2,106.5,94.5,106.4L94.5,106.4z"/>
		</g>
	</g>
	<g>
		<g>
			<path d="M73.5,104.8c0.9,1.4,1.7,2.8,2.6,4.2c0.6,1,0.9,1.9,2.2,2c2.2,0.1,4.4-1,5.9-2.6c1.2-1.4-1.5-1.9-2.4-0.9
				c-0.9,1-1.9,1.3-3.2,1.3c0.4,0.1,0.8,0.3,1.2,0.4c-1.2-1.9-2.3-3.8-3.5-5.7C75.4,102.3,72.7,103.5,73.5,104.8L73.5,104.8z"/>
		</g>
	</g>
	<g>
		<g>
			<path d="M82.4,100.9c2,1.6,3.2,3.9,3.3,6.5c0,0.7,2.9,0.2,2.9-0.8c-0.1-2.7-1.4-5.1-3.5-6.8C84.4,99.3,81.8,100.4,82.4,100.9
				L82.4,100.9z"/>
		</g>
	</g>
	<g>
		<g>
			<path d="M74.7,103.1c3.3,1.8,7.9,0.5,9.5-3c0.7-1.5-2.2-1.5-2.8-0.3c-0.8,1.7-2.8,2.6-4.5,1.7c-0.7-0.3-1.5-0.3-2.1,0.2
				C74.4,102,74,102.8,74.7,103.1L74.7,103.1z"/>
		</g>
	</g>
	<g>
		<g>
			<path d="M87.1,96.2c2.2,6.5,12,6.8,15.6,1.5c0.8-1.2-2.1-1.1-2.7-0.2c-2.6,3.9-8.6,1.9-10-2.1C89.7,94.3,86.8,95.1,87.1,96.2
				L87.1,96.2z"/>
		</g>
	</g>
	<g>
		<g>
			<path d="M97.7,91.4c1.7,1.2,2.6,2.9,2.8,5c0,0.7,3,0.1,2.9-0.8c-0.1-2.1-1.2-4-2.9-5.2c-0.5-0.4-1.4-0.1-1.9,0.1
				C98.3,90.6,97.2,91.1,97.7,91.4L97.7,91.4z"/>
		</g>
	</g>
	<g>
		<g>
			<path d="M89.2,94.8c3.2-0.9,6.1-2.2,8.9-3.9c0.5-0.3,0.7-0.9,0.2-1.3c-0.5-0.4-1.6-0.1-2.1,0.2c-2.3,1.5-4.8,2.6-7.5,3.3
				C87,93.5,87.4,95.3,89.2,94.8L89.2,94.8z"/>
		</g>
	</g>
	<g>
		<g>
			<path d="M104.6,87.4c0.3,8.1,11.7,8,14.2,1.2c0.4-1-2.5-0.6-2.9,0.4c-2,5.5-8.2,2.4-8.4-2.4C107.5,85.7,104.6,86.3,104.6,87.4
				L104.6,87.4z"/>
		</g>
	</g>
	<g>
		<g>
			<path d="M113.5,83.4c1.1,2,2.2,3.9,3.3,5.9c0.5,0.8,3.2-0.2,2.9-0.8c-1.1-2-2.2-3.9-3.3-5.9C115.9,81.8,113.2,82.8,113.5,83.4
				L113.5,83.4z"/>
		</g>
	</g>
	<g>
		<g>
			<path d="M107.5,87.5c2.7-1.3,5.3-2.7,8-4c1.8-0.9,0.2-2-1.2-1.3c-2.7,1.3-5.3,2.7-8,4C104.5,87.1,106.2,88.1,107.5,87.5
				L107.5,87.5z"/>
		</g>
	</g>
	<g>
		<g>
			<path d="M122.2,81.1c-0.8,3.3,1.3,6.8,4.8,7.3c3.1,0.5,6.6-1,8.2-3.8c0.3-0.5-2.4-0.3-2.9,0.5c-2.9,5-8.2-0.3-7.2-4.4
				C125.3,79.9,122.4,80.3,122.2,81.1L122.2,81.1z"/>
		</g>
	</g>
	<g>
		<g>
			<path d="M131.5,80.4c0.7,1.3,1.3,2.7,2,4c0.3,0.6,3.1-0.4,2.9-0.8c-0.7-1.3-1.3-2.7-2-4C134,79,131.3,80,131.5,80.4L131.5,80.4z"
				/>
		</g>
	</g>
	<g>
		<g>
			<path d="M122.6,81.6c3.3-1.4,6.6-2.8,9.9-4.3c1.9-0.8,0.1-1.4-1.1-0.9c-3.3,1.4-6.6,2.8-9.9,4.3
				C119.7,81.5,121.4,82.1,122.6,81.6L122.6,81.6z"/>
		</g>
	</g>
	<g>
		<g>
			<path d="M138,77.2c-0.3,3.2,2.6,5.3,5.6,5.4c3.5,0.1,6.6-1.8,9.4-3.8c1.2-0.9-1.6-0.7-2.3-0.3c-2,1.3-4.6,3.3-7.1,2.3
				c-1.7-0.7-3-2.3-2.8-4.2C141,75.8,138.1,76.4,138,77.2L138,77.2z"/>
		</g>
	</g>
	<g>
		<g>
			<path d="M147.6,72.4c1,2,2,4,3,6c0.3,0.6,3.1-0.4,2.9-0.8c-1-2-2-4-3-6C150.2,70.9,147.4,72,147.6,72.4L147.6,72.4z"/>
		</g>
	</g>
	<g>
		<g>
			<path d="M139.9,76.7c2.5-2.1,5.2-3.7,8.4-4.6c1.8-0.5,1.2-2.6-0.6-2.1c-3.6,1-6.9,2.8-9.8,5.2C136.5,76.5,138.8,77.7,139.9,76.7
				L139.9,76.7z"/>
		</g>
	</g>
	<g>
		<g>
			<path d="M156,69.5c-0.7,0.4-0.1,0.6,0.2,1.2c0.3,0.6,0.3,1.3,0.5,2c0.2,0.7,0.4,1.3,0.8,1.9c0.8,1,2,1.6,3.3,1.8
				c2.5,0.4,5.6-0.5,6.9-2.7c0.6-1-2.2-0.7-2.7,0.1c-0.9,1.6-2.6,1.6-4.1,0.6c-1.3-1-1.2-2.4-1.7-3.9c-0.8-2.4-3-2.6-5-1.6
				C152.5,69.7,155.1,69.9,156,69.5L156,69.5z"/>
		</g>
	</g>
	<g>
		<g>
			<path d="M167.3,67.5c0.7,2.3,1.4,4.6,2.2,7c0.4,1.4,3.3,0.6,2.9-0.8c-0.7-2.3-1.4-4.6-2.2-7C169.8,65.3,166.9,66.1,167.3,67.5
				L167.3,67.5z"/>
		</g>
	</g>
	<g>
		<g>
			<path d="M159.6,68.7c3-1.3,6.1-2.5,9.1-3.8c1.9-0.8,0.2-1.9-1.2-1.4c-3,1.3-6.1,2.5-9.1,3.8C156.6,68.1,158.2,69.3,159.6,68.7
				L159.6,68.7z"/>
		</g>
	</g>
	<g>
		<g>
			<path d="M174.7,61.4c-0.8,7.8,10.5,8.1,13.2,2.1c0.2-0.4-2.5-0.2-2.9,0.5c-2.4,5.3-7.9,0.9-7.4-3.4
				C177.6,60.3,174.8,60.6,174.7,61.4L174.7,61.4z"/>
		</g>
	</g>
	<g>
		<g>
			<path d="M185.6,57.4c1.3,1.7,2.7,3.3,4,5c0.5,0.6,3-0.6,2.9-0.8c-1.3-1.7-2.7-3.3-4-5C187.9,56,185.4,57.2,185.6,57.4L185.6,57.4
				z"/>
		</g>
	</g>
	<g>
		<g>
			<path d="M178.9,58.4c3-1.4,6-2.7,8.9-4.1c0.5-0.2,0.8-0.5,0.3-0.8c-0.4-0.3-1.6,0.2-2,0.4c-3,1.4-6,2.7-8.9,4.1
				c-0.5,0.2-0.8,0.5-0.3,0.8C177.3,59.1,178.5,58.6,178.9,58.4L178.9,58.4z"/>
		</g>
	</g>
	<g>
		<g>
			<path d="M191.8,54.9c-0.1,3.8,3.4,6.1,6.9,6.1c4.3,0,7.7-3.2,10.5-6.1c1.3-1.3-1.5-1.7-2.4-0.8c-1.7,1.8-3.7,4-6.2,4.6
				c-2.7,0.7-5.9-1.1-5.8-4.1C194.8,53.2,191.9,53.6,191.8,54.9L191.8,54.9z"/>
		</g>
	</g>
	<g>
		<g>
			<path d="M202.8,50.6c1,1.7,2,3.3,3,5c0.7,1.1,3.4,0,2.7-1.3c-1-1.7-2-3.3-3-5C204.8,48.2,202,49.3,202.8,50.6L202.8,50.6z"/>
		</g>
	</g>
	<g>
		<g>
			<path d="M193.1,54c2.5-1.7,5.2-2.8,8.1-3.5c0.3-0.1,1.5-0.4,1.3-0.9c-0.2-0.5-1.3-0.2-1.6-0.1c-3.6,0.9-7,2.3-10,4.3
				c-0.5,0.4-0.3,0.5,0.2,0.7C191.6,54.7,192.6,54.3,193.1,54L193.1,54z"/>
		</g>
	</g>
	<g>
		<g>
			<path d="M208.3,45.2c-0.3,5.2,4.1,9.4,9.2,9.3c0.6,0,1.7-0.2,1.9-0.8c0.2-0.6-0.2-0.9-0.8-0.9c-4.2,0.1-7.6-3.8-7.4-8
				C211.3,43.7,208.3,44.2,208.3,45.2L208.3,45.2z"/>
		</g>
	</g>
	<g>
		<g>
			<path d="M213.5,46.9c1.6,0.1,2.9,1.7,3,3.2c0.1,1.4,3,0.9,2.9-0.3c-0.1-2.7-2.2-4.7-4.9-5c-0.7-0.1-1.6,0.2-1.9,0.9
				C212.3,46.4,212.9,46.8,213.5,46.9L213.5,46.9z"/>
		</g>
	</g>
	<g>
		<g>
			<path d="M207.6,46.6c2.7-1,5.4-1.9,8-2.9c0.4-0.2,1.1-0.6,0.8-1.1c-0.3-0.5-1.5-0.2-1.9,0c-2.7,1-5.4,1.9-8,2.9
				c-0.4,0.2-1.1,0.6-0.8,1.1C206,47.1,207.2,46.7,207.6,46.6L207.6,46.6z"/>
		</g>
	</g>
	<g>
		<g>
			<path d="M216.8,54.2c1.3-0.7,2.7-1.3,4-2c0.4-0.2,0.9-0.6,0.3-0.9c-0.6-0.3-1.5,0.1-2,0.3c-1.3,0.7-2.7,1.3-4,2
				c-0.4,0.2-0.9,0.6-0.3,0.9C215.3,54.8,216.3,54.4,216.8,54.2L216.8,54.2z"/>
		</g>
	</g>
	<g>
		<g>
			<path d="M66.3,88.4c1,2.9,3.6,5.2,6.7,5.4c2.7,0.2,5.4-1.2,6.3-3.9c0.7-2.1,0.1-4.8-2-5.9c-3.3-1.6-6.7,0.9-9,3.1
				c-0.5,0.5-0.2,1,0.3,1.3c0.7,0.3,1.6-0.1,2-0.5c1.2-1.2,3.5-3.4,5.1-1.7c0.9,0.9,1,2.6,0.7,3.8c-0.5,1.7-1.9,2.3-3.5,1.8
				c-1.8-0.6-3.2-2.2-3.8-4C68.8,86.5,65.9,87.3,66.3,88.4L66.3,88.4z"/>
		</g>
	</g>
	<g>
		<g>
			<path d="M90,82.7c3,5,11.8,3.1,12-2.9c0-1-2.8-0.4-2.9,0.4c-0.1,1.5-0.6,3.2-2.1,3.7c-1.6,0.6-3.3-0.7-4.1-2
				C92.4,81,89.6,82,90,82.7L90,82.7z"/>
		</g>
	</g>
	<g>
		<g>
			<path d="M100.8,79.5c-0.1-0.2-0.1-0.2-0.1-0.4c0-0.2,0-0.1,0.1-0.2c-0.1,0.1-0.1,0,0,0c-0.2,0.1-0.3,0.1-0.5,0.2c0,0-0.3,0-0.4,0
				c0,0,0.1,0,0.1,0.1c-0.1-0.1-0.1-0.1,0,0c0.1,0.1,0.2,0.4,0.2,0.6c0,0.2,0,0.1-0.1,0.3c0-0.1,0.1-0.1,0,0c0,0,0.4-0.2,0.2-0.1
				c-0.5,0.2-1.1,0.8-0.7,1.3c0.4,0.6,1.4,0.3,1.9,0.1c0.8-0.3,1.5-1.1,1.6-1.9c0.1-0.8-0.2-1.6-0.9-2c-1-0.6-2.4-0.3-3.4,0.4
				c-0.7,0.6-1.3,1.5-1,2.4c0.2,0.6,1.1,0.6,1.7,0.5C100,80.6,101,80.1,100.8,79.5L100.8,79.5z"/>
		</g>
	</g>
	<g>
		<g>
			<path d="M91.9,80.4c2-1.2,4.2-1.7,6.5-1.7c0.5,0,1.7-0.2,1.9-0.8c0.2-0.6-0.2-0.8-0.8-0.8c-3.3-0.1-6.6,0.8-9.4,2.5
				c-0.5,0.3-0.7,0.7-0.3,1.1C90.3,81.1,91.5,80.7,91.9,80.4L91.9,80.4z"/>
		</g>
	</g>
	<g>
		<g>
			<path d="M104.4,77.2c-0.3,2.4,2,3.7,4.2,3.5c1-0.1,2-0.4,2.9-0.8c1.8-0.8,4.2-3.6,6.3-2.9c0.7,0.2,3.4-0.9,2.3-1.2
				c-1.8-0.6-3.6-0.3-5.4,0.5c-0.8,0.4-1.5,0.8-2.3,1.3c-0.6,0.4-1.3,1.2-2,1.4c-1.6,0.4-3.4-0.4-3.2-2.2
				C107.4,75.8,104.5,76.4,104.4,77.2L104.4,77.2z"/>
		</g>
	</g>
	<g>
		<g>
			<path d="M113.1,71.4c0.3,2,1.2,3.7,2.6,5.1c0.7,0.7,3.5-0.4,2.7-1.1c-1.4-1.3-2.2-2.9-2.4-4.7C115.8,69.7,112.9,70.4,113.1,71.4
				L113.1,71.4z"/>
		</g>
	</g>
	<g>
		<g>
			<path d="M107,75.5c4.2-3.1,8.6-5.9,13.1-8.4c1.2-0.6-1.7-0.3-2.2,0c-4.7,2.6-9.2,5.5-13.5,8.7C103.9,76.2,106.5,75.9,107,75.5
				L107,75.5z"/>
		</g>
	</g>
	<g>
		<g>
			<path d="M124.5,69.6c3.1,3.6,9.7,2.5,12.4-1.2c0.3-0.5-1.1-0.4-1.2-0.3c-0.6,0.1-1.3,0.3-1.7,0.8c-1.8,2.5-5,1.8-6.8-0.3
				C126.8,68,124,69,124.5,69.6L124.5,69.6z"/>
		</g>
	</g>
	<g>
		<g>
			<path d="M131.6,64.4c0.7,1.3,1.3,2.7,2,4c0.5,0.9,3.3,0,2.9-0.8c-0.7-1.3-1.3-2.7-2-4C134.1,62.7,131.2,63.6,131.6,64.4
				L131.6,64.4z"/>
		</g>
	</g>
	<g>
		<g>
			<path d="M124.5,66c3.3,0.5,6.6,0.2,9.8-0.9c1.7-0.6,1.3-2.5-0.5-1.9c-2.7,0.9-5.4,1.2-8.3,0.7C124.1,63.7,122.6,65.7,124.5,66
				L124.5,66z"/>
		</g>
	</g>
	<g>
		<g>
			<path d="M143,63.2c2.7,4.4,10.2,3.8,12.9-0.5c0.6-1-2.2-0.7-2.7,0c-1.7,2.8-5.6,2.3-7.3-0.4C145.3,61.5,142.6,62.6,143,63.2
				L143,63.2z"/>
		</g>
	</g>
	<g>
		<g>
			<path d="M150.4,57.4c0.3,3.7,3.2,6.6,6.8,7.4c0.7,0.1,1.6,0,2-0.5c0.4-0.4,0.3-1.1-0.3-1.2c-3.1-0.6-5.3-3.2-5.6-6.4
				C153.2,55.5,150.3,56.1,150.4,57.4L150.4,57.4z"/>
		</g>
	</g>
	<g>
		<g>
			<path d="M140.2,61.7c4.7-1.5,9.4-3,14.1-4.5c1.7-0.5,1.4-2-0.4-1.4c-4.7,1.5-9.4,3-14.1,4.5C138.1,60.8,138.4,62.2,140.2,61.7
				L140.2,61.7z"/>
		</g>
	</g>
	<g>
		<g>
			<path d="M160.9,57.6c-0.1,0-0.2,0-0.3,0.1c0.5,0,0.9,0.1,1.4,0.1c0.1,0.2-0.1,0.3-0.3,0.3c-0.4,0.1-0.5,0.3-0.2,0.5
				c0.1,0.3,0.7,0.7,0.9,1c0.5,0.4,1.1,0.8,1.7,1c1.3,0.5,2.8,0.5,4.1,0.1c2.8-0.7,5.3-2.7,5.5-5.7c0.1-1.4-2.8-0.9-2.9,0.3
				c-0.1,2.1-1.8,3.8-4,3.7c-2.1-0.1-2.7-2.6-4.8-2.8c-3-0.4-4.1,4-0.6,3.3C163.2,59,162.7,57.3,160.9,57.6L160.9,57.6z"/>
		</g>
	</g>
	<g>
		<g>
			<path d="M169.6,51.6c1.3,1.7,1.9,3.7,2,5.8c0,0.7,2.9,0.2,2.9-0.8c-0.1-2.3-0.8-4.3-2.2-6.1C171.8,49.8,169,50.8,169.6,51.6
				L169.6,51.6z"/>
		</g>
	</g>
	<g>
		<g>
			<path d="M160.7,56.9c2.9-1.1,5.9-2.3,8.8-3.4c0.6-0.2,1-1,0.7-1.6c-0.4-0.7-1.4-0.5-2-0.3c-2.9,1.1-5.9,2.3-8.8,3.4
				c-0.6,0.2-1,1-0.7,1.6C159.1,57.3,160.1,57.2,160.7,56.9L160.7,56.9z"/>
		</g>
	</g>
	<g>
		<g>
			<path d="M176.6,50.4c1.1,4.5,8.7,3.7,10.5,0.2c0.2-0.5-2.5-0.3-2.9,0.5c-1.2,2.4-4.2,0.5-4.7-1.5
				C179.3,48.9,176.4,49.7,176.6,50.4L176.6,50.4z"/>
		</g>
	</g>
	<g>
		<g>
			<path d="M183.6,44.4c0.7,1.7,1.3,3.3,2,5c0.4,0.9,3.2,0,2.9-0.8c-0.7-1.7-1.3-3.3-2-5C186.1,42.7,183.2,43.6,183.6,44.4
				L183.6,44.4z"/>
		</g>
	</g>
	<g>
		<g>
			<path d="M181.2,45.7c0.9-1.9,2.6-3.5,4.6-3.8c0.5-0.1,1.6-0.3,1.6-1c0.1-0.6-0.8-0.7-1.3-0.6c-3.5,0.6-6.4,2.6-7.9,5.8
				c-0.3,0.6,1,0.7,1.3,0.6C180.2,46.6,180.9,46.3,181.2,45.7L181.2,45.7z"/>
		</g>
	</g>
	<g>
		<g>
			<path d="M179.1,47.7c1.4-1.3,2.8-2.5,4.2-3.8c0.5-0.5-0.4-0.6-0.7-0.6c-0.7,0-1.4,0.3-1.9,0.7c-1.4,1.3-2.8,2.5-4.2,3.8
				c-0.5,0.5,0.4,0.6,0.7,0.6C177.9,48.4,178.6,48.1,179.1,47.7L179.1,47.7z"/>
		</g>
	</g>
	<g>
		<g>
			<path d="M191.3,41.9c1.4,2.6,2.3,5.3,2.5,8.3c0.1,1.3,2.2,0.6,2.7,0.1c1.3-1.5,3-2.5,4.9-3.1c1.8-0.6,1.2-2.7-0.6-2.1
				c-2.6,0.8-4.9,2.2-6.7,4.3c0.9,0,1.8,0.1,2.7,0.1c-0.3-3.1-1.2-6.1-2.7-8.8C193.2,39.4,190.5,40.5,191.3,41.9L191.3,41.9z"/>
		</g>
	</g>
	<g>
		<g>
			<path d="M202.4,41.6c0-0.2,0-0.4-0.1-0.7c-1,0.3-1.9,0.5-2.9,0.8c0.1,0.4,0.2,0.7,0.1,1.1c-0.1,0.3-0.2,0.4-0.5,0.6
				c-0.5,0.3-0.7,1.1-0.2,1.5c0.6,0.4,1.5,0.2,2.1-0.2c1.2-0.7,2-2.4,1.4-3.7c-0.5-1.3-3-0.6-2.9,0.8c0,0.2,0,0.4,0.1,0.7
				c0.1,0.7,1.2,0.7,1.7,0.6C201.9,42.8,202.5,42.3,202.4,41.6L202.4,41.6z"/>
		</g>
	</g>
	<g>
		<g>
			<path d="M191.2,41.7c3-0.8,5.9-1.7,8.9-2.5c0.2-0.1,1.5-0.4,1.3-0.9c-0.2-0.4-1.3-0.2-1.6-0.1c-3,0.8-5.9,1.7-8.9,2.5
				c-0.2,0.1-1.5,0.4-1.3,0.9C189.8,42.1,190.9,41.8,191.2,41.7L191.2,41.7z"/>
		</g>
	</g>
	<g>
		<g>
			<path d="M128.7,57.4c0,0,0,0.1,0,0.1c0.3,0.7,3.1-0.1,2.9-0.8c-0.1-0.2,6.6-2.2,7.2-2.4c-0.5-0.2-0.9-0.4-1.4-0.6
				c-1.6,0.8-3.1,1.6-4.7,2.4c0.7,0,1.4,0.1,2.2,0.1c-0.6,0.3-1.2,0.6-1.8,0.8c0.5,0.1,1,0.3,1.5,0.4c1.1-1.4,2.6-2.3,4.3-2.7
				c-0.5-0.1-1-0.3-1.5-0.4c-1.6,0.9-3.3,1.8-4.9,2.7c0.4,0.2,0.8,0.4,1.3,0.6c1.9-1,1.5-1.6-1.3-1.8c0.3,0.2,0.6,0.4,0.9,0.7
				c1.5-0.4,3.1-0.9,4.6-1.3c0.3,0,2.8-1,1.8-1.2c-3.2-0.7-5.9-0.4-8.9,0.8c0.6,0.1,1.2,0.2,1.8,0.3c5.2-1.3,5.4-0.9,0.6,1.1
				c0.4,0.2,0.7,0.3,1.1,0.5c1.3-1.4,2.5-2.8,3.8-4.3c0.2-0.2,0.1-0.4-0.1-0.5c-4.1-1.5-8.1-2-12.3-3c-1.3,0.4-2,0.1-2.1-1
				c0.7-0.9,1.4-1.9,2.1-2.8c1.4-1.9,2.8-3.7,4.2-5.6c0.6-0.8-1.2-0.5-1.5-0.4c-5.7,1.6-18.5,2.5-21.6-4.5
				c-3.3-7.4,7.5-10.4,12.3-12.9c-0.7,0-1.4-0.1-2.2-0.1c-4.6,3.9-9.7,6.9-15.4,8.7C96.6,32,88.1,34,83,32
				c-6.5-2.5,0.8-9.4,3.5-11.9c4.8-4.3,10.4-7.2,16.6-8.7c1.7-0.4,1.4-1.4-0.3-1c-6.8,1.7-13.1,4.8-18.4,9.4
				c-3,2.6-11.6,11.1-3.8,13.4c6,1.8,13.9,0.4,19.9-1.3c7.1-2,13.5-5.5,19.1-10.3c0.8-0.7-1.9-0.3-2.2-0.1
				c-4.8,2.5-19.1,7.2-12.7,15.4c5,6.5,17.1,5.3,24,3.4c-0.5-0.1-1-0.3-1.5-0.4c-2.5,3.2-4.9,6.5-7.4,9.7c-0.3,0.3,0,0.5,0.4,0.5
				c3.5,0.1,6.9,0.5,10.3,1.4c0.6,0.2,3,0.5,3.4,1c1.1,1.7-1.3,3.3-2.2,4.4c-0.5,0.6,0.8,0.5,1.1,0.5c3.1-0.6,5.5-1.7,7.6-4.2
				c0.2-0.2,0.2-0.4-0.1-0.5c-3.8-1-7.3,0-10.1,2.6c-0.8,0.7,1.6,0.4,1.8,0.3c1.8-0.1,3.7-0.3,5.5-0.4c0.6-0.4,1.2-0.8,1.8-1.2
				c-3,0.1-5.5,0.9-8.1,2.4c-1,0.6,0.4,0.7,0.9,0.7c2.2-0.4,4-0.9,6-1.9c0.8-0.4,0.7-0.9-0.2-0.9c-2.6,0.2-4.6,1-6.6,2.7
				c-0.4,0.3,0.1,0.5,0.4,0.5c3.3,0.3,6.1-0.5,8.8-2.4c0.7-0.5,0.1-0.7-0.5-0.7c-2.6,0.2-4.8,0.8-7.2,2.1c-0.2,0.1-1,0.7-0.3,0.8
				c4.1,1,7.8,0,11.1-2.6c0.4-0.3-0.1-0.5-0.4-0.5c-4.3-0.3-8.1,0.8-11.5,3.4c-1,0.8,0.8,0.7,1.3,0.6c2.8-0.8,5.1-2,7.3-3.9
				c0.7-0.6-1.3-0.5-1.5-0.4c-2.6,0.7-4.8,1.9-6.7,3.8c-0.7,0.7,1.2,0.5,1.5,0.4c2.3-0.5,4-1.4,5.8-3c0.2-0.2,0.2-0.4-0.1-0.5
				c-2.6-0.5-4.8,0.1-6.8,1.9c-0.8,0.7,1.9,0.3,2.2,0.1c1.6-0.8,3.1-1.6,4.7-2.4c1.7-0.8-0.7-0.8-1.4-0.6c-1.4,0.4-9.7,1.8-9,4
				c1-0.3,1.9-0.5,2.9-0.8c0,0,0-0.1,0-0.1C131.3,55.9,128.4,56.8,128.7,57.4L128.7,57.4z"/>
		</g>
	</g>
	<g>
		<g>
			<path d="M217.2,27.9c12.6,18.5,24.1,37.6,34.6,57.4c0.5,1,3.3,0.1,2.9-0.8c-10.6-19.9-22.2-39.1-34.8-57.7
				C219.3,25.9,216.5,26.9,217.2,27.9L217.2,27.9z"/>
		</g>
	</g>
	<g>
		<g>
			<path d="M250.5,82.1c0,2.3,0,4.7,0,7c0,1.4,2.9,0.8,2.9-0.3c0-2.3,0-4.7,0-7C253.5,80.5,250.5,81,250.5,82.1L250.5,82.1z"/>
		</g>
	</g>
	<g>
		<g>
			<path d="M213.5,27.2c0,1,0,2,0,3c0,0.7,0.7,0.8,1.3,0.7c0.4,0,1.6-0.4,1.6-1c0-1,0-2,0-3c0-0.7-0.7-0.8-1.3-0.7
				C214.7,26.2,213.5,26.5,213.5,27.2L213.5,27.2z"/>
		</g>
	</g>
	<g>
		<g>
			<path d="M60.3,86.3c4-2.7,7.7-5.9,11-9.4c0.7-0.7-2.1-0.4-2.6,0.1c-3.2,3.4-6.7,6.5-10.6,9.1C56.8,87,59.7,86.7,60.3,86.3
				L60.3,86.3z"/>
		</g>
	</g>
	<g>
		<g>
			<path d="M70.5,78.5c16.9-10.6,35.4-18.1,54.8-22.3c1.8-0.4,1.3-2.4-0.5-2c-20,4.4-38.9,12.2-56.2,23
				C66.9,78.1,69.2,79.2,70.5,78.5L70.5,78.5z"/>
		</g>
	</g>
	<g>
		<g>
			<path d="M123.7,55c14.8-5.4,29.5-10.7,44.4-15.9c14.5-5.1,29-10.8,43.9-14.2c1.7-0.4,1.4-1.5-0.3-1.1
				c-14.6,3.3-28.8,8.9-42.9,13.8C153.4,43,138,48.5,122.7,54.1C120.8,54.8,122.6,55.4,123.7,55L123.7,55z"/>
		</g>
	</g>
	<g>
		<g>
			<path d="M211.6,25.4c0,0.7,0,1.3,0,2c0,0.2,0.4,0.3,0.6,0.4c0.3,0.1,0.7,0,1.1-0.1c0.5-0.1,1.3-0.4,1.3-1.1c0-0.7,0-1.3,0-2
				c0-0.2-0.4-0.3-0.6-0.4c-0.3-0.1-0.7,0-1.1,0.1C212.3,24.5,211.6,24.8,211.6,25.4L211.6,25.4z"/>
		</g>
	</g>
	<g>
		<g>
			<path d="M215.7,24c-1,1.6-1.4,3.3-1.1,5.1c0.1,1,2.9,0.2,2.9-0.8c0-1.6,0-3.3,0-4.9c0-0.8-2.9-0.3-2.9,0.8c0,1.7,0,3.4,0,5.1
				c0,0.8,2.9,0.3,2.9-0.8c0-1.7,0-3.4,0-5.1c-1,0.3-1.9,0.5-2.9,0.8c0,1.6,0,3.3,0,4.9c1-0.3,1.9-0.5,2.9-0.8
				c-0.2-1.5,0.1-3,0.9-4.3C219,22.9,216.1,23.2,215.7,24L215.7,24z"/>
		</g>
	</g>
	<g>
		<g>
			<path d="M216,25.3c0.1,1.5-0.2,2.8-0.9,4.2c1-0.1,1.9-0.3,2.9-0.4c0.2-0.8,0.5-1.6,0.7-2.4c-1,0.1-1.9,0.3-2.9,0.4
				c-0.1,1.4-0.2,2.8-0.3,4.2c-0.1,1,2.8,0.4,2.9-0.4c0.1-1.4,0.2-2.8,0.3-4.2c0.1-1.1-2.6-0.4-2.9,0.4c-0.2,0.8-0.5,1.6-0.7,2.4
				c-0.3,1,2.5,0.2,2.9-0.4c0.8-1.4,1-2.9,0.9-4.5C218.8,23.7,215.9,24.3,216,25.3L216,25.3z"/>
		</g>
	</g>
</g>
</svg>
