<?xml version="1.0" encoding="utf-8"?>
<!-- Generator: Adobe Illustrator 22.1.0, SVG Export Plug-In . SVG Version: 6.00 Build 0)  -->
<svg version="1.1"
	 xmlns="http://www.w3.org/2000/svg" xmlns:xlink="http://www.w3.org/1999/xlink" x="0px" y="0px" viewBox="0 0 841.9 595.3"
	 style="enable-background:new 0 0 841.9 595.3;" xml:space="preserve">
<style type="text/css">
	.st0{fill:#000DF6;}
	.st1{fill:#FFFFFF;}
</style>
<metadata>
	<sfw>
		<slices></slices>
		<sliceSourceBounds  bottomLeftOrigin="true" height="219.4" width="304.5" x="300.8" y="-365.8"></sliceSourceBounds>
	</sfw>
</metadata>
<g id="Слой_2">
	<g>
		<g>
			<path class="st0" d="M348.2,169.4c0.3-2.9,0.6-5.9,0.9-8.8c-8.7,1.7-17.4,3.3-26.1,5c3.1,26.9,4.1,53.9,3.2,80.9
				c-0.2,5.9,6.8,6.8,11.4,6.3c5.7-0.6,12.6-3.4,14.7-9.3c8.4-23.7,8.9-49.5,4.2-74c-1-5.1-9.7-4.6-13.2-3.9
				c-4.5,0.9-12,3.6-12.9,8.9c-6.4,36.9-6.5,74.7-0.3,111.6c0.9,5.1,9.8,4.6,13.2,3.9c4.1-0.8,12.6-3.6,12.9-8.9
				c1.4-19.9,2.7-40.2-2.7-59.6c-1.4-5.1-9.4-4.7-13.2-3.9c-4.6,0.9-11.9,3.5-12.9,8.9c-3.7,19.1-4.5,38.4-2.9,57.7
				c0.4,5.1,10.2,4.5,13.2,3.9c4.8-0.9,11.6-3.5,12.9-8.9c2.2-8.7,2.3-17.8,0.6-26.6c-1-5.1-9.7-4.6-13.2-3.9
				c-4.7,0.9-11.7,3.5-12.9,8.9c-2.6,11.3-2,23.1,2,34c3.3,9,21.8,3.4,25.3-2.9c1.3-2.4,2.5-4.7,3.8-7.1c2.9-5.3-2.4-8.3-7.3-8.5
				c-8.2-0.3-23.1,3.9-23.4,14.4c-0.1,4.8,4.1,6,8.1,6.4c14.9,1.6,29.8,3.2,44.7,4.8c5.4,0.6,13-2,16.3-6.3c3.1-4,1.4-7.7-3.5-9
				c-3.8-1-7.7-2.1-11.5-3.1c-4.3,5.1-8.5,10.3-12.8,15.4c14.8,1,29.5,0.9,44.3-0.1c4.8-0.3,12.5-3.2,14.3-8.2
				c1.8-5.1-3.4-7.1-7.7-7.4c-3.9-0.3-7.8-0.6-11.7-1c-3.3,5.3-6.6,10.5-9.9,15.8c13.4,0.1,26.8,0.2,40.3,0.4
				c5.8,0.1,16.5-2.4,18-9.4c0-0.2,0.1-0.4,0.1-0.5c0.3-1.4-0.1-2.7-1-3.8c-7.1-5.6-21.8-3.1-26.5,4.9c-5.3,8.9,8.7,11,14.2,11.1
				c17,0.3,34.1-1.1,50.8-4.2c4.9-0.9,12.4-2.8,14.3-8.2c1.7-4.8-3.3-7.6-7.7-7.4c-3.8,0.1-7.6,0.2-11.4,0.3
				c-5.7,0.2-12.6,1.5-16.3,6.3c-2.8,3.7-1.7,8.3,3.5,9c9.4,1.4,18.8,2.8,28.2,4.3c4.3-5.1,8.5-10.3,12.8-15.4c-5.9,0-11.8,0-17.7,0
				c-3.3,5.3-6.6,10.5-9.9,15.8c6.7-0.2,13.4-0.3,20.2-0.4c3.2,0,6.4,0,9.6,0c1.6,0,3.2,0,4.8,0c0.6,0,1.3,0,1.9,0
				c3,0.2,2.6-0.1-1.2-0.8c-0.3-1.3-0.7-2.5-1-3.8c0,0.2,0,0.4,0,0.7c0.8-1.3,1.7-2.7,2.5-4c-0.1,0.2-0.3,0.3-0.4,0.5
				c1.8-1.1,3.5-2.2,5.3-3.4c-0.2,0.1-0.4,0.2-0.7,0.3c2.3-0.6,4.6-1.2,6.9-1.9c-0.2,0-0.4,0-0.7,0c2.9,0.4,5.8,0.8,8.7,1.2
				c-0.2-0.1-0.3-0.2-0.5-0.2c0.9,1,1.8,2.1,2.7,3.1c0-0.2,0-0.4-0.1-0.6c-6,3.8-12,7.6-18,11.4c10.1,0.5,19.7-1.3,29.2-4.9
				c2.5-0.9,9.7-5.5,7.7-9.4c-0.8-1.6-1.7-3.2-2.5-4.9c-8.4,2.9-16.7,5.8-25.1,8.7c8.3,6.6,17.6,8.8,27.8,4.3
				c6.8-3,14.1-10.1,9.1-17.7c-2.5-3.8-10.5-2.8-14-1.8c-3.9,1-10.6,3.9-11.2,8.6c-0.9,6.6,3.7,11.6,10.2,12.6c7.5,1.1,18-1,21-9
				c2.2-5.9,2.7-11.7,2.1-18c-8.7,2.3-17.4,4.7-26.1,7c1.5,5.4,4.1,10.4,7.6,14.8c4.9,6.2,21.2,1.8,24.3-4.7c2.2-4.6,3-9.1,1.1-14
				c-3.6-9.2-24.5-3.5-26.1,5c-1.3,6.9,0.2,13,3.9,18.9c2.4,3.8,10.6,2.7,14,1.8c3.9-1.1,10.5-3.9,11.2-8.6
				c3.5-24.3,4.4-48.8,3-73.3c-0.3-5.1-10.3-4.5-13.2-3.9c-4.4,0.9-12.1,3.6-12.9,8.9c-1.5,9.8-1.2,19.7,0.9,29.4
				c2.1,9.4,25.5,3.3,26.1-5c1.8-22.8,1.3-45.7-1.4-68.4c-0.7-5.7-11.4-4.5-14.9-3.6c-5.1,1.4-11.3,4.6-11.1,10.6
				c0.4,10.8,0.8,21.6,1.1,32.5c0.2,5.1,10.4,4.5,13.2,3.9c5.1-1,11.3-3.5,12.9-8.9c4.3-13.8,4.7-28.4,1.5-42.5
				c-2.2-9.2-25.9-3.4-26.1,5c-0.1,4.5-0.2,8.9-0.3,13.4c-0.3,11.7,21.7,5.4,25.3-0.9c4.5-8,3.2-17.9-4.7-23.2
				c-9.7-6.5-23.4-3.7-32.7,2c-2.5,1.5-5.7,4.6-4.8,7.9c0.9,3.5,5.2,4.1,8.1,4.4c9.5,1.1,20-3.2,25.5-11.1c2.5-3.6-0.6-7.4-4.3-8.1
				c-23.2-3.7-46.4-1-68.2,7.8c-3.2,1.3-8,4.5-7.8,8.4c0.3,4.1,4.7,5,8.1,5.4c7.4,0.9,14.9,0.1,22.1-1.7c3.9-1,9.3-3.5,10.7-7.6
				c1.3-3.7-1.2-6.1-4.8-7c-22.6-5.8-46-5.6-68.8-0.4c-3.9,0.9-10.3,4-11.2,8.6c-0.8,4.4,4.6,6.4,8.1,6.4
				c12.3-0.1,23.9-2.3,35.4-6.6c3.2-1.2,8-4.6,7.8-8.4c-0.3-3.8-4.7-5.4-8.1-5.4c-14,0.1-27.8,1.9-41.3,5.8
				c-4.1,1.2-12.7,4.9-11.1,10.6c1.5,5.8,11,4.5,14.9,3.6c6-1.3,12-2.6,18-3.9c3.9-0.9,10.3-4,11.2-8.6c0.8-4.6-4.7-6.2-8.1-6.4
				c-20.5-1.3-41.1-0.4-61.4,2.6c-4.8,0.7-11.1,2.7-13.9,7.2c-2.2,3.7,0.4,7.2,4.3,8.1c10.8,2.2,22.2,0.1,31.3-6.2
				c5.3-3.6,7.2-9.7-0.3-11.9c-13.1-3.7-27-4.4-40.4-2.2c-4.8,0.8-11.1,2.6-13.9,7.2c-2.4,4,0.6,6.9,4.3,8.1
				c7.7,2.4,15.4,1.9,23.2,0.2c3.8-0.8,9.4-3.6,10.7-7.6c1.2-3.5-1.1-6.3-4.8-7c-15.5-3-30.9-2.5-46.2,1
				c-4.2,0.9-12.6,5.1-11.1,10.6c1.6,5.8,11,4.4,14.9,3.6c3.2-0.7,6.5-0.3,9.6,0c5.1,0.6,11.8-1.7,15.5-5.3c2.8-2.7,3.8-7-0.3-9.1
				c-17-8.8-38-8.1-55.1,0.1c-3.1,1.5-8,4.3-7.8,8.4c0.3,3.8,4.7,5.5,8.1,5.4c3.9-0.1,7.8-0.2,11.7-0.3c5.7-0.1,12.6-1.5,16.3-6.3
				c3.1-4,1.4-7.8-3.5-9c-12.6-3.2-26.8-1.4-36.9,7.2c-6.9,5.9-10.8,16.8-3.4,23.9c8.5,8.2,24.5,5.9,32.6-1.8
				c6.2-5.8,6.9-16-1.2-20.3c-6.5-3.4-21.5-0.2-23.4,8.1c-3.4,15.6-2.7,31.9,2.3,47.1c2.8,8.6,19.3,3.6,23.6-0.9
				c11.3-11.9,15.7-29.8,7.8-44.8c-4.5-8.6-24.2-4-26.1,5c-3.5,16.2-4.3,32.9-2.4,49.4c0.8,6.4,1.3,14.2,6,19.2
				c6.3,6.6,18,4.8,25.2,0.8c6.8-3.8,9.8-9.7,10.9-17.2c1.2-8,1.7-16,1.8-24.1c0-11.8-1.1-27-15.5-29.4c-6.1-1-16.8,0.5-20.1,6.9
				c-12.8,24.9-15.1,54.2-5.1,80.5c3.3,8.8,22.1,3.8,25.3-2.9c4-8.3,6.9-17,8.2-26.2c0.9-6.9,2.5-17.4-4.8-21.6
				c-9.5-5.5-24.5,0.4-29.2,9.8c-3.6,7.2-4.3,15.8-3.3,23.7c0.9,7.5,4,15.7,9,21.5c7.3,8.5,22.1,5.4,29.5-1.6
				c5.7-5.4,7.2-15.3,6.3-22.7c-1.1-8.9-9.3-13.6-17.6-13.9c-12-0.4-22.7,6.7-25.1,18.6c-2,10,0.2,19.6,5.2,28.4
				c3.3,5.8,16.7,1.7,20.3-0.9c11.1-7.8,21.4-24.8,7.7-35.5c-14.4-11.2-37.1-1.9-41.8,14.8c-1.9,6.6-1.7,14.5,3.5,19.6
				c5.4,5.4,13.9,6.8,21.2,5.9c13.9-1.8,30.5-15.1,20.6-30c-9.4-14.1-34.9-6.3-42.2,6.2c-3.4,5.8-2.5,13,2.5,17.6
				c5.8,5.3,14.3,6.7,21.9,5.9c16.9-1.8,31.3-15.3,36.3-31.3c6.4-20.6-26-20.7-34.3-7.9c-2,3-1.5,6-1,9.4c0.7,4.9,1.4,9.8,2,14.7
				c0.4,3.2,0.9,6.3,3,8.8c3,3.5,8,4.3,12.3,4.1c9.4-0.4,19.2-5.7,23.4-14.4c3.4-7.1,5.3-16.4,1.9-23.8
				c-7.7-16.4-34.2-13.8-43.4-0.1c-7.1,10.6-6.6,29.9,5.2,36.7c13.2,7.7,33.6,1.3,43.2-9.5c5.2-5.9,9-14.7,6.3-22.5
				c-2.6-7.8-10-12.3-17.9-12.8c-16.3-1-36.2,12.7-38.9,29.5c-1,6.3,1,12.8,6.1,16.9c7.8,6.3,19.7,4.9,28.2,1
				c24.2-10.9,49.6-57.1,19.5-75.5c-14.3-8.8-36.3-4.2-46.3,9c-4.3,5.7-5.9,13-7,19.9c-1.3,7.8-1.6,16.2,2.4,23.2
				c8.8,15.3,32.7,13.7,43.6,1.7c5.3-5.8,6.8-13.9,7.6-21.4c1-8.6,0.9-17.5-0.4-26c-1-6.9-2.2-16.5-7.7-21.5
				c-7.9-7.1-24.2-3.3-29.5,5.4c-3.9,6.4-3.8,15.9-3.6,23.2c0.2,7.7,1.2,16.1,4.7,23c4,7.9,11.6,11.2,20.3,10.3
				c8.5-0.9,18.4-5.3,20.6-14.3c3.4-14.2,1-30.9-4.8-44.2c-2.9-6.6-6.7-14.9-12.8-19c-8.4-5.8-21.6-3-28.8,3.7
				c-11.1,10.3-9.5,31.1-6.6,44.5c1.5,7.2,3.8,15.8,10.4,20c8.6,5.4,21.3,2.2,28.4-4.4c11.7-10.8,9.7-28.8,5.7-42.6
				c-1.9-6.6-3.7-14.5-10.4-17.8c-8.9-4.4-22-0.7-29,5.7c-10.7,9.9-9.8,32,3,39.8c8,4.9,18.6,3.8,26.7,0c8.1-3.8,12.4-11,14.7-19.3
				c4.2-15.1-1.6-31.6-17.7-36c-14.9-4-35.7,4.1-38.3,20.7c-2.4,15.2,11.3,23.2,24.9,22.7c15-0.6,32.5-10.2,31.5-27.1
				c-1-16.8-18.7-24.2-33.4-20c-8.3,2.4-16.7,9-14.8,18.6c1.4,6.9,7.5,12.4,13.4,15.7c14.2,7.8,36.3,5.1,45.8-8.8
				c6.1-8.9,4.7-23.1-6.2-27.4c-5-2-10.7-1.5-15.6,0.7c-3.7,1.6-8.5,4.8-7.7,9.4c1.1,7,2.8,14.3,7.6,19.8c5.3,6.2,14,8.5,21.9,7.9
				c8.1-0.7,18-4.1,22.2-11.6c2.9-5.1,2.1-11.6-1.6-16c-6-7.1-19-5.7-25.9-1.2c-6.7,4.3-9.5,15.7-11.3,23.1
				c-1.9,7.8-2.6,15.8-2.3,23.8c0.2,6,0.6,13.2,5,18c6.4,6.9,17.9,5.6,25.6,2.1c7.6-3.5,12.7-9.7,15.3-17.5c2.5-7.6,3-16.1,2.2-24
				c-0.7-7-2-16.5-9.1-19.9c-8.9-4.3-21.1,0-27.9,6.3c-5.6,5.3-8.7,13.1-10.7,20.4c-2.1,7.5-2.7,15.2-2.3,22.9
				c0.4,6.7,1.3,15.9,7,20.3c8.4,6.6,21.8,2.7,29.5-3.1c7.2-5.5,10.4-13,13.2-21.4c5.8-17.4,7.1-36,4.7-54.2
				c-0.6-4.4-8.4-4.6-11.4-4.3c-4.4,0.5-11.8,2.7-13.9,7.2c-8.4,18.9-9.8,40-2.3,59.5c3.2,8.4,19.1,3.8,23.6-0.9
				c15.5-16.3,21.4-40.6,12.5-61.7c-3.7-8.6-21.9-3.9-25.3,2.9c-5.4,11.2-7.1,23.2-4.2,35.4c2.4,9.7,28.5,3,26.1-7
				c-2.2-9.1-1.6-18.7,2.5-27.3c-8.4,1-16.8,2-25.3,2.9c6.9,16.2,4.9,36.5-7.5,49.6c7.9-0.3,15.7-0.6,23.6-0.9
				c-6.3-16.5-6.6-35.1,0.7-51.4c-8.4,1-16.8,2-25.3,2.9c1.5,11.8,1.2,23.7-1,35.5c-1.1,5.6-2.5,11.1-4.4,16.4
				c-0.8,2.4-1.6,4.8-3,6.9c-0.4,0.7-1,1.3-1.4,2c-0.3,0.3-0.7,0.6-1,1c1-0.7,2-1.3,3.1-1.7c2.3-0.3,4.6-0.5,6.8-0.8
				c1.2,0,1.5,1.1,1.7,0.3c0.1-0.2-0.8-1.8-0.9-2.1c-0.8-2.3-1.2-4.8-1.6-7.2c-0.7-4.7-0.9-9.3-0.4-14c0.5-4.5,1.4-8.9,2.8-13.2
				c0.7-2.2,1.6-4.4,2.7-6.5c0.5-0.9,1.1-1.7,1.5-2.6c1-1.9,4.1-0.6-3.3,1.3c-2.3,0.3-4.6,0.5-6.8,0.8c-2.4-1.4-3.1-1.5-2.1-0.1
				c0.4,1,0.7,2,1,3.1c0.6,2.3,1.1,4.6,1.5,7c0.6,4.1,0.7,8.1,0.2,12.2c-0.4,4-1.1,8.6-2.9,12.2c-0.4,0.8-1.3,1.7-1.6,2.5
				c10,2,13.9,1.2,11.8-2.3c-0.4-0.4-0.7-0.8-1-1.3c-5.1-15.2-1.1-34.1,5.8-48.1c-4.6,2.4-9.2,4.8-13.9,7.2
				c-2.1,0.6-3.8,0.3-5.1-0.8c0.1,0.6,0.4,0.8,0.7,0.7c0.2,1,0.6,2.2,0.9,3.1c-0.4,0.9-0.4,1.2-0.1,1c0.2-0.1,0.3-0.2,0.5-0.4
				c2.7-2.1,5.5-2.9,8.6-2.4c-0.6,0-1.1-0.1-1.5-0.4c-2.2-2.3-4.3-3.5-5.7-6.6c-1.7-3.8-2.4-8.1-3-12.2c-7.8,3.4-15.6,6.7-23.3,10.1
				c2.7,1.1,4.2,3.4,4.3,7.1c0,1.3-0.4,3.2-0.8,4.2c-0.2,0.4-0.8,1.2-1,1.8c0.4-0.5,0.4-0.5-0.1,0c-1.1,1-0.4,0.6,1.9-1.1
				c1.7-0.6,3,0.1,0.9-0.6c-2.1-0.8-4.1-1.6-6-3c-1.6-1.2-3.4-3-4.4-4.7c-0.6-1.1-0.6-2.9-1.3-3.9c-0.7-1.1,2.2-1.2-1.1,0.5
				c-2.1,0.9-4.2,1.8-6.3,2.7c-4,1.2-3.2-0.4-0.5,2.5c1.8,1.9,2.8,4,3.5,6.5c0.5,2.2,0.7,4.6-0.1,6.8c-0.3,0.7-1,1.8-1.2,2.2
				c0.1-0.2,0.5-0.2,0.5-0.4c-0.4,1.1-1.6,0.5,0.3,0c0.5-0.1,1.2-0.2,1.7-0.4c1.3-0.5,0.3,0.5,0.3,0c0,0-0.6,0-1.1-0.3
				c-1.4-0.8-2.8-2.4-3.5-4.2c-0.7-2-0.8-3.9-0.4-6c0.2-1,0.5-2,0.9-2.8c0.2-0.4,0.9-1.1,0.9-1.4c0.2-1.1,0.6-0.1-0.1,0.1
				c-0.2,0-6.5,2.8-6.6,1.7c0-0.4,2,0.7,2.4,0.9c2.2,1.2,4.1,3.3,5.3,5.5c3.5,6.4,2.4,15.6-0.6,22c-0.3,0.7-1.7,2.2-1.7,2.9
				c0-1.2,8-2.7,8.4-3.2c0.4,0,0.8,0,1.2,0c0,0,0,0-0.1,0c-0.2,0.5-2.9-2.7-2.8-2.6c-1-1.4-1.5-2.9-2-4.6c-0.8-2.9-1.1-6-0.8-9
				c0.1-1.4,1.2-3.7,1.1-5c0,0,0.3-0.5,0.3-0.6c0.4,2.3-11.8-0.5-11.3,2.5c0.2,1.3,1.6,3.6,2.1,5c0.6,1.8,1.2,3.5,1.7,5.3
				c1.1,3.8,2.1,7.7,2.7,11.7c0.5,3.4,0.7,6.8,0.2,10.3c-0.3,1.9-0.7,4-1.4,5.8c-0.2,0.5-0.5,0.9-0.7,1.4c-2,3.7-2.1,0.4,3.8-0.8
				c2.3-0.3,4.6-0.5,6.8-0.8c3,0.1,1.3-0.1,0-2.3c-0.9-1.6-1.4-3.6-2-5.4c-1.5-4.9-2.4-9.9-2.9-15c-0.4-4.7-0.3-9.5,0.3-14.2
				c0.3-2.1,0.5-4.3,1.2-6.3c0.2-0.5,0.4-1.1,0.6-1.6c1-3.6,5.5-0.5-4.7,1.8c-2.3,0.3-4.6,0.5-6.8,0.8c-1.2,0-1.4-1-1.2,0.1
				c0.1,0.6,1.4,1.7,1.8,2.2c1.4,1.9,2.7,3.9,3.8,6c2,3.7,3.7,7.7,5,11.8c2.8,8.7,4,17.8,3.1,26.9c-0.2,2-1.1,4.5-0.9,6.4
				c-0.7,2.6,1.1,2.1,5.4-1.7c2-2.2,4.2-3,6.6-2.4c1.1-1.2,1.1,1.2,0.2-0.7c-1.9-3.8-3.4-7.2-4.3-11.6c-1-4.6-1.5-9.4-1.3-14.1
				c0.1-2.7,0.4-5.4,0.8-8.1c0.2-1.2,0.4-2.4,0.7-3.5c0.1-0.5,0.2-1,0.4-1.5c0.3-1,0.2-0.8-0.2,0.4c-2.9,1.5-5.8,3-8.7,4.5
				c0.4-0.1,0.8-0.3,1.2-0.4c-2.3,0.3-4.6,0.5-6.8,0.8c0.4,0,0.8,0.1,1.2,0.1c-1.8-0.4-3.6-0.9-5.4-1.3c3.6,1.6,4.3,10.4,5,13.9
				c1.2,6.6,1.7,13.4,1.4,20.1c-0.3,5.6-0.8,11.6-2.6,16.9c-0.9,2.5-3,3.5,0.7,1.9c6.5-2.9,7,0.3,3.4-3c-7.3-6.8-4-22.9-0.6-31
				c0.3-0.7,2.2-4.9,3-4.6c0.1,0-3.8,1.7-3.6,1.4c1-1.7,7.8,4.6,8.8,6.1c5.8,8.6,4,20.4-0.6,29c-2.4,4.5-5.4,8.7-8.6,12.5
				c-0.3,0.4-4.5,4.9-4.7,4.7c-0.2-0.2,6.4-1.3,6.1-0.4c-0.1,0.4-2.1-2-2-1.9c-2.2-3.4-1.7-7.6,0-11c1-2,2.4-3.7,3.9-5.3
				c0.1-0.1,2.3-2.2,2.4-2.2c-0.4,1.2-7.1-1.2-6.2,0.9c0.6,1.4,2.6,2.4,3.2,4.1c0.9,2.4,0.7,5.1-0.2,7.5c-0.7,2-1.8,3.4-2.9,4.7
				c1-1.2-0.8,1.5-0.2,0.3c0.7-0.3,0.5-0.2-0.8,0.3c0.7-0.3,1.4-0.5,2.2-0.6c-2.6,0.7-0.8-0.2-0.3,0c1.4,0.6-0.9-0.6-1.2-0.8
				c-1.5-1.3-2.3-3.2-2.8-5c-1.3-5.1-0.6-10.7,1-15.7c1.3-4.1,7,0.5-6.7,1.9c-2.5,0.3-2.7-1-1.5,0.6c1.6,2.2,2.8,2.8,3.3,5.8
				c0.7,3.4,0,6.7-1,10c-0.2,0.8-0.5,1.7-0.8,2.5c-2,4.2-3.3,1.1,2.7,0c2.3-0.3,4.6-0.5,6.8-0.8c3.2,2.3,4.3,2.3,3.2,0.2
				c-0.2-0.8-0.3-1.6-0.4-2.4c-0.3-2-0.5-3.9-0.8-5.9c-0.6-4-0.5-8.8-1.9-12.6c-6.5,7.5-11.9,9.3-16.2,5.5c0.3,0.6,0.4,1.1,0.5,1.8
				c-0.1,1.2-0.5,2.7-0.9,3.8c-1.2,3-3.3,6.2-5.2,8.8c-0.3,0.4-3.3,4-3.5,3.8c0,0,0.8-0.3,1-0.3c0.6-0.2,1.3-0.3,1.9-0.3
				c0.9,0.1,0.6,0.1-0.7-0.2c0.4,0.4-0.8-0.4-1.1-0.6c-2.1-1.5-2.4-3.4-2.3-5.8c0.1-0.5,0.3-0.9,0.7-1.2c0,0.1-0.1,0.2-0.2,0.3
				c2,4.2-8.2,0.9-8.4,1.9c0,0,2.2,4.2,2.3,5c0.1,0.7,0,1.6-0.2,2.4c-0.5,1.8-2.1,2.4,0.7,0.5c1.5-1,3.1-1.5,4.9-1.6
				c0.8-0.3,1.6-0.3,2.3-0.1c-0.3,0.4-1.8-0.8-1.9-0.9c-2.4-2-2.6-5.2-2.3-8.1c0.2-1.5,0.5-3.2,1-4.6c0.1-0.7,0.4-1.4,0.8-2
				c1.1-1.5,1-1.6-0.2-0.4c-3.2,0.7-6.3,1.3-9.5,2c1.2,0.2,1.5,0.3,0.9,0.3c0.7,1,2,1.4,2.7,2.6c2.6,4.3,0.3,10.4-3.4,13
				c6.8-0.3,13.5-0.6,20.3-0.9c-2.3-4.1-3.7-9.2-3.8-13.8c-0.1-2.1,0.1-4.2,0.5-6.2c0.2-1.3,0.8-2.6,0.9-3.8
				c0.3-2.2,3.4-0.7-2.6,1.4c-2.3,0.6-4.6,1.2-6.9,1.9c-3.5,0.5-2.8-1.3-2,0.9c0.7,1.9,1.3,3.4,1.3,5.6c0,2.1-0.5,4.2-0.9,6.2
				c-0.1,0.7-0.7,1.9-0.6,2.6c0.1,1.2-2.3,1.7,1.1-0.5c2.1-0.9,4.2-1.8,6.3-2.7c-0.3,0.1-0.7,0.2-1,0.3c2.3-0.3,4.6-0.5,6.8-0.8
				c3.1,1.3,3.8,1.2,2.3-0.3c-0.6-0.8-1.2-1.7-1.8-2.6c-0.7-1.2-1.3-2.4-1.9-3.7c-1.4-3.3-2.4-6.9-2.9-10.4
				c-0.5-3.5-0.4-6.9,0.2-10.4c0.3-1.5,0.6-3,1-4.5c0.2-0.7,0.4-1.4,0.6-2.1c1-1.6,0.8-1.5-0.8,0.3c-2.1,0.9-4.2,1.8-6.3,2.7
				c0.4-0.1,0.8-0.2,1.2-0.2c-2.3,0.3-4.6,0.5-6.8,0.8c0.4,0,0.7,0.1,1.1,0.1c-1.8-0.4-3.6-0.9-5.4-1.3c2.3,1.1,0.1,12.2-0.2,14.5
				c-1.1,6.7-3.1,13.2-6,19.4c8.4-1,16.8-2,25.3-2.9c-8.9-23.4-8.1-50,3.4-72.4c-6.7,2.3-13.4,4.6-20.1,6.9c1,0.2,0.9-0.3,1.9,1.2
				c0.9,1.3,1.4,2.5,1.9,4c1.3,4.2,1.4,8.7,1.4,13.1c0,5.6-0.4,11.2-1,16.7c-0.3,2.8-0.6,5.6-1.1,8.3c-0.2,0.8-0.4,1.7-0.5,2.5
				c-0.5,3.9-4.2,0.2,5.1-1.6c2.3-0.3,4.6-0.5,6.8-0.8c1,0.3,2,0.7,3,1c-0.3-0.3-0.5-0.6-0.8-0.9c-0.1-0.6-0.8-1.6-1.1-2.2
				c-0.8-2.2-1.1-4.6-1.5-6.9c-0.9-5.6-1.5-11.3-1.6-17.1c-0.4-11.4,0.9-22.8,3.4-33.9c-8.7,1.7-17.4,3.3-26.1,5
				c5.4,10.2,5.5,24-2.8,32.7c7.9-0.3,15.7-0.6,23.6-0.9c-4.6-14.1-5.4-28.6-2.2-43.1c-7.8,2.7-15.6,5.4-23.4,8.1
				c-0.5-0.2,0.3-0.4,0.3,0.5c0-1.2,0.4,3.3-0.1,2c1.1-2.1,3.3-2.8,6.8-2.1c6.7-0.4,8.8-1.1,6.3-2.1c0,0.1-1.7-2.4-1.8-2.6
				c-0.3-1.1-0.3-2.3,0.2-3.4c0.1-0.3,1.3-2.3,1.4-1.8c0,0.4-3.5,2.1-3.5,1.5c0-0.4,3.8,0.7,4.1,0.7c4.3-5.1,8.5-10.3,12.8-15.4
				c-3.9,0.1-7.8,0.2-11.7,0.3c0.1,4.6,0.2,9.2,0.4,13.8c3.8-1.8,6-2.6,10.4-2.5c4.8,0.1,9.3,1.6,13.5,3.8
				c5.1-4.8,10.2-9.7,15.2-14.5c-7.9-0.9-15.6,0-23.3,1.6c1.3,4.7,2.5,9.5,3.8,14.2c8.8-2,17.9-1.9,26.7-0.2c2-4.9,4-9.7,6-14.6
				c0.1,0-3.1-0.8-3.6-1c-3.2,5.1-6.3,10.2-9.5,15.3c9.6-1.6,18.6-1,27.9,1.6c-0.1-4-0.2-7.9-0.3-11.9c-2.9,2,1.2,0,0.9,0
				c-3.2,5.1-6.3,10.2-9.5,15.3c18.2-2.7,36.4-3.5,54.7-2.4c1-5,2-10,3-15c-6,1.3-12,2.6-18,3.9c1.3,4.7,2.5,9.5,3.8,14.2
				c9-2.6,18.2-4.1,27.6-4.2c-0.1-4.6-0.2-9.2-0.4-13.8c-4.7,1.8-9.9,2.6-14.9,2.7c-1,5-2,10-3,15c16.3-3.7,33.1-2.9,49.2,1.2
				c2-4.9,4-9.7,6-14.6c-2.6,0.7-5.3,0.5-8.4,0.1c0.1,4.6,0.2,9.2,0.4,13.8c13.2-5.3,27.7-6.9,41.8-4.7c-1.4-2.7-2.9-5.4-4.3-8.1
				c2.9-1.2,5.9-2.4,8.8-3.6c1.1,4.1,2.2,8.2,3.3,12.3c-0.7,0.4-5.5,1.5-5.5,1.8c0,0.3,1.5,1.4,1.8,1.9c1.4,2.3,1.5,5.5,0.2,7.8
				c8.4-0.3,16.9-0.6,25.3-0.9c0.1-4.5,0.2-8.9,0.3-13.4c-8.7,1.7-17.4,3.3-26.1,5c3,12.9,2.4,25.8-1.6,38.4
				c8.7-1.7,17.4-3.3,26.1-5c-0.4-10.8-0.8-21.6-1.1-32.5c-8.7,2.3-17.4,4.7-26.1,7c2.6,21.4,3,42.9,1.4,64.4
				c8.7-1.7,17.4-3.3,26.1-5c-1.9-8.5-2.2-16.8-0.9-25.4c-8.7,1.7-17.4,3.3-26.1,5c1.3,23.1,0.2,46.3-3.1,69.2
				c8.4-2.2,16.8-4.5,25.1-6.7c-2.1-3.5-2.6-7.4-1.8-11.3c-8.7,1.7-17.4,3.3-26.1,5c0.7,1.8,1.4,3.9,0.5,5.9
				c8.1-1.6,16.2-3.1,24.3-4.7c-2.7-3.5-4.4-7-5.6-11.2c-1.6-5.6-10.8-4.7-14.9-3.6c-4.8,1.3-11.7,4.7-11.1,10.6
				c0.5,4.8-0.5,9.4-2.2,14c7-3,14-6,21-9c0.4,0.1,0.1,0.2,0.2-0.6c-8.4,2.2-16.8,4.5-25.1,6.7c-1.2-3,0.9-4.8,6.3-5.4
				c2.3-0.3,4.6-0.5,6.8-0.8c1.5,0.1-1.1-1-1.7-1.5c-4.4-3.5-10.5-3.1-15.7-1.2c-2.9,1.1-11.8,5.4-9.4,10c0.8,1.6,1.7,3.2,2.5,4.9
				c2.6-3.1,5.2-6.3,7.7-9.4c-2.7,1-5.6,1.1-8.7,0.9c-6.2-0.3-18.8,3.2-18,11.4c0.9,8.8,17.3,4.5,21.6,2.1c2.9-1.6,6.4-4.2,6.8-7.8
				c0.5-4-3.4-6.5-6.8-7.5c-6.4-1.8-14.1-0.9-20.7-0.9c-7.7,0-15.4,0.2-23.1,0.4c-6,0.2-13.8,1.7-17.2,7.3c-3.1,5.2,2.7,8.5,7.3,8.5
				c5.9,0,11.8,0,17.7,0c5.6,0,12.7-1.6,16.3-6.3c2.8-3.7,1.7-8.3-3.5-9c-9.4-1.4-18.8-2.8-28.2-4.3c-4.3,5.1-8.5,10.3-12.8,15.4
				c3.8-0.1,7.6-0.2,11.4-0.3c2.2-5.2,4.4-10.4,6.6-15.7c-8.3,1.5-16.7,2.7-25.1,3.4c-3.4,0.3-6.9,0.5-10.3,0.6
				c-1.9,0-3.9,0.1-5.9,0.1c-1.3,0-2.6,0-3.9,0c-3-0.2-2.6,0,1.1,0.7c0.3,1.3,0.7,2.5,1,3.8c0-0.2,0.1-0.4,0.1-0.7
				c-0.8,1.3-1.7,2.7-2.5,4c0.2-0.1,0.3-0.3,0.5-0.4c-2.9,1.5-5.8,3-8.7,4.5c0.2-0.1,0.5-0.1,0.7-0.2c-2.3,0.3-4.6,0.5-6.8,0.8
				c0.2,0,0.4,0,0.7,0.1c-2.4-0.9-4.8-1.8-7.1-2.6c0.1,0.1,0.3,0.2,0.4,0.3c-0.3-1.3-0.7-2.5-1-3.8c0,0.2-0.1,0.4-0.1,0.5
				c6-3.1,12-6.2,18-9.4c-13.4-0.1-26.8-0.2-40.3-0.4c-5.9-0.1-13.9,1.8-17.2,7.3c-3.3,5.5,2.8,8.1,7.3,8.5c3.9,0.3,7.8,0.6,11.7,1
				c2.2-5.2,4.4-10.4,6.6-15.7c-12.6,0.8-25.1,0.7-37.7-0.2c-5.5-0.4-12.9,1.8-16.3,6.3c-3.1,4-1.4,7.7,3.5,9
				c3.8,1,7.7,2.1,11.5,3.1c4.3-5.1,8.5-10.3,12.8-15.4c-14.9-1.6-29.8-3.2-44.7-4.8c2.7,2.1,5.4,4.3,8.1,6.4
				c0.3-2.1-0.3-1.7-1.9,1.1c-2.1,0.9-4.2,1.8-6.3,2.7c0.4-0.1,0.8-0.2,1.1-0.3c-2.3,0.3-4.6,0.5-6.8,0.8c0.4,0,0.8,0,1.2,0
				c-2.4-2.8-4.9-5.6-7.3-8.5c-1.3,2.4-2.5,4.7-3.8,7.1c8.4-1,16.8-2,25.3-2.9c-3.6-9.9-4.3-19.8-1.9-30c-8.7,1.7-17.4,3.3-26.1,5
				c1.5,7.7,1.2,15-0.7,22.6c8.7-1.7,17.4-3.3,26.1-5c-1.6-18-0.5-36,2.9-53.7c-8.7,1.7-17.4,3.3-26.1,5c5.1,18.2,4,36.9,2.6,55.6
				c8.7-1.7,17.4-3.3,26.1-5c-6-35.7-5.9-71.9,0.4-107.5c-8.7,1.7-17.4,3.3-26.1,5c4.5,23.4,3.8,47.4-4.3,70c8.7-1,17.4-2,26.2-3
				c1-28.4,0-56.8-3.2-85c-0.6-5.1-10.1-4.6-13.2-3.9c-4.2,0.8-12.4,3.6-12.9,8.9c-0.3,2.9-0.6,5.9-0.9,8.8
				C320.9,183.6,347.2,179,348.2,169.4L348.2,169.4z"/>
		</g>
	</g>
	<g>
		<g>
			<path class="st0" d="M430.6,267.3c12.4-1.6,24.7-8.9,27.2-22c1.6-8.2-10.9-7.9-15.3-7c-15.1,3.1-30.4,17.1-27.7,33.7
				c3.5,21.4,37.1,13.6,42.3-3c1.8-5.8,0.6-12.6-3.5-17.2c-5.8-6.7-15.7-7.6-23.9-5.8c-8,1.7-16.5,6.5-20.5,13.9
				c-3.6,6.8-3.6,16.1,3.4,20.8c12.7,8.6,40.8-1.8,36.1-19.8c-2.1-8.2-10.6-13-18.6-13.7c-9.9-0.8-20.6,3.4-27.2,10.8
				c-5.3,5.9-9,14.9-5,22.5c3.8,7.2,12.8,9.6,20.4,9.8c17.7,0.4,33.3-8.4,45.4-20.8c5-5.2,10.7-11.2,13.1-18.1
				c2.7-7.7-0.3-14.5-8.5-16.4c-22-5-32.8,20.3-28.9,38.2c2.1,9.8,11.3,12.9,20.4,11.8c9.8-1.2,18.7-7.6,24.8-15.2
				c9.6-11.7,17.5-33.2,1-43c-8.7-5.1-20.7-3.8-28.8,2c-6.2,4.5-9.8,11.2-10.8,18.7c-1.1,8.1-0.5,17.7,2.3,25.4
				c3.4,9.3,12.3,12.5,21.7,10.9c18.6-3,28.3-20.1,33.7-36.5c2.5-7.5,3.8-15.2,4-23.1c0.1-7.8-0.2-16.6-8.5-20.1
				c-9.5-4.1-21.5,0.3-27.5,8.4c-4.8,6.5-6.2,15.1-7.2,22.9c-1.2,9-1.1,18.2,0,27.2c0.9,7.2,1.7,17.9,8,22.6
				c9.3,6.9,23.3,1.3,29-7.6c3.9-6.1,6.5-13.3,8.2-20.4c3.5-14.1,2.6-29.7-2.3-43.4c-2.5-6.9-6-13.4-10.4-19.3
				c-5.2-7-24.8-2.6-25.1,6.7c-1.1,31.2,1.7,62.4,8.5,92.8c1,4.6,7.9,5.8,11.7,5.3c11.3-1.4,19.5-7.9,22.7-18.8
				c2.8-9.8,3.2-20.5,2.7-30.6c-1-21.4-6.6-42-12.8-62.4c-1.6-5.4-9-5.8-13.5-5c-4.3,0.8-12.8,4.1-12.7,9.7
				c0.2,29.9,4.9,59.4,14.5,87.7c1.2,3.4,4.9,5.2,8.3,5.3c12,0.3,22.7-6,24.9-18.3c1.8-9.8,0.9-20.7,0-30.6
				c-1.8-20.6-7.5-40.6-16.6-59.2c-3.8-7.6-15.6-6.4-21.5-1.8c-7.4,5.8-9.1,12.7-8.3,21.7c0.8,9,2.5,18.1,4,27
				c3.3,18.6,7.7,37.1,13.1,55.2c3.1,10.6,24.9,4.7,26.2-4.7c4.6-32.8,0.1-66.6-13.3-96.9c-3.9-8.8-18.5-5.7-23.8,0.2
				c-6.1,6.8-4.9,14.5-3.5,22.9c1.5,8.5,3.5,16.9,5.9,25.2c4.9,16.4,11.8,32.2,20.1,47.2c1.1,2,5.3,3.3,7.3,3.3
				c11.7,0.1,23-6.1,22.3-19c-0.6-10.9-3.1-21.9-4.6-32.6c-2.9-19.5-4.2-40.4-15.9-57c-5.9-8.3-26.4-1.4-25,9
				c2.5,18.5,5.6,37,9.5,55.3c1.8,8.6,3.4,17.3,5.9,25.8c2.5,8.6,7.6,13.8,16.7,15.1c5.6,0.8,14.6-2.2,17.1-7.7
				c12.6-28.1,5-58.7-4.1-86.6c-3.6-10.9-28.9-4.2-26.1,7c5,20.1,10,40.2,15,60.3c2.6,10.3,26.2,5,26.2-4.7
				c-0.1-22.9-0.1-45.8,0.3-68.7c-8.4,2.2-16.8,4.5-25.1,6.7c10.8,12.4,16.1,28.5,14.3,44.9c8.7-1.6,17.5-3.1,26.2-4.7
				c-2.3-15.7-4.4-31.3-2.7-47.1c-8.4,2.2-16.8,4.5-25.1,6.7c9,13.4,11.2,31.2,5.2,46.3c8.5-0.8,16.9-1.6,25.4-2.4
				c-2.4-15.2-1.3-31.1,3.8-45.7c-8.5,0.8-16.9,1.6-25.4,2.4c2.7,25.8,0.8,51.9-5.1,77.1c8.8-0.8,17.5-1.6,26.3-2.4
				c1-10.8,1.9-21.6,2.9-32.4c1.1-12.7-24.7-8.2-26.3,2.4c-3,19.2-3.4,38.6-1.6,58c0.4,4.8,8.3,5.6,11.7,5.3
				c5.3-0.5,10.9-3.1,13.7-7.7c5.2-8.4,7.1-18,6.1-27.7c-1.2-11.1-6.9-21.8-19.7-20.3c-25.6,3-26.5,37.6-22.6,57.1
				c1,4.7,7.9,5.6,11.7,5.3c5-0.4,11.3-3,13.7-7.7c5-10,3.8-22.4-5.2-29.6c-10-8-26.1-5.9-36,1.2c-9.4,6.7-13,19.4-4.1,28.1
				c9.9,9.7,27.7,7.5,36.6-2.7c7.4-8.5,6.4-21.1-2.6-28c-11.1-8.5-28.8-6-39.8,1.4c-10.2,6.8-15.5,20.7-6.3,30.7
				c10,10.9,29.6,7.5,39.4-1.8c4.8-4.5,8.5-11.8,3.3-17.5c-4.3-4.7-11.5-7-17.7-7.6c-14.7-1.4-29.7,5-37.9,17.4
				c-1.9,2.9-0.5,6.5,2.2,8.2c10.4,6.5,23.1,4.3,33.2-1.7c4.5-2.7,6.7-9.2,1.7-12.4c-5.6-3.6-13.4-1.3-18.6,1.8
				c1.6-1,3.3-1.5,5.3-1.3c-0.1,0,2.2,1.5-1.2-0.6c0.7,2.7,1.5,5.5,2.2,8.2c-0.6,0.9,2.4-2.5,1.4-1.5c-0.5,0.5-0.2,0.3,0.9-0.5
				c-1.1,0.6-0.9,0.6,0.5-0.1c-2.2,0,1.4-0.7-0.8,0.2c1.4-0.1,1.7-0.1,0.9-0.1c-0.8,0-0.5,0,0.9,0.1c-1.9-0.5,2.4,0.7,1.9,0.5
				c-0.5-0.2-0.1,0,1,0.6c1.2,1,1.4,1,0.5-0.1c-0.1,0.1,0-1.3,0.1-1.4c0.6-1.2,4.2-0.9,4.5-1.5c0,0.1,0.5-0.2,0.4,0
				c0,0.1-1.7-2.4-1.9-2.9c-0.7-1.7-0.6-3.3-0.1-5.1c0.1-0.5,0.6-0.2,1.2-0.9c-1.2,1.3-2-0.2-0.4,0.4c-1.2-0.5,0.7,0.2,0.8,0.3
				c1,0.7,1.5,0.8,2.4,1.8c1,1.3,1.4,2.9,1.4,4.4c0,0.9-0.6,2.2-0.6,2.7c-0.4,0.6-0.3,0.7,0,0.1c2.2-2,5-2.8,8.3-2.6
				c0.4-2.2,2.2,3.8,0.1-0.5c-0.3-0.5-1.1-1.3-1.4-2c0,0-1.1-5.2,0.1-4.6c1.2,0.6-6.8,2.3-3,1.9c-2.5,0.3-1-0.6-0.6,0.3
				c-0.4-0.9,1.4,1.4,1.5,1.6c2.9,3.5,2.9,8.9,0.9,12.8c8.5-0.8,16.9-1.6,25.4-2.4c-1.3-6.6-1.8-13.1-1.1-19.9
				c0.3-3.3,0.9-6.5,1.7-9.7c0.4-1.5,0.7-3.1,1.3-4.5c1.2-3,3-2.5-1.8-0.2c-2.3,0.6-4.6,1.2-6.9,1.9c0.4-0.1,0.8-0.1,1.2-0.2
				c-2.1-0.2-4.2-0.4-6.3-0.6c-2-0.4-0.9-1.4-0.3,0.5c0.5,1.5,1.1,2.9,1.5,4.4c0.7,2.5,1.1,5.1,1,7.7c-0.1,5.9-1.7,11.1-4.8,16.1
				c8.5-0.8,16.9-1.6,25.4-2.4c-1.6-17.8-0.9-35.7,1.8-53.4c-8.8,0.8-17.5,1.6-26.3,2.4c-1,10.8-1.9,21.6-2.9,32.4
				c-1.2,13,23.9,7.6,26.3-2.4c6.3-26.8,7.8-54.3,4.9-81.7c-0.5-4.8-8.3-5.6-11.7-5.3c-4.5,0.4-12,2.9-13.7,7.7
				c-6.3,17.9-8.2,36.1-5.2,54.9c0.8,4.8,8.1,5.6,11.7,5.3c4.7-0.4,11.8-2.9,13.7-7.7c7.9-19.9,6-41.7-6-59.6
				c-5.2-7.7-24.2-2.1-25.1,6.7c-1.9,17.3,0.4,34.6,2.9,51.7c0.8,5.5,9.6,5.7,13.5,5c4.8-0.9,12.1-4,12.7-9.7
				c2.1-19.4-3.8-38.9-16.6-53.6c-3.3-3.8-9.7-3.8-14.2-2.6c-4,1.1-10.9,4.5-11,9.4c-0.5,22.9-0.4,45.8-0.3,68.7
				c8.7-1.6,17.5-3.1,26.2-4.7c-5-20.1-10-40.2-15-60.3c-8.7,2.3-17.4,4.7-26.1,7c7.9,24.3,16.5,52.7,5.4,77.4
				c5.7-2.6,11.4-5.1,17.1-7.7c4.4,0.6,1.6,1,1.5-0.5c-0.1-0.9-1-2.4-1.3-3.3c-1.1-3.4-1.7-6.9-2.5-10.3c-1.8-7.9-3.5-15.7-5.1-23.6
				c-3.1-15.8-5.8-31.7-7.9-47.7c-8.3,3-16.7,6-25,9c8.5,12,10.1,27.3,12.2,41.5c1.2,8.2,2.4,16.5,3.6,24.7c0.7,4.4,1.3,8.9,2,13.3
				c0.1,0.9,0.6,2.9,0.6,3.7c0,3.2-1.2,2.2,2,0c2.1-1,4.2-1.9,6.3-2.9c-0.3,0.1-0.6,0.2-0.8,0.3c2.3-0.2,4.6-0.4,6.9-0.6
				c-0.3,0-0.7,0-1,0c2.4,1.1,4.9,2.2,7.3,3.3c-7-12.6-12.6-25.9-16.9-39.7c-2.1-6.8-4-13.7-5.4-20.7c-0.7-3.5-1.4-7-2-10.5
				c-0.1-0.8-1.4-5.7-0.6-6.6c-7.9,0.1-15.9,0.1-23.8,0.2c12.9,29.1,17.5,60.8,13,92.3c8.7-1.6,17.5-3.1,26.2-4.7
				c-4.6-15.7-8.5-31.6-11.7-47.7c-1.5-7.9-2.9-15.8-4-23.7c-0.5-3.6-1.2-7.2-1.4-10.8c-0.1-1-0.1-2,0-3.1c0.3-2.6,1.6-3-0.9-1
				c-7.2-0.6-14.3-1.2-21.5-1.8c7.2,14.5,12.2,30,14.9,46c1.3,7.7,2.1,15.4,2.1,23.2c0,4.1-0.1,8.2-0.4,12.4
				c-0.1,1.3-0.1,2.9-0.5,4.2c-1.2,4.8-2.8,0.1,5.2-1.7c2.3-0.2,4.6-0.4,6.9-0.6c-0.4,0-0.7,0-1.1,0c2.8,1.8,5.6,3.5,8.3,5.3
				c-9.1-26.8-14.1-54.9-14.3-83.1c-8.7,1.6-17.5,3.1-26.2,4.7c4.9,16,9.5,32.2,11.7,48.9c1,7.9,1.3,15.8,0.7,23.8
				c-0.3,4-0.9,8.1-1.7,12c-0.2,0.9-0.4,2.3-0.7,3.2c-1.8,5-2.3,0.3,6.2-0.8c3.9,1.8,7.8,3.5,11.7,5.3c-6.4-29-9.3-58.6-8.2-88.3
				c-8.4,2.2-16.8,4.5-25.1,6.7c7.5,10,11.8,22.3,12.4,34.8c0.3,6.2-0.4,12.4-1.8,18.4c-0.6,2.7-1.4,5.3-2.4,7.8
				c-0.6,1.4-1.2,2.8-1.9,4.1c-0.7,1.3-4,5.2-0.9,2.8c2.1-1,4.2-1.9,6.3-2.9c-0.4,0.1-0.8,0.3-1.2,0.4c2.3-0.2,4.6-0.4,6.9-0.6
				c0.8,0,3.1,1.4,3.4,0.9c0.2-0.3-1-3.4-1.1-3.9c-0.7-2.7-1.2-5.4-1.6-8.2c-0.8-5.4-1.2-10.7-1.1-16.1c0.2-5.2,0.7-10.5,1.7-15.6
				c0.5-2.6,0.9-5.6,1.9-8.1c1.8-4.5,2.7-1.1-3.3,0.2c-2.3,0.2-4.6,0.4-6.9,0.6c-4.1-0.1-3.1-3.4-2.2,1c0.2,1.2,0.2,2.4,0.3,3.6
				c0.1,3.9-0.3,7.8-0.8,11.7c-1.1,7-3.1,13.7-6.2,20.1c-1.4,2.9-3,6.2-5.1,8.7c0.3-0.3-2.1,2.4-2.1,2c0.3-0.2,0.6-0.3,0.9-0.4
				c2.2-0.8,4.5-0.7,6.9,0.1c0-0.7-0.9-1.9-1.1-2.7c-0.6-2-1-4-1.3-6c-0.6-3.7-0.8-7.5-0.5-11.2c0.2-2.7,0.8-4.9,1.6-7.4
				c0.7-1.2,0.8-1.5,0.5-0.9c-0.2,0.1-0.3,0.3-0.5,0.4c-8.1,2.8-11,3.4-8.5,1.7c0.6,0.2,1.1,0.6,1.4,1.1c0.5,1.2,1.3,1.7,1.7,3.1
				c0.5,1.5,0.5,2.8,0.4,4.3c-0.2,3.6-1.6,6.9-3.4,10.1c-1.7,3-4.1,4.9-6.1,7.6c-0.7,1-1,1.3-1,0.9c4.9,2.6,7.4,2.6,7.4,0.1
				c0-0.2,0-0.4,0-0.6c0.1-1.5-0.7-3.5-0.8-5.1c-0.1-2,0.1-4,0.4-5.9c0.3-1.7,0.6-3.6,1.2-5.2c1-2.8,2-2.3-1.3-0.8
				c-2.3,0.6-4.6,1.2-6.9,1.9c-0.3,0-0.7,0-1,0c-1.8-0.6-3.6-1.1-5.5-1.7c1.4,0.8,1.3,0.5-0.4-1c0.1-0.7,0.1-0.4,0,0.8
				c-0.5,0.7-0.7,2.2-1.3,3.1c-1.5,2.3-3.9,4.9-5.9,7.1c-4.6,5-9.6,9.7-15.4,11.7c2.3-0.8-2.5,0.5-0.1,0.1c-1.8,0.4-2.7,0.5-3.9,0.2
				c0.8,0.2-1.5-0.4-1.8-0.9c-0.2-0.3-0.6-2.3-0.6-2.1c-0.1-1.6,0.8-3,1.4-4.3c1.2-2.4,1.3-0.6,0.3-0.9c-0.2-0.1-3.8,0.6-3.8,0.4
				c-0.1,0.3,1.4,1.3,1.7,1.7c0.3,0.6,1.1,3.1,0.5,2.7c-0.3-0.2,3.3-2.5,4.3-2.8c2.2-0.7,4.3-0.7,6.4,0.2c0.4,0.4,0.4,0.3,0-0.4
				c0.2-0.5,0.2-3.2,0.3-3.7c0.1-0.4,0.9-1.9,0.1-0.4c1.2-0.9,1.3-0.9,0.3-0.2c-1.3,0.7-2.8,1-4.4,0.8c-0.9,0.4-1.1-1.5,0,0
				c0.5,0.6,1,1.3,1.3,1.9c0.5,1.1,0.7,2.2,0.6,3.4c-0.1,0.8-0.2,1.5-0.4,2.2c-0.1-0.3,0-0.5,0.3-0.6c0.7-0.5,1.5-0.9,2.2-1.4
				c7.8,2.2,10.4,1.9,7.8-1.1c0-1.1-0.5-2.1-0.5-3.3c0-2.3,0.8-4.8,2.1-6.7c1.1-1.6,1.6-1.7,2.7-2.6c-0.9,0.5-0.7,0.4,0.7-0.2
				c-1.2,0.5-1.1,0.6,0.5,0.1c-5.1-2.3-10.2-4.6-15.3-7c0.1-0.5-1.1,3.5-1,2.7c0.7-0.3,0.5-0.1-0.8,0.6c1.1-0.8,2.3-1.2,3.5-1.3
				c-5.4,0.7-13.6,3.6-14.5,10C418,265.9,426,267.9,430.6,267.3L430.6,267.3z"/>
		</g>
	</g>
	<g>
		<g>
			<path class="st0" d="M476,181.5c4.4,4.3,9.8,7.2,15.7,8.7c6,1.5,13-0.1,18.3-3c3.3-1.8,8.1-5.7,2.8-8.2
				c-12.4-5.9-26-5.5-39.1-2.5c-1.6,0.4-15.9,5.7-10.9,9.8c3.6,2.9,8.1,2.7,12.4,2.7c4.4,0.1,8.8,0.1,13.2,0.1
				c8.4-0.1,16.9-0.4,25.2-1.7c8.4-1.4,16.8-3.7,24.4-7.8c3.6-1.9,7-4.3,9.8-7.1c1.9-1.9,3.2-5.8,5.3-7.1c-2.9,1.3-5.9,2.6-8.8,4
				c-8,1.8-3.2,0.8,0.1,1.7c2.3,0.6,4.4,1.5,6.6,2.5c0.1-2.2,0.3-4.5,0.4-6.7c1.4-0.9,4.1-1.2,1.6-1c2.6-0.3-1.6,0.2-1.8,0.2
				c-3.4,0.5-6.8,1.1-10.1,1.9c-7.3,1.8-14,4.9-19.5,10.1c-1,0.9-1.8,3.3-0.3,4.3c8.7,5.3,17.7,10,27.1,14c5.3,2.3,13.5-0.4,18.3-3
				c3.1-1.7,8.3-5.9,2.8-8.2c-8.2-3.5-16.1-7.6-23.8-12.3c-0.1,1.4-0.2,2.8-0.3,4.3c-0.2,0.2-2.1,0.9-2.9,1.3c2.2-0.9-0.4,0,1-0.2
				c2.4-0.4,4.9-0.8,7.3-1.2c7.5-1.5,14.3-3.9,20.8-8c3.1-1.9,4-5.1,0.4-6.7c-8.9-4-19.3-5.8-28.9-3.5c-5.2,1.3-10.8,3.4-14.3,7.7
				c-2,2.6-3.1,5.6-5.9,7.5c-0.2,0.1-2.7,1.4-1.4,0.8c-1.6,0.6-1.8,0.7-0.7,0.3c-1.5,0.4-1.9,0.5-1.1,0.3c-1.5,0.2-5.7,0.8-8.3,1
				c-4.4,0.3-8.8,0.4-13.1,0.4c-2.2,0-4.4,0-6.6,0c-1.3,0-2.5,0-3.8-0.1c-2.3-0.1-2.5-0.1-0.7,0.1c-3.6,3.3-7.2,6.5-10.9,9.8
				c-1.1,0.3,1.3,0,1.3,0c1.5,0,3,0.1,4.5,0.4c3.3,0.6,6.4,1.8,9.4,3.2c7-3.7,14.1-7.4,21.1-11.1c-4.9-1.3-8.8-3.5-12.4-7
				C494.9,166.8,470.6,176.4,476,181.5L476,181.5z"/>
		</g>
	</g>
</g>
<g id="Слой_1">
	<g>
		<g>
			<path d="M301.7,156.7c0,49,0,98,0,147c0,7.1,14.6,4.6,14.6-1.3c0-49,0-98,0-147C316.3,148.2,301.7,150.7,301.7,156.7L301.7,156.7
				z"/>
		</g>
	</g>
	<g>
		<g>
			<path d="M304.9,157.2c69.5,0,139,0,208.4,0c19.9,0,39.7,0,59.6,0c2.8,0,8-1.1,9.7-3.6c1.8-2.6-1.6-2.9-3.6-2.9
				c-69.5,0-139,0-208.4,0c-19.9,0-39.7,0-59.6,0c-2.8,0-8,1.1-9.7,3.6C299.6,157,302.9,157.2,304.9,157.2L304.9,157.2z"/>
		</g>
	</g>
	<g>
		<g>
			<path d="M305.3,307.4c75,0,150,0,225,0c21.2,0,42.5,0,63.7,0c3.2,0,7.9-1,9.5-4.1c1.6-2.9-1.3-4.8-4.1-4.8c-3.6,0-7.2,0-10.8,0
				c-3.2,0-7.9,1-9.5,4.1c-1.6,2.9,1.3,4.8,4.1,4.8c3.6,0,7.2,0,10.8,0c3.2,0,7.9-1,9.5-4.1c1.6-2.9-1.3-4.8-4.1-4.8
				c-75,0-150,0-225,0c-21.2,0-42.5,0-63.7,0c-3.2,0-7.9,1-9.5,4.1C299.6,305.6,302.5,307.4,305.3,307.4L305.3,307.4z"/>
		</g>
	</g>
	<g>
		<g>
			<path d="M605.3,302.3c0-50.1,0-100.1,0-150.2c-4.9,0.5-9.7,1-14.6,1.5c0,1.1,0,2.1,0,3.2c0,6.8,14.6,4.1,14.6-1.5
				c0-1.1,0-2.1,0-3.2c0-6.8-14.6-4.1-14.6,1.5c0,50.1,0,100.1,0,150.2C590.7,310.6,605.3,307.9,605.3,302.3L605.3,302.3z"/>
		</g>
	</g>
	<g>
		<g>
			<path d="M569.3,157.6c7,0,14,0,21,0c3.2,0,7.9-0.9,9.5-4.2c1.5-2.9-1.3-5-4.1-5c-7,0-14,0-21,0c-3.2,0-7.9,0.9-9.5,4.2
				C563.7,155.5,566.5,157.6,569.3,157.6L569.3,157.6z"/>
		</g>
	</g>
	<g>
		<g>
			<path d="M594.6,146.5c-73.8,0-147.6,0-221.4,0c-20.9,0-41.7,0-62.6,0c-8.4,0-11,11.1-1.2,11.1c73.8,0,147.6,0,221.4,0
				c20.9,0,41.7,0,62.6,0C601.9,157.5,604.4,146.5,594.6,146.5L594.6,146.5z"/>
		</g>
	</g>
	<g>
		<g>
			<path d="M312.8,159.9c0,47,0,94,0,141c0,3.5,14.5,1.1,14.5-3.9c0-47,0-94,0-141C327.2,152.5,312.8,155,312.8,159.9L312.8,159.9z"
				/>
		</g>
	</g>
	<g>
		<g>
			<path d="M312.1,300.8c72.4,0,144.8,0,217.2,0c20.6,0,41.2,0,61.8,0c3,0,7.9-1.1,9.6-3.8c1.8-2.8-1.5-3.8-3.8-3.8
				c-72.4,0-144.8,0-217.2,0c-20.6,0-41.2,0-61.8,0c-3,0-7.9,1.1-9.6,3.8C306.5,299.8,309.8,300.8,312.1,300.8L312.1,300.8z"/>
		</g>
	</g>
	<g>
		<g>
			<path d="M584.7,155.8c0,45.7,0,91.3,0,137c0,6.4,14.5,3.5,14.5-1.7c0-45.7,0-91.3,0-137C599.3,147.8,584.7,150.7,584.7,155.8
				L584.7,155.8z"/>
		</g>
	</g>
	<g>
		<g>
			<path d="M319.3,163.3c68.7,0,137.5,0,206.2,0c19.6,0,39.2,0,58.8,0c3.1,0,7.6-2.4,8-5.8c0.4-3.8-3.9-4.7-6.7-4.7
				c-68.7,0-137.5,0-206.2,0c-19.6,0-39.2,0-58.8,0c-3.1,0-7.6,2.4-8,5.8C312.3,162.3,316.5,163.3,319.3,163.3L319.3,163.3z"/>
		</g>
	</g>
	<g>
		<g>
			<path d="M452.8,309.9c0,8,0,16,0,24c0,2.9,14.5,0.7,14.5-3.9c0-8,0-16,0-24C467.2,303.2,452.8,305.4,452.8,309.9L452.8,309.9z"/>
		</g>
	</g>
	<g>
		<g>
			<path d="M407.4,326.5c-11.7,11.7-23.3,23.3-35,35c-2.3,2.3,2.1,2.6,3.5,2.6c3.1-0.1,7.4-1.2,9.7-3.5c11.7-11.7,23.3-23.3,35-35
				c2.3-2.3-2.1-2.6-3.5-2.6C414,323.1,409.7,324.2,407.4,326.5L407.4,326.5z"/>
		</g>
	</g>
	<g>
		<g>
			<path d="M377.9,364.2c45.7,0,91.3,0,137,0c2.8,0,8-1.1,9.7-3.6c1.8-2.6-1.5-2.9-3.6-2.9c-45.7,0-91.3,0-137,0
				c-2.8,0-8,1.1-9.7,3.6C372.6,364,375.9,364.2,377.9,364.2L377.9,364.2z"/>
		</g>
	</g>
	<g>
		<g>
			<path d="M525.8,356.5c-9-9-18-18-27-27c-2.8-2.8-16.2,2.5-13.6,5.1c9,9,18,18,27,27C515,364.3,528.4,359,525.8,356.5L525.8,356.5
				z"/>
		</g>
	</g>
	<g>
		<g>
			<path d="M412.3,332.1c26.3,0,52.7,0,79,0c3,0,7.6-2.4,8-5.7c0.4-3.7-3.9-4.5-6.6-4.5c-26.3,0-52.7,0-79,0c-3,0-7.6,2.4-8,5.7
				C405.3,331.4,409.6,332.1,412.3,332.1L412.3,332.1z"/>
		</g>
	</g>
	<g>
		<g>
			<path d="M400.9,343.2c-3.9,2.1-7.2,4.5-9.2,8.5c-2.9,5.7,7,5,9.8,3.7c4.5-2,8.4-4.6,12.2-7.7c-3.9-1-7.8-1.9-11.8-2.9
				c-2.5,2.7-5.2,5.2-8.2,7.4c-2.2,1.6-4,4.3-1.1,6.2c2.7,1.8,7.8,0.5,10.3-1.2c2.3-1.6,4.3-3.2,6.1-5.3c5.6-6.5-7-6.4-10.5-3.9
				c-2.3,1.6-4.5,2.8-7.1,3.8c-2.2,0.8-5.2,3.2-4,5.8c1.2,2.7,5.9,2.1,8,1.6c7.1-1.7,14.2-2.1,21.4-1.5c3.1,0.3,7.9-1.1,9.5-4.1
				c1.7-3.1-1.4-4.5-4.1-4.8c-2.8-0.3-5.5-0.5-8.3-0.8c-1.8,3-3.6,5.9-5.5,8.9c8.3,0.8,16.5,0.9,24.8,0.6c2.7-0.1,7-1.8,7.9-4.6
				c0.9-2.7-1.8-4.2-4.3-4.2c-7.8,0-15.6,0-23.4-0.1c-3.2,0-7.9,1-9.5,4.1c-1.6,3,1.4,4.6,4.1,4.8c6.8,0.4,13.6,0.7,20.5,1.1
				c1.2-2.9,2.4-5.9,3.6-8.8c-6.1,0.4-12.3,0.8-18.4,1.2c-2.7,0.2-7.8,2-8.2,5.2c-0.4,3.4,4,3.7,6.4,3.6c13-0.8,25.9-2,38.9-3.3
				c2.7-0.3,7-1.7,7.9-4.6c0.9-2.7-1.8-4.2-4.3-4.2c-3.5,0-7,0.1-10.5,0.1c-3.2,0-7.8,0.9-9.5,4.1c-1.6,2.9,1.3,4.8,4.1,4.8
				c4.6,0,9.2,0,13.9,0c1.2-2.9,2.4-5.9,3.6-8.8c-3.4,0.6-6.9,1.3-10.3,1.9c-2.6,0.5-6.3,1.4-7.7,4c-1.2,2.2,0.2,4,2.4,4.6
				c7.3,1.9,14.4,1.7,21.7,0.3c2.2-0.4,9.9-5.7,4.6-7.7c-5.6-2.1-11.2-2.9-17.1-1.8c-2.7,0.5-7.8,1.8-8.2,5.2
				c-0.4,3.5,4,3.7,6.4,3.6c9.3-0.3,18.6-0.6,27.9-0.9c5.6-0.2,12.6-7.7,3.6-8.8c-3.6-0.4-7.3-0.9-10.9-1.3c-4.3-0.5-15.2,6-7.1,8.6
				c5.4,1.8,11,2.6,16.6,2.5c1.2-2.9,2.4-5.9,3.6-8.8c-4.2,0.7-8.4,1.3-12.6,2c-2.6,0.4-6.3,1.5-7.7,4c-1.1,2,0.1,4.2,2.4,4.6
				c10.2,1.6,19.9,1.3,30-0.8c3.4-0.7,10-7,3.3-8.2c-3.3-0.6-6.6-1.2-9.9-1.7c-2.4,2.9-4.7,5.8-7.1,8.6c5.6,0.4,11.3,0.8,16.9,1.2
				c2.9,0.2,14.8-4.6,8.4-8.1c-1.7-0.9-3.4-1.9-5.1-2.8c-2.8-1.5-15.3,0.5-13,5.6c1.6,3.5,3.8,6.8,7.7,7.8
				c4.6,1.2,10.7-0.5,13.8-4.2c7.1-8.4-7.4-16.7-12.7-21.1c-3.6-3-14.5-1.1-13.9,4.9c0.5,4.8,3.1,8.3,7,10.9
				c3.4,2.2,16.6-1.9,12.4-6.6c-3.3-3.7-6.5-7.3-9.8-11c-3-3.4-13.4-1.1-14,3.7c-0.5,4.2,1.9,6.5,5.6,7.7c3.8,1.2,12.1-1.2,11.6-6.1
				c-0.6-6.7-6.9-10.4-13.2-10.5c-3.6,0-8.7,1.3-10,5.2c-2.5,7.6,3.6,14.9,11.3,15.4c3.8,0.2,9.5-1.2,11.3-5
				c1.5-3.2-1.7-7.2-3.5-9.8c-4.6-6.7-17.1-3.5-21,2.6c-5.7,9,5.6,15,12.3,17.4c2.5,0.9,14-1.7,11.6-6.1c-3.6-6.6-9.1-14-16.7-16.3
				c-6.6-1.9-16.4,0.4-18.6,7.8c-4.9,16.6,29,10.9,23.3-2.9c-5.4-12.9-33.6-0.5-22.7,12.8c4.6,5.6,16.4,5,19.8-1.7
				c3.2-6.1-5.8-13.5-10.5-15.7c-7.2-3.3-19.1-1.3-22.6,6.6c-4,9,5.9,14.6,13.6,14.7c3.3,0,7.7-1,9.5-4.1c4-6.9-5.1-14.1-11.1-16.1
				c-6.8-2.2-19.1,0.3-21,8.5c-1.8,7.9,8.6,13.3,15.1,12.1c3.6-0.7,7.9-3,8.6-6.9c0.6-3.4-1.5-7-3.3-9.8c-4.7-7.1-14.4-8-21.4-3.6
				c-7.1,4.4-5.9,13,1.8,16c7,2.7,19.4,2.2,24.6-4.1c5.6-6.7-1.2-13.6-8.1-14.8c-4.4-0.8-9.4-0.6-13.6,0.8c-3.3,1-8.8,3.9-7.9,8.2
				c0.9,4.1,7.3,5.7,10.7,6.2c5.7,0.9,11.4-0.1,16.7-2.4c2.7-1.1,6.5-4.7,2.8-7c-6.8-4.3-14.7-6.7-22.7-6.8
				c-7.5-0.1-17.5,1.1-22.7,7.2c-6.2,7.2,3.5,12,9.7,13.4c6.9,1.5,17.4-1.2,19.8-8.7c2.5-7.6-6.3-10.5-12.2-10.4
				c-7.1,0.1-15.4,3.2-19.1,9.6c-3.1,5.3-1.1,12.3,4.4,15c6.4,3.2,15.8,0.1,19.8-5.6c4-5.8,1.6-12.8-4.1-16.2
				c-7.3-4.4-17-2.6-24.3,0.9c-5.8,2.8-12.3,8.8-7.7,15.6c4.4,6.6,14.2,5.7,20.6,2.8c6.2-2.8,12.5-9.4,7.2-16
				c-5.2-6.3-13.9-7.9-21.4-5.5c-6.2,2-13.3,7.8-10.6,15c2.8,7.7,12.4,7.2,18.6,4.4c5.9-2.7,14.1-10.5,8.4-17.2
				c-5-5.9-18.1-3.5-20.5,3.9c-3.1,9.6,9.7,10.9,15.8,8.3c7.4-3.2,11.1-11.8,4.1-17.6c-3.3-2.7-7.9-1.4-11.3,0.5
				c-5.4,3-9.7,6.9-13.6,11.6c-2.3,2.8,1.9,4.6,4.1,4.8c3.6,0.3,7.3-1.3,9.5-4.1c2.6-3.1,5.6-5.4,9.2-7.3c-3.8,0.2-7.5,0.3-11.3,0.5
				c1.7,1.4,1.8,2.5,2.8,4.3c-1,2.9,0.8,2.8,5.2-0.4c-0.4-0.6-0.3-1,0.2-1.4c-1.6,0.8-3.2,1.7-4.8,2.5c-0.9,0.1-1.8,0.2-2.7,0.3
				c0.2,0.4,0.4,0.7,0.6,1.1c-0.1,0.3-0.9,3.2-0.9,3c-0.7,0.6-0.4,0.7,1,0.4c1.4,0.3,1.7,0.2,1-0.4c0-0.3-1-1.6-1-2.1
				c-0.1-0.8-0.1-2.1,0.6-2.7c-1.3,1-0.1,0.7,0.8,1.4c1.5,1.3,4,2.5,4.1,4.8c0.1,2.5-1.5,0.3-1.8-0.8c-0.6-2.2,0.3-3.3,2.5-3.9
				c2.2-0.6,4.2,0.1,5.8,1.7c1.9,1.9,1.4,3.3,1.7,5.6c0.2,1.5-3.1,2.1,1.4,0.7c4.1-1.3,1.4-0.2,1.1-2c-0.4-1.8-1.4-3.1-0.3-5.1
				c0.3-0.5,0.8-1.3,1.4-1.4c0.7-0.2,1.3,0.4,1.8,0.7c-0.1,1.3,0.3,1.6,1.1,1c1-0.2,1-0.5-0.2-0.7c-1.1-1.4-5.5-1.2-2.3-2.1
				c2.1-0.6,4.7-0.4,6.8-0.2c4.9,0.5,9.4,2.5,13.6,5.1c0.9-2.3,1.8-4.7,2.8-7c-2.8,1.2-5.6,0-7.9-1.7c0.5,0.6,1,1.2,1.5,1.8
				c-5.4,1.9-6.5,2.7-3.3,2.3c0.4,0,0.8,0,1.1,0c1.4,0.2,2.4,0.4,3.3,1.5c0.4,0.5,0.6,1,0.7,1.6c0.1,1.4,1.2,1.3,3.1-0.4
				c-0.7-0.5-4.2,0.1-5.1-0.4c-1-0.5-1.7-3-2.1-3.1c-1.5,0.5-2.9,1-4.4,1.5c0.8,0.5,1.4,1.2,2,2c0.8,0.9,1.4,2.1,1.9,3.2
				c0.9,1.8,0.2,3.3,2.3,2.1c2.4-0.7,4.9-1.3,7.3-2c1.1,0.5,0.9,0.3-0.4-0.5c-0.7-0.6-1.4-1.2-2-1.9c-0.2-0.4-0.5-0.8-0.7-1.3
				c0.4-2.2-0.6-2.2-3-0.1c0.4,1.7,8.8,4,6.9,7.2c3.2-1.4,6.4-2.7,9.5-4.1c-2.2,0-4.1-0.7-4.9-2.9c-0.4-0.9-0.4-1.8-0.2-2.7
				c-2.8,0.1-3.4,0.5-1.9,1.1c0.6,1.3,8.8,5.6,6.9,8.1c1.3-1,2.6-2,3.8-3c-0.4,0.2-0.8,0.3-1.2,0.5c1.9-0.4,3.8-0.7,5.7-1.1
				c-1.5-0.2-0.8-4.3-1.3-5.3c-4.5-0.1-6,0.5-4.4,1.7c0.1,0.3,0.3,0.5,0.4,0.8c-0.7,2.6,1.2,2.6,5.6-0.3c-0.3-0.4-0.5-0.8-0.5-1.3
				c-0.1-0.5-0.1-1,0.1-1.5c-5.4,0.2-6.8,0.8-4.4,1.8c1.1,1.1,3,1.9,4.2,3.1c2.7,2.5,5,5.4,6.7,8.6c3.9-2,7.7-4.1,11.6-6.1
				c-1.4-0.5-2.9-1-4.1-1.7c-2-1.3-2.1-2.7-3.5-4.3c-0.3-2.4-2.2-2.2-5.7,0.7c0.3,0.6,0.6,1.1,0.9,1.6c0.5,1.4,1.7,2,1.8,3.6
				c0.1-0.8,0.3-1.5,0.4-2.3c-0.2,0.2-0.4,0.5-0.5,0.7c1.9-1.2,3.8-2.4,5.7-3.7c3,0.3,3.6-0.1,1.8-1.1c-0.6-0.6-1.1-1.4-1.5-2.2
				c-0.7-1.8-0.6-3.3,0-5c-3.3,1.7-6.7,3.5-10,5.2c2.8,0,3.9,3.1,4.1,5.5c3.9-2,7.7-4.1,11.6-6.1c0.6,0.5,0.6,0.2,0.2-0.9
				c-4.7,1.2-9.3,2.5-14,3.7c3.3,3.7,6.5,7.3,9.8,11c4.1-2.2,8.3-4.4,12.4-6.6c-2.7-1.7-3.7-4.3-4-7.4c-4.6,1.6-9.3,3.3-13.9,4.9
				c3.4,2.9,7,5.7,10.3,8.6c0.6,0.5,1.2,1,1.7,1.6c0.9,0.7,1.3,1.7,1.4,2.8c7.5,0.6,9.9-0.3,7.1-2.8c-0.6-0.7-1.1-1.5-1.4-2.4
				c-4.3,1.9-8.6,3.8-13,5.6c1.7,0.9,3.4,1.9,5.1,2.8c2.8-2.7,5.6-5.4,8.4-8.1c-5.6-0.4-11.3-0.8-16.9-1.2c-3-0.2-7.2,1-9.1,3.5
				c-1.5,2.1-1,4.6,2,5.1c3.3,0.6,6.6,1.2,9.9,1.7c1.1-2.7,2.2-5.5,3.3-8.2c-6.3,1.3-12.8,1.4-19.1,0.4c-1.8,2.9-3.5,5.7-5.3,8.6
				c4.2-0.7,8.4-1.3,12.6-2c2.7-0.4,6.9-1.6,7.9-4.6c0.9-2.7-1.8-4.3-4.3-4.2c-4.7,0.1-8.9-0.5-13.4-2c-2.4,2.9-4.7,5.8-7.1,8.6
				c3.6,0.4,7.3,0.9,10.9,1.3c1.2-2.9,2.4-5.9,3.6-8.8c-9.3,0.3-18.6,0.6-27.9,0.9c-0.6,2.9-1.2,5.8-1.8,8.8
				c2.6-0.5,4.9-0.5,7.5,0.4c1.5-2.6,3.1-5.1,4.6-7.7c-3.7,0.7-7.3,0.3-10.8-0.7c-1.8,2.9-3.5,5.7-5.3,8.6c3.4-0.6,6.9-1.3,10.3-1.9
				c2.7-0.5,6.9-1.6,7.9-4.6c0.9-2.7-1.8-4.2-4.3-4.2c-4.6,0-9.2,0-13.9,0c-1.8,3-3.6,5.9-5.5,8.9c3.5,0,7-0.1,10.5-0.1
				c1.2-2.9,2.4-5.9,3.6-8.8c-13,1.3-25.9,2.5-38.9,3.3c-0.6,2.9-1.2,5.8-1.8,8.8c6.1-0.4,12.3-0.8,18.4-1.2c2.7-0.2,7-1.8,7.9-4.6
				c0.9-2.8-1.8-4.1-4.3-4.2c-6.8-0.4-13.6-0.7-20.5-1.1c-1.8,3-3.6,5.9-5.5,8.9c7.8,0,15.6,0,23.4,0.1c1.2-2.9,2.4-5.9,3.6-8.8
				c-7.1,0.3-14.1,0-21.1-0.7c-3.1-0.3-8,1.1-9.5,4.1c-1.7,3.1,1.4,4.5,4.1,4.8c2.8,0.3,5.5,0.5,8.3,0.8c1.8-3,3.6-5.9,5.5-8.9
				c-9.8-0.8-19.5,0.1-29,2.3c1.3,2.5,2.7,4.9,4,7.4c3.7-1.4,7.1-3.3,10.3-5.5c-3.5-1.3-7-2.6-10.5-3.9c-1.1,1.3-2.1,2.3-3.5,3.3
				c3.1,1.7,6.1,3.3,9.2,5c3.9-2.8,7.5-5.9,10.8-9.4c2.1-2.3,1.5-4.7-1.5-5.7c-3.5-1-7.6,0.6-10.2,2.7c-2,1.6-4.1,2.9-6.4,3.9
				c3.3,1.2,6.5,2.5,9.8,3.7c0.2-0.5,0.9-2.2,1.5-2.5c2.1-1.1,5.8-3.5,3.7-6.3C408.7,341.2,403.1,342.1,400.9,343.2L400.9,343.2z"/>
		</g>
	</g>
	<g>
		<g>
			<path d="M500.6,326.7c12.2,12.4,24.5,24.9,36.7,37.3c3.9,3.9,17.6-1.6,13.4-5.9c-12.2-12.4-24.5-24.9-36.7-37.3
				C510.1,316.8,496.3,322.3,500.6,326.7L500.6,326.7z"/>
		</g>
	</g>
	<g>
		<g>
			<path d="M508.9,323c-1,0-2,0-3,0c-1.9,0-3.9,0.4-5.7,1.1c-1.3,0.5-3.1,1.5-3.9,2.7c-0.5,0.9-0.9,2,0,2.9c1,0.9,2.6,1.2,3.9,1.2
				c1,0,2,0,3,0c1.9,0,3.9-0.4,5.7-1.1c1.3-0.5,3.1-1.5,3.9-2.7c0.5-0.9,0.9-2,0-2.9C511.7,323.3,510.2,323,508.9,323L508.9,323z"/>
		</g>
	</g>
	<g>
		<g>
			<path d="M477.1,329.9c9.6,0,19.2,0,28.7,0c3.1,0,7.9-1,9.6-3.9c1.7-2.8-1.5-4-3.9-4c-4.8,0-9.7,0-14.5,0
				c-1.9,2.6-3.8,5.3-5.7,7.9c1.6,0,3.2,0,4.7,0c3.1,0,7.9-1,9.6-3.9c1.7-2.8-1.5-4-3.9-4c-1.6,0-3.2,0-4.7,0c-3.1,0-7.9,1-9.6,3.9
				c-1.7,2.8,1.5,4,3.9,4c4.8,0,9.7,0,14.5,0c1.9-2.6,3.8-5.3,5.7-7.9c-9.6,0-19.2,0-28.7,0c-3.1,0-7.9,1-9.6,3.9
				C471.6,328.8,474.7,329.9,477.1,329.9L477.1,329.9z"/>
		</g>
	</g>
	<g>
		<g>
			<path d="M502.2,364.2c11.2,0,22.5,0,33.7,0c3.1,0,7.9-1,9.6-4c1.6-2.9-1.4-4.4-4-4.4c-8.1,0-16.2,0-24.2,0c-3.1,0-7.9,1-9.6,4
				c-1.6,2.9,1.4,4.4,4,4.4c5.8,0,11.7,0,17.5,0c3.1,0,7.9-1,9.6-4c1.6-2.9-1.4-4.4-4-4.4c-5.8,0-11.7,0-17.5,0c-3.1,0-7.9,1-9.6,4
				c-1.6,2.9,1.4,4.4,4,4.4c8.1,0,16.2,0,24.2,0c3.1,0,7.9-1,9.6-4c1.6-2.9-1.4-4.4-4-4.4c-11.2,0-22.5,0-33.7,0c-3.1,0-7.9,1-9.6,4
				C496.6,362.7,499.6,364.2,502.2,364.2L502.2,364.2z"/>
		</g>
	</g>
	<g>
		<g>
			<path d="M526.7,347.1c-3.5-3.4-7.1-6.8-10.6-10.1c-4.5,2-8.9,3.9-13.4,5.9c4.6,3.9,9.1,7.9,13.7,11.8c3.8,3.2,17.8-0.9,13.4-5.9
				c-3-3.4-6-6.9-9-10.3c-2.5-2.8-4.8-6.4-7.8-8.5c-5-3.6-14.3-2.9-17.3,3c-0.6,1.2-0.7,2.2,0.1,3.3c5,6.6,10.5,12.7,16.6,18.4
				c3.2,3,15.5,1,13.9-4.9c-1.2-4.7-3.5-8.8-6.8-12.3c-3.6-3.8-17.3,0.6-13.4,5.9c4.8,6.5,10.6,11.9,17.4,16.2
				c3.6,2.3,15.8-1.1,12.4-6.7c-4.9-8.1-12.6-13.5-21.6-16.2c-3.2-1-7.9,0.3-10.2,2.7c-2.2,2.3-1.5,4.8,1.5,5.8
				c7.3,2.2,12.9,7.1,16.9,13.6c4.1-2.2,8.3-4.5,12.4-6.7c-6.1-3.9-11.2-8.8-15.4-14.7c-4.5,2-8.9,3.9-13.4,5.9
				c2.9,3.1,4.6,6.2,5.7,10.3c4.6-1.6,9.3-3.3,13.9-4.9c-6.1-5.7-11.6-11.8-16.6-18.4c0,1.1,0.1,2.2,0.1,3.3
				c0.1-0.3,0.3-0.5,0.4-0.8c-1.3,1-2.6,2-3.8,3c0.3-0.1,0.5-0.2,0.8-0.3c-1.9,0.4-3.8,0.7-5.7,1.1c-0.1,0,2.1,2.8,2.5,3.3
				c1.5,1.7,3,3.4,4.5,5.2c2.8,3.2,5.6,6.4,8.4,9.6c4.5-2,8.9-3.9,13.4-5.9c-4.6-3.9-9.1-7.9-13.7-11.8c-2.6-2.3-6.7-1.8-9.7-0.5
				c-1.8,0.8-6.2,4-3.7,6.4c3.5,3.4,7.1,6.8,10.6,10.1C517.3,356.8,531,351.2,526.7,347.1L526.7,347.1z"/>
		</g>
	</g>
	<g>
		<g>
			<path d="M376.1,365.8c54.7,0,109.3,0,164,0c3,0,7.9-1.1,9.6-3.8c1.7-2.8-1.5-3.8-3.8-3.8c-54.7,0-109.3,0-164,0
				c-3,0-7.9,1.1-9.6,3.8C370.6,364.8,373.8,365.8,376.1,365.8L376.1,365.8z"/>
		</g>
	</g>
	<g>
		<g>
			<path d="M413.1,329.8c30,0,60,0,90,0c3,0,7.9-1.1,9.6-3.8c1.8-2.8-1.5-3.7-3.8-3.7c-30,0-60,0-90,0c-3,0-7.9,1.1-9.6,3.8
				C407.5,328.8,410.8,329.8,413.1,329.8L413.1,329.8z"/>
		</g>
	</g>
	<g>
		<g>
			<path d="M498.5,323.6c-4.3,4.3-8.7,8.7-13,13c-2.3,2.3,2,2.3,3.4,2.2c3-0.3,7.5-1.2,9.7-3.4c4.3-4.3,8.7-8.7,13-13
				c2.3-2.3-2-2.3-3.4-2.2C505.2,320.4,500.7,321.4,498.5,323.6L498.5,323.6z"/>
		</g>
	</g>
	<g>
		<g>
			<path d="M508.7,320.2c-30.6,0-61.2,0-91.7,0c-3.2,1.9-6.3,3.8-9.5,5.6c3.2,0,6.5,0,9.7,0c3.4,0,7.4-0.9,10.2-2.7
				c2.1-1.4,2.2-2.9-0.8-2.9c-3.2,0-6.5,0-9.7,0c-3.4,0-7.4,0.9-10.2,2.7c-2.1,1.4-2.2,2.9,0.8,2.9c30.6,0,61.2,0,91.7,0
				c3.4,0,7.4-0.9,10.2-2.7C511.6,321.7,511.7,320.2,508.7,320.2L508.7,320.2z"/>
		</g>
	</g>
	<g>
		<g>
			<path d="M384,361.9c11.1-11.1,22.2-22.2,33.2-33.2c-4-1.2-8-2.5-12-3.7c-0.7,0.7-1.5,1.5-2.2,2.2c-2.4,2.4-1.2,5.4,1.7,6.5
				c3.4,1.2,7.8-0.3,10.2-2.7c0.7-0.7,1.5-1.5,2.2-2.2c2.4-2.4,1.2-5.4-1.7-6.5c-3.4-1.2-7.8,0.3-10.2,2.7
				c-11.1,11.1-22.2,22.2-33.2,33.2c-2.4,2.4-1.2,5.4,1.7,6.5C377.1,365.8,381.5,364.3,384,361.9L384,361.9z"/>
		</g>
	</g>
	<g>
		<g>
			<path d="M444.2,337.6c-5.3,0-10.5,0.1-15.8,0.1c-5.3,0-12.6,3.8-14,9.2c-1.4,5.2,3.1,9.3,8.3,9.6c6.4,0.3,12.5,1.1,18.6,3
				c4-6,8.1-12,12.1-18.1c-15.5-1.7-31.1-2.1-46.7-1.1c-6.2,0.4-19.1,7.2-13.1,15.1c8.8,11.8,29.4,9,37.9-1.8
				c3.6-4.6,2.7-10.5-3.3-12.5c-4.9-1.6-9.5-2-14.7-2c-0.8,6.3-1.6,12.6-2.4,18.8c9.3-1.2,18.5-2.5,27.8-3.7
				c5.7-0.7,13.6-3.8,14.4-10.4c0.7-6.3-6.9-9.1-12-8.4c-9.3,1.2-18.5,2.5-27.8,3.7c-5.7,0.7-13.6,3.8-14.4,10.4
				c-0.8,6.7,7,8.5,12,8.4c0.6,0,1.3,0.3,2,0.5c-1.1-4.2-2.2-8.3-3.3-12.5c-2.1,2.6,4-2.3,6.5-1.9c1.8,0.3,2.3,1.1,1.2-0.3
				c-4.4,5-8.8,10.1-13.1,15.1c13.4-0.9,26.6-0.5,40,1c5.8,0.6,13-1.7,16.2-6.8c2.8-4.4,1.3-9.7-4.1-11.3c-8-2.4-16.2-3.9-24.6-4.3
				c-1.9,6.3-3.8,12.5-5.7,18.8c5.3,0,10.5-0.1,15.8-0.1c5.6-0.1,13.7-4.3,14.4-10.4C457,339.2,449.2,337.5,444.2,337.6L444.2,337.6
				z"/>
		</g>
	</g>
	<g>
		<g>
			<path class="st1" d="M336.5,174.8c56.7,0,113.3,0,170,0c1.1,0,2.6-1.6,0.9-1.6c-56.7,0-113.3,0-170,0
				C336.4,173.2,334.9,174.8,336.5,174.8L336.5,174.8z"/>
		</g>
	</g>
	<g>
		<g>
			<path class="st1" d="M339.9,188c52,0,104,0,156,0c1.4,0,1.9-1.9,0.2-1.9c-52,0-104,0-156,0C338.6,186,338.2,188,339.9,188
				L339.9,188z"/>
		</g>
	</g>
	<g>
		<g>
			<path class="st1" d="M339.9,200.9c50.7,0,101.3,0,152,0c1.4,0,1.9-1.7,0.2-1.7c-50.7,0-101.3,0-152,0
				C338.7,199.1,338.2,200.9,339.9,200.9L339.9,200.9z"/>
		</g>
	</g>
	<g>
		<g>
			<path class="st1" d="M340.5,214.7c46.3,0,92.7,0,139,0c0.9,0,2.6-1.3,1-1.3c-46.3,0-92.7,0-139,0
				C340.6,213.3,338.9,214.7,340.5,214.7L340.5,214.7z"/>
		</g>
	</g>
	<g>
		<g>
			<path class="st1" d="M343.5,226.7c49.1,0,98.2,0,147.2,0c0.9,0,2.6-1.4,1-1.4c-2.7,0-5.5,0-8.2,0c-0.9,0-2.6,1.4-1,1.4
				c2.7,0,5.5,0,8.2,0c0.9,0,2.6-1.4,1-1.4c-49.1,0-98.2,0-147.2,0C343.5,225.3,341.9,226.7,343.5,226.7L343.5,226.7z"/>
		</g>
	</g>
	<g>
		<g>
			<path class="st1" d="M339.9,238.9c52,0,104,0,156,0c1.4,0,1.9-1.8,0.2-1.8c-52,0-104,0-156,0
				C338.7,237.1,338.2,238.9,339.9,238.9L339.9,238.9z"/>
		</g>
	</g>
	<g>
		<g>
			<path class="st1" d="M336.5,252.7c50.3,0,100.7,0,151,0c0.9,0,2.6-1.4,1-1.4c-50.3,0-100.7,0-151,0
				C336.5,251.3,334.9,252.7,336.5,252.7L336.5,252.7z"/>
		</g>
	</g>
	<g>
		<g>
			<path class="st1" d="M341.9,262.9c54,0,108,0,162,0c1.4,0,1.9-1.7,0.2-1.7c-54,0-108,0-162,0
				C340.8,261.1,340.2,262.9,341.9,262.9L341.9,262.9z"/>
		</g>
	</g>
	<g>
		<g>
			<path class="st1" d="M335.2,275.5c55,0,110,0,165,0c0.5,0,2.8-1,1.6-1c-55,0-110,0-165,0C336.3,274.5,334,275.5,335.2,275.5
				L335.2,275.5z"/>
		</g>
	</g>
	<g>
		<g>
			<path class="st1" d="M339.6,282.8c54,0,108,0,162,0c1.1,0,2.5-1.7,0.9-1.7c-54,0-108,0-162,0
				C339.3,281.2,337.9,282.8,339.6,282.8L339.6,282.8z"/>
		</g>
	</g>
	<g>
		<g>
			<path class="st1" d="M518.5,224c10.1,1.1,19.7-2.2,27-9.2c1.3-1.2-1.5-1.7-2.4-0.8c-6.4,6.1-14.8,9-23.6,8
				C518.1,221.8,516.5,223.8,518.5,224L518.5,224z"/>
		</g>
	</g>
	<g>
		<g>
			<path class="st1" d="M553.8,214.4c6.3,5,13.5,8.1,21.4,9.3c0.9,0.1,3.4-1.3,1.8-1.6c-7.6-1.2-14.4-4.2-20.4-8.9
				C555.6,212.7,553,213.8,553.8,214.4L553.8,214.4z"/>
		</g>
	</g>
	<g>
		<g>
			<path class="st1" d="M517.6,230.3c-1.1,2-6,12.8-0.6,12.5c5.1-0.2,6.4-7.2,5.2-11.1c-0.2-0.8-3.1,0-2.9,0.8
				c0.6,1.8,0.7,3.6,0.2,5.4c-0.2,0.9-0.6,1.7-1.1,2.5c-0.6,0.9-0.7,1.4-0.8,0.1c-0.2-3.7,1.2-7.4,2.9-10.7
				C520.8,229.3,518,229.5,517.6,230.3L517.6,230.3z"/>
		</g>
	</g>
	<g>
		<g>
			<path class="st1" d="M534.7,247.2c6.1-11.2,20.5-11.2,27.5-0.9c0.5,0.8,3.4-0.1,2.7-1.1c-8.1-12.1-26-10.6-32.8,2
				C531.3,248.3,534.2,248,534.7,247.2L534.7,247.2z"/>
		</g>
	</g>
</g>
</svg>
