<?xml version="1.0" encoding="utf-8"?>
<!-- Generator: Adobe Illustrator 22.1.0, SVG Export Plug-In . SVG Version: 6.00 Build 0)  -->
<svg version="1.1" 
	 xmlns="http://www.w3.org/2000/svg" xmlns:xlink="http://www.w3.org/1999/xlink" x="0px" y="0px" viewBox="0 0 841.9 595.3"
	 style="enable-background:new 0 0 841.9 595.3;" xml:space="preserve">
<style type="text/css">
	.st0{fill:#FFFFFF;}
	.st1{fill:#FF0000;}
</style>
<metadata>
	<sfw>
		<slices></slices>
		<sliceSourceBounds  bottomLeftOrigin="true" height="488" width="203.5" x="312.2" y="-490.8"></sliceSourceBounds>
	</sfw>
</metadata>
<g id="Слой_2">
	<g>
		<g>
			<path class="st0" d="M400.8,79.6c-9.6-2.1-19.3,0.9-27,6.9c-6.5,5-18.8,16.4-12.8,25.3c5.5,8.1,16.5,6.2,24.2,3
				c8.4-3.4,20.2-9.6,24.2-18.3c4.5-9.9-8.2-13.8-15.6-12.9c-8.7,1-19.9,6.1-25,13.5c-5.2,7.5-2,16.4,7,18.2
				c8.4,1.7,17.5-1.9,24.4-6.4c6.9-4.4,15-11.1,8.8-19.5c-5.5-7.4-15.7-11-24.6-11.1c-8.1-0.1-16.9,2.6-22.8,8.5
				c-6.9,6.8-6.3,17,2.6,21.9c8.3,4.5,18.5,1.3,26.4-2.6c6.4-3.2,20.5-10.3,18.6-19.2c-2-9.3-13.5-9.4-20.7-7.2
				c-8.5,2.7-15.8,9.1-19.6,17.1c-2.7,5.8-5.8,20.5,5.2,18.8c5.2-0.8,10.4-5,14.2-8.4c4.1-3.6,8.1-7.9,10.4-13
				c3.8-8.5,0.2-18.6-10.5-16.8c-11.3,1.9-14.3,13-15.8,22.7c-0.2,1,2.7,0.4,2.9-0.4c1-6.5,2.2-14.5,7.8-18.8
				c4.3-3.3,10.8-3,13.5,1.9c1.7,3.2,1.1,7.1-0.1,10.4c-2.2,6-7.3,11.2-12.2,15.2c-3.2,2.5-11.3,9-14.3,3.2
				c-1.3-2.5-0.9-5.9-0.4-8.6c1.3-6.3,4.7-12.2,9.6-16.5c6.1-5.4,18.1-10.6,24.8-3.4c6.1,6.6-0.5,12.7-5.9,16.7
				c-7.1,5.2-16.9,10.7-26,9.3c-6.7-1-13.3-6.9-12.4-14.2c1.2-8.5,10.7-13.6,18.3-14.8c6.2-1,12.8-0.1,18.5,2.6
				c5.2,2.4,13.8,8.5,12,15.4c-1.7,6.3-10.9,11.2-16.5,13.6c-6.2,2.7-16,4.6-20.9-1.7c-4.9-6.4,0.3-14.2,5.7-18
				c7.2-5.2,19.5-10.8,27.6-4.6c9,6.9-2.9,16.3-8.6,20.2c-7.7,5.3-21.4,13-29.8,5.4c-7.4-6.7-0.6-15,4.5-20.7
				c7.4-8.1,17.5-13.7,28.7-11.2C399.8,81.2,402.4,80,400.8,79.6L400.8,79.6z"/>
		</g>
	</g>
	<g>
		<g>
			<path class="st0" d="M387.5,95.4c2.1-2.1,4.8-4.9,2.9-8c-1.7-2.7-5.7-2.5-8.4-1.8c-7.8,2.1-10,12.1-10.1,19.1
				c-0.3,17.6,26.8,6.2,33.2-0.3c10.8-11,7.5-30.5-8.9-33.4c-15.6-2.8-28.5,10.2-27.2,25.6c1.5,18.4,24.8,12.4,34.9,5.6
				c5.5-3.7,12.3-10.2,10.7-17.6c-1.4-6.6-8.6-9.1-14.5-9.8c-13.8-1.7-34.5,2.8-39,18.3c-2,6.8,1.2,14.3,7.7,17.3
				c7.7,3.5,15.8-0.7,22.8-3.8c6.2-2.8,14.8-7.1,14.5-15.1c-0.3-7.4-8.6-10.3-14.9-10.6c-7.5-0.4-16,0.9-22.3,5
				c-5.8,3.8-8,10.7-3.4,16.5c9.7,12.3,31.9,8.5,42.8,0.1c5.2-4,10.1-11.4,6.4-18c-3.3-5.8-10.9-6.9-16.9-6.4
				c-7.1,0.6-15.1,3.5-19.9,9.1c-4.5,5.3-5,13.8,1.6,17.7c12.6,7.5,28.7-4.1,28.2-17.9c-0.1-1.3-1.1-4.9-0.3-6
				c0.3-0.4-1.6,0.7,0.2,0c0.7-0.3,1.8,0.2,2.5,0.4c3.5,0.9,6.8,3.6,7.3,7.4c0.5,3.9-2,7.9-5.5,9.5c-2.2,1-3.4,0.9-4.3-1.6
				c-0.9-2.5-1.2-5.7-1-8.3c0.2-2.8,1.9-9.6,5.4-10.3c4.6-0.9,7.5,5.8,6.8,9.2c-1,5.1-5.4,7.1-10.1,7.7c-5.2,0.7-7.8-1-8.6-6.4
				c-0.7-4.5-0.5-10.1,4-12.5c4.3-2.4,11.2-2.5,13.6,2.6c1.7,3.6-0.3,7.3-4.3,6.1c-3.4-1-5.7-7-2-9.4c2.7-1.7,8.6,2.7,10.3,4.9
				c1.6,2,1.6,3.6,1.6,6c0,1.8-1.7,1.1-0.1,0.8c-1.2,0.2-2.9-0.3-4-0.6c-2.1-0.7-4.1-2-4.7-4.2c-0.1-0.4-0.4-2.7,0.3-3.3
				c-0.7,0.6-0.4,0.2,0.5,0.4c4,1.1,7.2,5.5,7.9,9.5c0.3,1.9,0.1,4-0.6,5.8c-0.4,1-0.9,1.8-1.5,2.7c-1.4,2.1-0.2,0.4-0.2,0.1
				c-0.3-1.9-1.1-2.9-0.7-4.9c0.6-2.5,2.4-4.9,3.9-6.9c0.6-0.8,1.4-2.1,2.2-2.6c0.8-0.6,1.1-0.6,0.8-0.7c1.5,0.4,2.8,2.9,3.2,4.3
				c0.6,2.2,0.3,4.3-0.6,6.4c-0.3,0.8-0.9,1.4-1.2,2.2c-1.2,0.8-1.3,1.2-0.4,1.3c0.9,0.4,0.8,0-0.1-1.2c-0.3-2.2-0.7-9,0.9-9.3
				c-0.3,0.1,2.3,1.8,2.8,2.5c1.3,1.7,1.6,4.2,1.3,6.2c-0.6,3.9-3,7-7.2,6.2c-0.7-0.1-2.4-1.1-3.2-1.2c-0.8-0.1-5,0.1-0.6,0.5
				c2.6,0.2,5.9-0.6,1.1,0.7c-9.4,2.6-19.3,1.5-28.3-2c-2.7,1.9-5.5,3.8-8.2,5.8c2.9,0.6,4.6,2.3,6.1,4.7c0.6-1.3,1.2-2.5,1.8-3.8
				c-1.1,0.6-2.3,0.8-3.6,0.6c-1.8,0-11.8,3.4-6.9,5.9c5.1,2.6,11.3,2.3,16.9,2.4c6.2,0.1,12.5-0.2,18.6-1.6
				c10.1-2.4,20.5-8.2,24.7-18.2c4.2-9.6-0.6-20-9.3-25.2c-10.3-6.2-23.7-3.5-33.7,2c-3.2,1.7-2.5,5,1.3,4.7c5-0.3,10-0.6,15-0.9
				c4.7-0.3,10-0.8,14.2,1.7c9.3,5.6,3.8,17.3-5.3,18.7c-9.7,1.6-20.2,0.8-30,1c-5.1,0.1-10.2,0.2-15.3,0.4c-2,0-5.2,0.7-5.4-1.8
				c-0.2-2.4,3.3-4.9,5.1-5.6c-2.3-1-4.6-2.1-6.9-3.1c-5.2,4.8-12.3,12.5-7.6,20c4.4,7,17.7,6.1,24.7,5.5c1.9-0.2,6.3-1.5,6.6-3.8
				c0.4-2.6-3.4-2.4-5-2.3c-4.6,0.4-13.9,0.9-15.7-4.4c-1.9-5.4,2.6-9.8,6.2-13.2c4.6-4.3-4.6-4-6.9-3.1c-4.7,2-12.6,6.8-12.4,12.8
				c0.3,6.3,9.3,5.5,13.5,5.4c8.3-0.2,16.5-0.4,24.8-0.6c8-0.2,16.2,0.1,24.1-1.3c10.1-1.8,27.2-11.1,20.7-24
				c-6.7-13.3-28.5-8.4-40-7.7c0.4,1.6,0.8,3.2,1.3,4.7c13.8-7.5,31.3,7,24.2,21.8c-3,6.2-8.8,9.9-15.5,11.1
				c-3.8,0.7-7.8,0.7-11.6,0.6c-4-0.1-8.6,0.3-12.2-1.5c-2.3,2-4.6,3.9-6.9,5.9c5.5,0.1,10.4-1.2,15.3-3.7c1.5-0.7,2.8-2.2,1.8-3.8
				c-2.3-3.6-5.6-5.5-9.7-6.3c-2.4-0.5-5.7,0.3-7.7,1.8c-1.2,0.9-2.9,3-0.5,3.9c10,3.9,20.8,5.2,31.4,3.6c3.5-0.5,25-4.7,19.4-12.2
				c-2.2-2.9-8.7-2-11.6-2c-4.2,0.1-9.4,1.1-12.4,4.3c-7.4,7.9,10.7,9.6,15.1,8.9c8.2-1.3,17.1-6.6,17.4-15.8
				c0.3-8.5-7.6-12.3-15.2-11.3c-8.4,1.1-14.1,6.7-13.6,15.4c0.6,10.4,12.6,9.4,19,4.5c6.3-4.9,10.7-15.1,3.8-21.4
				c-6.6-6-17.3-1.6-22.6,3.9c-4.4,4.6-12.5,15.6-4.4,20.8c7.2,4.6,18.1-1.3,21.6-8c4-7.8,0.3-16.9-7.4-20.7
				c-6.5-3.2-17.5-2-21.9,4.4c-6.2,8.9,6.4,13.9,13.2,14.4c7.7,0.6,20.6-2.9,17.6-13.3c-4.5-15.8-39.1-14.9-36.7,3.5
				c2.2,16.8,41,5.5,30.1-9.8c-5.8-8.1-18.6-5.8-26.6-2.9c-9.6,3.6-14.6,10.5-13.1,20.9c1.5,10.5,11.7,10.6,20.3,9.2
				c8.7-1.4,20.2-5.8,21.7-15.8c1.4-9.2-8.3-14-16.2-13.2c-8.7,0.9-17,6.8-19,15.6c-1,4.2-0.8,9.9,1.1,13.8c2,4.1,6.6,4.6,10.7,4.1
				c7.9-0.9,17.5-5.4,20.8-13.1c3.4-7.9-2.3-14.6-9.7-16.7c-6.4-1.8-18.8-1.4-22,5.8c-1.7,3.9,0.4,8.7-0.6,12.8
				c-0.9,4-3.3,8.6-7.4,4.7c-8.4-8,7.7-20.4,14.7-11.5c3.2,4.1,0.8,9.5-2.6,12.5c-4.2,3.7-10.2,4.6-15.5,3.3
				c-4.4-1.1-9.8-4.5-10.1-9.6c-0.4-5.9,6.1-6.4,10.4-6.4c4.7,0,11,3,9.4,8.7c-0.8,2.8-3.1,4.3-5.5,5.5c-2.2,1.1-6.2,3.6-8.6,3.8
				c-5.1,0.5-8.3-6.7-8-11c0.4-5.2,4-9.8,8.7-11.9c6.6-2.8,24.8-3,22,8.6c-1.9,8-17.1,17.6-21.4,6.6c-2.7-6.9,0.9-24.6,11.1-19.3
				c9.5,4.9,9.3,18.7,2.2,25.5c-2.6,2.5-9.1,6.6-11.1,1.3c-1.2-3.4,0.5-13.5,3.6-15.8c-2.3,0.8-4.6,1.5-6.9,2.3c0.3,0,0.7,0,1,0
				c-1-0.3-2.1-0.6-3.1-0.9c1.5,0.7,1.5,1.7-0.1,3.1C373.6,98.4,384.9,98,387.5,95.4L387.5,95.4z"/>
		</g>
	</g>
</g>
<g id="Слой_1">
	<g>
		<g>
			<path d="M393.1,42.3c17.1,109.3,29.4,219.3,36.7,329.7c2.1,31.1,3.7,62.2,5,93.4c0,0.9,2.9,0.3,2.9-0.8
				c-4.6-110.5-14-220.8-28.4-330.5c-4.1-30.9-8.5-61.8-13.3-92.6C395.8,40.6,392.9,41.3,393.1,42.3L393.1,42.3z"/>
		</g>
	</g>
	<g>
		<g>
			<path d="M388.6,42.8c5.9,57.9,11.7,115.7,17.6,173.6c5.8,57.6,12.5,115.1,16.6,172.8c2.3,32.3,3.5,64.7,2.5,97.1
				c-0.3,8.1,20,3.9,20.3-2.6c1.9-57.7-3.2-115.3-8.9-172.7c-5.8-58.2-11.8-116.3-17.7-174.4c-3.3-33.1-6.7-66.1-10-99.2
				C408.2,31,387.8,35.4,388.6,42.8L388.6,42.8z"/>
		</g>
	</g>
	<g>
		<g>
			<path class="st1" d="M462.2,78.6c5.5-10-14.5-17.3-21.2-18.7c-12.2-2.6-25.1-1.6-37.2,0.7c-12.7,2.4-25.3,6.2-36.3,13
				c-9.8,6-20,15.7-20.7,27.9c-0.8,13,9.8,19.2,21.4,20c14.1,1,28.7-1.3,42.4-4.3c13.2-2.8,28-5.4,39.5-12.8
				c10-6.4,15-18.2,8.7-29.2c-6.7-11.6-20.7-15.8-33.4-15.5c-14.8,0.3-29.9,5.7-40.9,15.7c-3.5,3.2,3,3.8,4.9,3.7
				c4.6-0.3,10.1-1.8,13.5-4.9c4.8-4.4,9.6-6.5,16.1-5.6c8.1,1.1,16.5,5.8,20.1,13.4c3.4,7.2,2.7,17.1-4.8,21.4
				c-6.2,3.5-14.8,4.5-21.6,6c-9.6,2.1-19.4,3.7-29.3,3.4c-8.4-0.2-15-3.8-16.4-12.7c-2.6-17.1,16.9-28.3,31-31.3
				c8-1.7,16.6-2.6,24.7-1.2c4.7,0.8,23.4,6.7,19.3,14.3c-1.9,3.4,7.1,2.5,8.2,2.3C454.1,83.7,460.2,82.2,462.2,78.6L462.2,78.6z"/>
		</g>
	</g>
	<g>
		<g>
			<path d="M352.5,67.6c2.6-7.8,5.1-16.7-0.1-24c-4.2-5.8-11.6-6.8-17.9-4.1c-7,2.9-10.4,9.2-12.4,16.2c-2.2,7.7-4.3,17.2-0.1,24.6
				c3.4,6.1,9.9,9.3,16.7,7.8c6.8-1.5,11.5-7.4,14.8-13.2c3.6-6.2,5.6-13.8,2-20.6c-2.9-5.5-8.6-8.5-14.3-5c-0.7,0.5-2,1.4-1.6,2.5
				c0.1,0.2,0.1,0.3,0.2,0.5c0.9,3.1,9.6,0.7,8.7-2.3c-0.1-0.2-0.1-0.3-0.2-0.5c-0.5,0.8-1.1,1.6-1.6,2.5c0.2-0.1,0.5-0.3,0.7-0.4
				c-1.5,0.4-2.9,0.8-4.4,1.2c3,0,5.2,6.8,5.6,9c0.7,4.6-0.9,9.1-3.1,13c-2,3.4-5.6,10.2-10.2,7.9c-4.1-2-6.1-6.9-6.6-11.1
				c-0.8-5.9,1.7-28.6,10.6-28.3c4.2,0.1,6.9,6.5,7.4,9.9c0.8,5.3-1.1,10.7-2.8,15.7C342.9,71.6,351.6,70.5,352.5,67.6L352.5,67.6z"
				/>
		</g>
	</g>
	<g>
		<g>
			<path d="M449.8,38.8c0.5,5,1.1,10,1.6,15c0.4,3.7,0.5,7.6,1.6,11.1c2,6,7,9,13.3,8.3c13.6-1.5,24-15.7,23.2-28.8
				c-0.7-12.4-12.4-28.1-26.3-21.3c-11.6,5.6-15.3,24.3-7.3,34c2.5,3.1,10.8-0.4,8-3.9c-5.1-6.2-4.5-18.5,1.9-23.9
				c4.4-3.7,9.6,2.5,11.8,6.1c2.5,4.1,3.5,9.1,3.1,13.8c-0.4,4.2-2.1,8.3-4.9,11.5c-2.5,3-9,8.7-12.6,4.6c-2.6-2.9-2.4-8.4-2.8-12
				c-0.6-5.6-1.2-11.2-1.8-16.8C458,32.4,449.3,34.6,449.8,38.8L449.8,38.8z"/>
		</g>
	</g>
	<g>
		<g>
			<path class="st0" d="M335.9,59.4c0.1,0,0.3,0,0.4,0c2,0.2,5.4-0.9,6-3.1c0.3-1.1,0.2-1.6-0.6-2.3c-1.6-1.7-5.1-0.8-6.8,0.3
				c-6.1,4-3.6,16.3-2.4,22.4c0.7,3.4,7.3,0.7,8.4-1c5.8-8.6,6.1-19.2,1.1-28.2c-0.8,1.2-1.5,2.5-2.3,3.7c-2.9,1.1-1.3,1.5-0.7,3.5
				c0.4,1.3,0.5,2.7,0.6,4.1c0.2,3.3-0.1,6.6-0.8,9.8c-0.3,1.1-0.6,2.3-1,3.4c-1.2,3.5,0,2.3-0.3,1.4c-1.4-3.3-0.6-6.5,0.1-9.9
				c0.5-2.5,1.4-5.2,1.6-7.8c0.2-3.2-0.5-1.1-0.9,0c-0.3,1.1,0.2,3.2,0.1,4.6c-0.2,2.9-0.7,5.8-1.4,8.6c-0.3,1.1-0.6,2.3-0.9,3.4
				c-0.2,0.9-0.5,1.8-1,2.6c-1,1.7-0.2,1.5,2.4-0.5c-0.3-3.5-8-0.6-8.7,1.7c-1,3.2,0.4,5.8,3.2,7.4c2.3,1.3,6.1,0,7.5-2
				c4.4-6.3,6.9-13.6,6.8-21.2c-0.1-6.2-1.9-13.2-9.7-11.6c-7.3,1.5-7.8,9.9-8.1,16.1c-0.3,6.1-0.4,13.6,7.5,13.1
				c-1.2-0.9-2.4-1.9-3.5-2.8c-0.2,0.2-0.4,0.4-0.5,0.7c0.8-0.6,1.5-1.2,2.3-1.8c3.3-1.3,1.5-2.7,1.1-5.5c-0.2-1.9-0.2-3.7,0.1-5.6
				c0.2-1.5,0.6-3.1,1.1-4.6c0.2-0.7,3.1-5.3,1.7-5.3c-1-0.1-1.9-0.3-2.9-0.4c3.7,1.8,4.5,7.7,4.2,11.3c-0.2,4-1.8,7.4-4.3,10.5
				c-1.4,1.7,1.2,2.7,2.4,2.8c2.1,0.2,4.4-0.8,5.7-2.4c4.7-5.8,6.4-14,3.5-21c-2.8-6.7-10.1-8.1-14.9-2.4c-4.9,5.8-7,15.1-4.8,22.5
				c1.9,6.3,9.5,6.3,13.3,1.5c1.8-2.3-2.4-2.9-3.5-2.8c-0.4,0-0.7,0-1.1,0.1c1,0.1,1.9,0.3,2.9,0.4c-2.9-1.8-1.8-8.3-1.5-11.1
				c0.3-3.2,0.5-7.6,2.4-10.2c-0.8,0.6-1.5,1.2-2.3,1.8c-1.3,0.7,0.1,6.2,0.1,7.3c0.1,2.5-0.1,5-0.6,7.5c-0.9,4.7-2.9,8.8-5.6,12.7
				c2.5-0.7,5-1.3,7.5-2c-1.7-1-1.8-2.4-1.3-4c-2.9,0.6-5.8,1.1-8.7,1.7c0.4,5.6,8.9,4.2,11.9,1.8c5.1-4,6-13.2,6.4-19.1
				c0.4-5.5-0.6-11.4-7.3-11.4c-7.3,0.1-8.8,6.1-10.1,12.1c-1.2,5.7-4.5,14.9,1.8,18.7c4.7,2.8,11.1,0.2,13.6-4.3
				c4.5-8.1,6.8-33.1-8.9-27.2c-1.5,0.6-3.2,2-2.3,3.7c4.3,7.7,3.7,17.1-1.2,24.4c2.8-0.3,5.6-0.7,8.4-1c-1.2-5.8-2-12.7-0.1-18.5
				c-0.5,0.6-1.1,1.3-1.6,1.9c0.3-0.2,0.6-0.4,0.9-0.6c-2.3,0.1-4.5,0.2-6.8,0.3c0-0.1-0.1-0.1-0.1-0.2c2-1,4-2.1,6-3.1
				c-0.1,0-0.3,0-0.4,0C335.7,53.7,330.1,58.7,335.9,59.4L335.9,59.4z"/>
		</g>
	</g>
	<g>
		<g>
			<path class="st0" d="M461.2,38.4c-1.1,6.1-1.9,21.8,6.7,23c9.1,1.3,11.6-10.4,11.7-17.1c0.1-7.1-4.9-15.2-12.8-10.7
				c-3.7,2.1-3.8,6.5-4.1,10.4c-0.4,5.9,0.1,11.7,1.3,17.5c0.6,2.8,6.7,0.8,7.8-0.5c7.7-8.2,9-20.1,2.5-29.4c-1.5-2.1-9,0-8.4,2.9
				c1.6,7.1,2.9,14.2,0.2,21.2c2.9-0.6,5.8-1.1,8.7-1.7c-0.5-5.3-1-10.5-1.5-15.8c-0.3-2.9-8.7-0.8-8.7,2.3c0,5.1,0.1,10.1,0.1,15.2
				c0,2.7,8.7,1,8.7-2.3c0-5.4,0-10.9,0-16.3c0-2.6-8.7-1-8.7,1.7c0,4.4-0.1,8.7-0.1,13.1c2.9-0.6,5.8-1.1,8.7-1.7
				c-0.8-2.4-1.6-4.9-2.4-7.3c-0.9-2.8-7.4-0.9-8.4,1.1c-2.2,4.6-5.7,13.9-1.4,18.5c3.5,3.7,10,1.7,13.3-1.2
				c8.1-7.1,8.4-24.3,0-31.1c-2.5,1.3-5,2.5-7.5,3.8c5.5,3.3,7.8,10.7,5.5,16.6c-0.2,0.7-0.6,1.4-1,2c-1.1,1.3-0.9,1.3,0.7,0.1
				c0-1.5-0.6-3.1-0.6-4.7c0-2.3,0.2-4.6,0.3-6.9c0-0.6,0.7-6.9-0.6-6.4c-1.5,0.2-2.9,0.4-4.4,0.6c1,1.4,1.2,2.8,0.6,4.2
				c-0.8,3.2,8,1.8,8.7-1.1c0.9-3.5,0.5-6.7-3.5-7.7c-3.1-0.7-7.5,0.7-8.9,3.7c-0.9,2-0.6,4.7-0.7,6.8c-0.1,2.9-0.4,5.9-0.4,8.8
				c0,3.1,0.4,6.7,3.5,8.1c6.6,3.1,13.6-4,15.2-9.8c2-7.3-1.2-14.8-7.6-18.6c-2-1.2-10,1.8-7.5,3.8c5.6,4.5,6,11.8,4.6,18.5
				c-0.3,1.3-0.6,2.7-1.1,4c-0.4,1.1-0.9,2.1-1.6,3c1.3,0.3,1.4-0.2,0.1-1.6c-0.1-4.9,0-8.8,2.2-13.3c-2.8,0.4-5.6,0.7-8.4,1.1
				c0.8,2.4,1.6,4.9,2.4,7.3c0.9,2.7,8.7,0.9,8.7-1.7c0-4.4,0.1-8.7,0.1-13.1c-2.9,0.6-5.8,1.1-8.7,1.7c0,5.4,0,10.9,0,16.3
				c2.9-0.8,5.8-1.6,8.7-2.3c0-5.1-0.1-10.1-0.1-15.2c-2.9,0.8-5.8,1.6-8.7,2.3c0.5,5.3,1,10.5,1.5,15.8c0.3,3.3,8,0.2,8.7-1.7
				c2.8-7.4,1.4-14.9-0.2-22.4c-2.8,1-5.6,1.9-8.4,2.9c5.1,7.3,4.9,17.9-1.3,24.6c2.6-0.2,5.2-0.3,7.8-0.5
				c-0.9-4.2-1.5-8.5-1.5-12.8c0-2.1,0.1-4.2,0.4-6.3c0.1-1.2,1.4-4.1-0.1-3.5c-1.5,0.2-2.9,0.4-4.4,0.6c3.6,0.8,3.9,7.7,3.6,10.4
				c-0.2,2-1,9.3-2.9,10.3c1.5-0.4,2.9-0.8,4.4-1.2c-1-0.1-2.5-7.8-2.6-8.7c-0.6-3.6-0.4-7,0.2-10.6C470.4,34,461.7,35.4,461.2,38.4
				L461.2,38.4z"/>
		</g>
	</g>
	<g>
		<g>
			<path class="st0" d="M333.8,56.9c-2.7,5.4-3.8,11.1-2.7,17.2c0.5,3.2,8,0.2,8.7-1.7c2-5.3,2.3-10.8,1-16.3
				c-0.7-3.1-8-0.4-8.7,1.7c-1.5,4.7-2.3,9.6-2.5,14.5c-0.1,3.6,7.9,1.4,8.7-1.1c1.4-4.9,2-9.9,1.8-15c-0.1-3-8-0.3-8.7,1.7
				c-1.3,4-3.1,10-1.7,14.2c1.4,4.2,5.5,3.9,9,2.7c1.2-0.4,3.5-1.9,2.4-3.4c-1.1-1.5-4.4-0.5-5.7,0c-0.2,0.1-0.4,0.1-0.6,0.2
				c1.1-0.2,2.3-0.5,3.4-0.7c1.4,0.1,0.1-1.2,0-2.2c-0.2-1.2,0-2.5,0.2-3.7c0.3-2.8,0.9-5.5,1.8-8.2c-2.9,0.6-5.8,1.2-8.7,1.7
				c0.2,4.7-0.4,9.3-1.8,13.8c2.9-0.4,5.8-0.8,8.7-1.1c0.1-5,0.9-9.8,2.5-14.5c-2.9,0.6-5.8,1.2-8.7,1.7c1.2,5.2,0.9,10.2-1,15.1
				c2.9-0.6,5.8-1.2,8.7-1.7c-0.8-5-0.2-10.1,2.1-14.7C343.7,53.4,335.1,54.4,333.8,56.9L333.8,56.9z"/>
		</g>
	</g>
	<g>
		<g>
			<path class="st0" d="M474.3,43.8c0-0.9,0.1-1.8,0.1-2.7c-2.9,0.8-5.8,1.6-8.7,2.3c-0.1,4.2-0.2,8.4-0.3,12.6
				c2.9-0.8,5.8-1.6,8.7-2.3c-0.8-4.7-1.1-9.3-0.8-14.1c-2.9,0.8-5.8,1.6-8.7,2.3c0.5,4.5,0.1,8.8-1.5,13c2.9-0.6,5.8-1.3,8.6-1.9
				c-1.5-4.1-2.1-8.2-1.5-12.5c0.3-2.3-8.1-0.6-8.6,1.5c-1.1,4.9-1.4,9.8-1,14.8c0.2,2.1,8-0.4,8.6-1.9c1.7-3.9,2.9-7.9,3.7-12.1
				c-2.9,0.6-5.8,1.3-8.6,1.9c1.1,4.3,1.6,8.6,1.5,13c0,2.2,7.9-0.7,8.6-1.9c1.7-2.6,2.9-5.3,3.9-8.3c-2.9,0.6-5.8,1.3-8.6,1.9
				c0.1,1.6-0.1,3-0.7,4.5c2.9-0.5,5.7-1,8.6-1.5c0.4-1.3,0.7-2.6,1.1-3.8c-2.9,0.5-5.7,1-8.6,1.5c-0.2,1.2-0.3,2.4-0.5,3.6
				c-0.3,2.3,8.3,0.7,8.6-1.5c0.2-1.2,0.3-2.4,0.5-3.6c0.3-2.3-8-0.6-8.6,1.5c-0.4,1.3-0.7,2.6-1.1,3.8c-0.6,2,7.8,0.7,8.6-1.5
				c0.7-1.8,0.9-3.4,0.8-5.3c-0.1-2-8.1,0.2-8.6,1.9c-1,2.9-2.2,5.7-3.9,8.3c2.9-0.6,5.8-1.3,8.6-1.9c0.1-4.4-0.4-8.7-1.5-13
				c-0.5-2-8.3,0.1-8.6,1.9c-0.8,4.2-2,8.2-3.7,12.1c2.9-0.6,5.8-1.3,8.6-1.9c-0.4-4.7-0.1-9.3,0.9-14c-2.9,0.5-5.7,1-8.6,1.5
				c-0.6,4.6-0.2,9,1.4,13.4c0.8,2.2,8-0.2,8.6-1.9c1.6-4.5,2.2-9.1,1.6-13.9c-0.2-1.9-8.5,0-8.7,2.3c-0.3,4.7,0,9.4,0.8,14.1
				c0.4,2,8.6-0.1,8.7-2.3c0.1-4.2,0.2-8.4,0.3-12.6c0-1.5-8.6-0.3-8.7,2.3c0,0.9-0.1,1.8-0.1,2.7C465.6,47.6,474.3,46.5,474.3,43.8
				L474.3,43.8z"/>
		</g>
	</g>
	<g>
		<g>
			<path class="st0" d="M418.8,86.8c2.9-1.5,5.1-3.4,4.4-7c-0.2-1.1-1.8-1.4-2.7-1.5c-9.6-0.6-18.9,2.7-25.7,9.5
				c-1.9,1.8-0.2,3.3,1.9,3.5c8.3,0.6,18.7-0.5,21.9-9.6c0.4-1.1-0.9-1.8-1.7-2c-8.8-2.3-16.3,3-22.2,8.9c-2.4,2.4,0.8,3.6,3,3.4
				c8-0.6,14.8-5,18-12.5c0.6-1.5-1.9-2-2.7-2.1c-7.4-1-14.7,2.2-19,8.2c-1.7,2.3,2.2,2.8,3.5,2.8c3.9-0.2,20.8-4.1,16.5-11
				c-1.6-2.5-5.5-2.5-8-1.8c-4,1.1-6,4-7.5,7.7c-1.2,2.9,5.2,1.8,6.1,1.5c3.3-1.3,5.9-3.3,7.6-6.4c2.2-4.1-6.5-2.4-8.1-0.4
				c-0.9,1.1-1.8,2.2-2.7,3.4c-2.7,3.4,5.6,2.4,6.8,1.6c1.8-1.1,4.7-3.5,2.6-5.7c-2-2.1-5.9-0.5-7.9,0.5c-0.9,0.5-1.8,1.5-1.6,2.6
				c0,0.2,0,0.3,0.1,0.5c0.4,3.2,7.5,0.8,8.4-1c1.3-2.5,3-4.5,5.7-5.3c3-0.9,5.7-4.4,1-5c-6.4-0.8-13.7,3-14.8,9.8
				c-0.3,2,2.5,2.2,3.8,2.1c3.6-0.3,6.4-1.8,8.7-4.5c1.4-1.7-1.2-2.7-2.4-2.8c-7.1-0.6-14.3,1.9-19,7.4c-1.1,1.3-1.1,2.9,0.9,3.3
				c1.4,0.3,2.9,0.6,4.3,1c2.9,0.6,10.3-3.6,5.3-5c-4.2-1.1-9-1.5-12.7,1.4c-2.5,1.9-3.9,5.2-1.5,7.8c1.9,2.1,6.7,0.5,8.1-1.6
				c2.7-3.9,0.2-8.6-4.3-9.3c-1.9-0.3-4.2,0-5.8,1.3c-0.9,0.8-2.1,2.6-0.3,3.3c3.9,1.5,7.8,3,11.8,4.5c1.3-1.6,2.7-3.2,4-4.8
				c-4.4,0.3-9.7,2.4-11.5,6.8c-1.7,4.3,1.1,8.2,5.4,9.1c2.2,0.5,5.4-0.3,6.7-2.3c6.6-10.1-15.7-14-13.8-2.3
				c2.2,13.6,24.9,0.7,16.4-6.3c-3.4-2.9-10.3-0.5-12,3.4c-2.5,5.6,4.6,7.9,8.9,7.3c3.9-0.5,11.9-4.7,11.8-9.4
				c-0.2-6.2-9.8-2.8-12.4-0.8c-4.3,3.2-4.3,8.4,1.9,8.7c6.6,0.3,11.7-4.7,13.7-10.7c1-3-5.1-1.8-6.1-1.5c-4,1.5-15.8,6.3-11.1,12.6
				c4.4,5.9,13.6,1.2,17.5-2.6c5.8-5.7-1.1-8.3-6.7-8.2c-7.5,0.2-14.8,3.6-19.7,9.3c-0.9,1.1-1.2,2.1,0.1,3c8.1,5.6,20,2.6,25.6-5.1
				c1.3-1.7-1.1-2.7-2.4-2.8c-9.2-0.7-18,2.3-24.9,8.4c-1.9,1.7-0.2,3.5,1.9,3.5c8.8-0.1,17.3-1.4,25.8-4c3.9-1.2,5.2-5.5-0.1-4.9
				c-8.4,0.8-16.4,3.1-23.9,6.9c-2.8,1.4-3.6,4.1,0.1,4.6c8.6,1,17-0.3,25.1-3.5c2.7-1.1,3.7-4.6-0.1-4.6c-8.5,0-16.5,1.5-24.5,4.3
				c-3.8,1.3-2.8,5.3,1.2,4.5c6.1-1.1,12.1-2.3,18.2-3.4c4.2-0.8,7.3-5.4,1.1-5.2c-7.8,0.3-15.2,2.8-21.8,7.2c-3,2-0.9,4.5,2.2,4
				c6.2-1,12.2-2.4,18.1-4.3c4-1.3,5.2-5.1-0.1-4.9c-6.1,0.2-12.1,1.4-17.9,3.4c-2.6,0.9-6,4.8-1,5c7.3,0.2,14.4-0.6,21.5-2.5
				c2.7-0.7,5.9-5.1,1-5c-7.3,0.1-14.1,1.5-20.8,4.2c-2.7,1.1-3.7,4.5,0.1,4.6c5.7,0.1,11.3-0.6,16.8-2.1c3-0.8,5.7-4.4,1-5
				c-6.6-0.8-13.2,0-19.5,2.1c-3.6,1.3-5.3,5.8,0.1,4.9c6.5-1.1,13.1-2.2,19.6-3.3c0.4-1.7,0.7-3.4,1.1-5.2
				c-8,1.4-15.8,3.1-23.6,5.5c-1.8,0.5-6.1,4.1-2,4.8c10.8,1.9,25.6,1.7,32.3-8.7c2.3-3.5,3.9-10-0.4-12.8c-2.2-1.4-4.4-0.5-6.7-0.9
				c-3.1-0.4-4.1-3.1-6.2-5.1c-3.4-3.3-7.8-3.8-12.2-2.1c-3.4,1.3-9.1,5.5-8.1,9.8c1.1,4.6,8.1,4.3,11.6,4.9c7.3,1.3,14,4.5,20,9
				c0.9-1.5,1.9-3,2.8-4.5c-2.9,0.7-5.8,1.4-8.8,2.1c-2.8,0.7-5.8,5-1,5c5.3,0,9.6-1.5,13.7-4.7c3.2-2.5-2.3-3.8-4.1-3.2
				c-3.7,1.2-6.9,2.9-9.8,5.5c-3.1,2.8,2.2,3.7,4.1,3.2c2.9-0.7,5.5-1.8,8.1-3.4c4.1-2.5-0.5-4.6-3.4-3.8c-1.7,0.5-3.3,0.9-5,1.4
				c-4,1.2-5.1,5.2,0.1,4.9c3.5-0.2,6.4-1.2,9.5-3c1.5-0.9,2.2-2.5,0.7-3.6c-1.6-1.2-4.7-0.1-6.2,0.7c-1,0.2-1.9,0.5-2.9,0.7
				c0,1.6,0.1,3.3,0.1,4.9c1.7-0.5,3.3-0.9,5-1.4c-1.1-1.3-2.2-2.5-3.4-3.8c-1.2,0.8-2.5,1.3-3.9,1.6c1.4,1.1,2.8,2.1,4.1,3.2
				c1.1-1.2,2.5-2,4.1-2.5c-1.4-1.1-2.8-2.1-4.1-3.2c-1.1,0.4-2.2,0.8-3.4,1.2c-0.3,1.7-0.7,3.3-1,5c2.9-0.7,5.8-1.4,8.8-2.1
				c1.9-0.5,5.3-2.7,2.8-4.5c-6.2-4.6-13.2-7.9-20.7-9.4c-1.7-0.3-7.8-0.1-8.7-1.7c-0.3-1.6,0.2-2.8,1.5-3.6
				c0.4-0.5,0.8-0.2,1.3,0.7c0.9,0.5,1.6,1.8,2.2,2.6c1.5,1.7,2.9,3.3,5,4.2c2.3,0.9,6.1-0.5,7.7,1.6c3.1,4.1-3.9,10.2-6.9,11.1
				c-4.2,1.3-9.1,0.7-13.3,0c-0.7,1.6-1.3,3.2-2,4.8c7-2.1,14.1-3.8,21.2-5c1.5-0.3,4.8-1.1,4.9-3.1c0.1-1.9-2.3-2.3-3.8-2.1
				c-6.5,1.1-13.1,2.2-19.6,3.3c0,1.6,0.1,3.3,0.1,4.9c5-1.7,9.7-2.2,14.9-1.6c0.3-1.7,0.7-3.3,1-5c-4.1,1.1-8.1,1.7-12.3,1.6
				c0,1.5,0.1,3.1,0.1,4.6c4.5-1.8,9.1-2.8,14-2.9c0.3-1.7,0.7-3.3,1-5c-5.6,1.5-11.2,2.2-16.9,2c-0.3,1.7-0.7,3.3-1,5
				c5.1-1.8,10.2-2.7,15.6-2.9c0-1.6-0.1-3.3-0.1-4.9c-5.2,1.7-10.4,3-15.8,3.9c0.7,1.3,1.5,2.7,2.2,4c4.7-3.1,9.6-4.7,15.2-4.9
				c0.4-1.7,0.7-3.4,1.1-5.2c-6.1,1.1-12.1,2.3-18.2,3.4c0.4,1.5,0.8,3,1.2,4.5c5.7-2,11.7-2.9,17.7-3c0-1.5-0.1-3.1-0.1-4.6
				c-5.9,2.4-11.9,2.9-18.2,2.2c0,1.5,0.1,3.1,0.1,4.6c6.2-3.1,12.5-4.9,19.3-5.6c0-1.6-0.1-3.3-0.1-4.9c-6.9,2.1-14,3.3-21.2,3.4
				c0.6,1.2,1.2,2.3,1.9,3.5c4.2-3.7,9-5.2,14.6-4.8c-0.8-0.9-1.6-1.9-2.4-2.8c-2.8,3.9-7,3.6-10.6,1.1c0,1,0.1,2,0.1,3
				c2.5-3,6.3-6.1,10.5-5.7c4.9,0.4,0,2.8-0.8,1.6c-1.3-1.9,5.8-4.3,6.8-4.7c-2-0.5-4.1-1-6.1-1.5c0,0.1-2,4.8-2.7,4.4
				c3.4-1.8,2.9-1.8-1.3,0c-0.4,1.1-1.1,1.3-1.9,0.8c-1.5-0.6-2.9-0.2-4.3,1.2c1,1.2,1.1,1.3,0.3,0.3c-0.2-1.7-1.6-2.2-0.3-4.2
				c-1.1,0.7-2.3,1.4-3.4,2.2c-1.4,0.3,1,2.4-0.2,4.1c2.2-0.8,4.5-1.5,6.7-2.3c-2.6-0.6-3.6-5.5-0.2-5.8c1.5-0.1,7.6-3.4,4-4.8
				c-3.9-1.5-7.8-3-11.8-4.5c-2,1.6-4,3.1-6.1,4.7c1.9,0.3,2.4,2.5,1.4,4c2.7-0.5,5.4-1,8.1-1.6c-2.1-2.3,0.1-0.9,0.9-0.7
				c1.8-1.7,3.5-3.3,5.3-5c-1.4-0.3-2.9-0.6-4.3-1c0.3,1.1,0.6,2.2,0.9,3.3c2.4-2.8,4.9-4.2,8.7-3.8c-0.8-0.9-1.6-1.9-2.4-2.8
				c0.2-0.1,0.3-0.2,0.5-0.3c1.3,0.7,2.5,1.4,3.8,2.1c0.2-1.4,0.7-3.8,2.7-3.5c0.3-1.7,0.7-3.3,1-5c-5.4,1.6-9.9,4.6-12.6,9.7
				c2.8-0.3,5.6-0.7,8.4-1c0-0.2,0-0.3-0.1-0.5c-0.5,0.9-1.1,1.7-1.6,2.6c0.2-0.1,0.3-0.2,0.5-0.3c-1.5,0.4-2.9,0.8-4.4,1.2
				c0.2,0,0.4,0,0.6,0c-0.8-0.3-1.6-0.6-2.4-0.9c0-0.2,0-0.5-0.1-0.7c2.3,0.5,4.5,1.1,6.8,1.6c0.9-1.1,1.8-2.2,2.7-3.4
				c-2.7-0.1-5.4-0.2-8.1-0.4c-0.5,1.4-1.5,2.3-3,2.8c2,0.5,4.1,1,6.1,1.5c1.7-4.2-1-1.3-2.7-0.5c-1.9,1-3.8,1.4-6,1.5
				c1.2,0.9,2.3,1.8,3.5,2.8c2-2.8,4.3-3.7,7.6-3.3c-0.9-0.7-1.8-1.4-2.7-2.1c-1.5,3.5-4.2,6-8.1,6.3c1,1.1,2,2.3,3,3.4
				c2.5-2.5,6-6.7,9.9-5.7c-0.6-0.7-1.2-1.3-1.7-2c-1.5,4.3-6.2,3.6-9.9,3.4c0.6,1.2,1.2,2.3,1.9,3.5c4.3-4.3,9.3-6.3,15.4-6
				c-0.9-0.5-1.8-1-2.7-1.5c-0.2,0.6-0.3,1.3-0.5,1.9c0.8-0.6,1.5-1.2,2.3-1.8c-0.3,0.2-0.7,0.4-1,0.6
				C409.9,85.7,414.8,88.9,418.8,86.8L418.8,86.8z"/>
		</g>
	</g>
	<g>
		<g>
			<path class="st0" d="M473.2,79.9c-1-2.7-3-4.7-5.7-5.7c-1.6-0.6-3.6-0.2-5.1,0.4c-0.7,0.3-3.3,1.5-2.7,2.7
				c1.4,2.7,3.1,5.2,5.3,7.3c2,2,10.2-1.2,8.1-3.3c-1.9-1.9-3.5-4-4.7-6.4c-2.6,1-5.2,2.1-7.8,3.1c1.9,0.7,3.3,2.2,4,4.1
				c0.6,1.6,3.6,1.1,4.9,0.8C470.4,82.7,473.8,81.5,473.2,79.9L473.2,79.9z"/>
		</g>
	</g>
	<g>
		<g>
			<path d="M342.4,64.6c0-2.2,0-4.5,0-6.7c0-4.3-8.7-2.9-8.8,0.8c-0.1,3.5-0.2,7-0.3,10.5c2.9-0.5,5.8-1,8.7-1.5
				c-1.1-4.3-0.9-8.5,0.4-12.8c-2.9,0.3-5.9,0.5-8.8,0.8c0,1.6-0.1,3.1-0.1,4.7c-0.1,4.3,8.7,2.9,8.8-0.8c0-1.6,0.1-3.1,0.1-4.7
				c0.1-4.6-7.8-2.4-8.8,0.8c-1.5,4.7-1.6,9.6-0.4,14.3c0.9,3.5,8.6,1.7,8.7-1.5c0.1-3.5,0.2-7,0.3-10.5c-2.9,0.3-5.9,0.5-8.8,0.8
				c0,2.2,0,4.5,0,6.7C333.6,69.7,342.4,68.3,342.4,64.6L342.4,64.6z"/>
		</g>
	</g>
	<g>
		<g>
			<path d="M463.7,39.5c-0.3,5.2-0.2,10.4,0.4,15.6c0.4,3.2,8.3,1,8.7-1.7c0.7-4.9,0.7-9.7,0.1-14.6c-0.4-3.5-8-0.6-8.7,1.7
				c-0.8,2.5-0.9,5-0.6,7.7c0.5,3.2,9.2,1.1,8.7-2.3c-0.3-2.2-0.1-4.2,0.6-6.3c-2.9,0.6-5.8,1.1-8.7,1.7c0.5,4.5,0.5,8.9-0.1,13.3
				c2.9-0.6,5.8-1.1,8.7-1.7c-0.6-4.8-0.7-9.5-0.4-14.3C472.7,34.8,463.9,36.4,463.7,39.5L463.7,39.5z"/>
		</g>
	</g>
	<g>
		<g>
			<path d="M446.8,27c8.3-6.4,16.7-12.7,25-19.1c4.5-3.4-1.5-6-4.9-4.7c-9.9,3.9-18.8,9.6-26.5,16.9c-4.4,4.1,2.3,6.6,5.8,4.1
				c6-4.3,12-8.5,18.1-12.8c-1.9-1.4-3.9-2.8-5.8-4.1c-3.9,3.1-7.8,6.3-11.7,9.4c-4.6,3.7,2.3,6.9,5.8,4.1c3.9-3.1,7.8-6.3,11.7-9.4
				c4.7-3.8-2.3-6.6-5.8-4.1c-6,4.3-12,8.5-18.1,12.8c1.9,1.4,3.9,2.8,5.8,4.1c7.2-6.8,15.4-12,24.6-15.7c-1.6-1.6-3.2-3.1-4.9-4.7
				c-8.3,6.4-16.7,12.7-25,19.1C436.3,26.4,443.3,29.7,446.8,27L446.8,27z"/>
		</g>
	</g>
	<g>
		<g>
			<path d="M332.2,23.5c-0.8-0.6-1.1-1.4-1.1-2.4c-2.6,1-5.3,1.9-7.9,2.9c8.2,3.2,16.1,6.8,23.9,10.8c1.7,0.9,9.8-1.6,8.2-3
				c-8-6.8-17.3-11.5-27.5-14c-1.8-0.4-9.8,2.5-7.1,3.4c10.2,3.4,20.2,7.3,30,11.5c1.7,0.7,9.8-1.8,8.2-3
				c-6.9-4.9-14.9-7.3-23.3-7.4c-1.2,0-9.3,2.7-6.4,3.5c7,1.9,13.5,4.8,19.7,8.7c2.3-1.1,4.6-2.2,6.9-3.3
				c-5.9-0.7-11.3-2.7-16.3-5.8c-2.7,1-5.5,2-8.2,3c4.9,2.5,10,4.5,15.3,6.1c1.8,0.5,4.5-0.2,6.1-1.1c0.8-0.4,3-1.7,1.1-2.3
				c-5-1.4-9.7-3.3-14.3-5.7c-2-1-9.5,2.1-8.2,3c5.8,3.6,12,5.6,18.8,6.4c1,0.1,8.7-2.1,6.9-3.3c-6.5-4.1-13.3-7.1-20.7-9.1
				c-2.1,1.2-4.3,2.3-6.4,3.5c7.7,0.1,14.5,2.4,20.8,6.8c2.7-1,5.5-2,8.2-3c-10.2-4.4-20.5-8.4-31-11.9c-2.4,1.1-4.8,2.3-7.1,3.4
				c9.9,2.4,18.7,7,26.5,13.6c2.7-1,5.5-2,8.2-3c-8.1-4.2-16.5-7.9-25-11.2c-1.4-0.6-8.2,0.7-7.9,2.9c0.2,1.4,0.6,2.1,1.6,3
				C325.6,28,333.5,24.9,332.2,23.5L332.2,23.5z"/>
		</g>
	</g>
	<g>
		<g>
			<path d="M389.1,165.7c-3.6,7.7-9.6,13-15.9,18.4c-6.5,5.5-12.9,11.1-19.4,16.6c-11.9,10.2-24.1,23.5-39.1,29.1
				c-2.5,0.9-3.6,3.9-0.7,5c17.7,6.8,36.7,8.3,54.9,13.6c8.8,2.6,17.5,6.2,24.7,12c0.8,0.7,2,1.4,2.5,2.3c0.9,1.8-0.4,3.5-1.2,5.2
				c-1.2,2.6-2.6,5.2-4,7.7c-2.9,5.4-5.9,10.7-8.9,16c-2.3,4,6.5,3.7,8.2,0.7c3.4-5.8,6.7-11.7,9.8-17.7c2.1-4,6.8-10,4.6-14.6
				c-1.6-3.5-6.7-6.3-9.9-8.2c-4.3-2.6-8.9-4.7-13.6-6.5c-20.1-7.5-42-8.3-62-16c-0.2,1.7-0.5,3.4-0.7,5
				c16.4-6.1,29.5-20.3,42.5-31.4c7.1-6.1,14.3-12.2,21.4-18.3c6.1-5.3,11.5-10.8,15-18.2C399.3,162.2,390.6,162.5,389.1,165.7
				L389.1,165.7z"/>
		</g>
	</g>
	<g>
		<g>
			<path d="M425.7,157.8c27,9.4,54.7,16.7,82.9,21.6c-0.4-0.7-0.8-1.3-1.3-2c-14.5,13.7-29,27.5-43.5,41.2
				c-7.2,6.9-14.5,13.7-21.7,20.6c-5.5,5.2-12.4,10.4-13.2,18.4c-0.1,0.7,0.2,1,0.8,1.2c16.1,6.3,31.4,14.3,45.7,24.1
				c2.3,1.5,10-1.9,8.1-3.2c-14.6-10-30.3-18.3-46.8-24.7c0.3,0.4,0.5,0.8,0.8,1.2c0.9-8.6,9.7-14.6,15.5-20.1
				c6.8-6.4,13.5-12.8,20.3-19.2c14-13.3,28-26.6,42-39.8c1.1-1.1-0.4-1.8-1.3-2c-27.6-4.9-54.8-12-81.3-21.3
				C430.4,153.2,422.6,156.7,425.7,157.8L425.7,157.8z"/>
		</g>
	</g>
	<g>
		<g>
			<path class="st0" d="M401.7,88.5c-2.8-6.8-13.9-1.9-17.8,1.1c-6.2,4.7-5.9,14.4,3,15c5.1,0.3,16.3-5.1,11.8-11.7
				c-3.8-5.5-13.7-1.1-16.6,3.2c-2,3-1.7,8,2.3,9.2c2.8,0.8,6-0.7,6.9-3.5c0.4-1.1-2.6-0.8-2.9,0.3c-2.1,1.5-3.5,1.4-4-0.2
				c-0.5-0.8-0.7-1.6-0.6-2.6c0.1-1.5,0.8-3,1.9-4c1.7-1.7,4.2-3.1,6.7-3c3.5,0.1,5.3,3.1,3.6,6.2c-1.4,2.5-4.4,4-7.2,4.1
				c-6.5,0.2-8-6.9-3.9-11.2c2.5-2.6,11.9-7.6,14.1-2.3C399.3,90.4,402.2,89.5,401.7,88.5L401.7,88.5z"/>
		</g>
	</g>
	<g>
		<g>
			<path class="st0" d="M403,82.4c2.1,0.5,4.5-0.1,5.5-2.2c0.1-0.2-0.1-0.3-0.2-0.3c-6.4-1-12.4-0.3-18.5,1.8
				c-0.4,0.1-1.6,0.9-0.4,0.9c3.5,0,6.9-0.1,10.4-0.1c0.5-0.4,1-0.8,1.6-1.1c-3.2,0.3-5.1,0-7.9-0.9c-0.7,0.4-1.4,0.8-2.1,1.1
				c3-0.1,6.1-0.2,9.1-0.3c0.4,0,3.1-0.9,2.1-1.1c-3.2-0.8-6.1-1-9.3-0.8c-0.4,0-3,1-1.6,1.1c3.6,0.3,6.8-0.1,10.2-1.1
				c0.4-0.1,2.1-0.9,0.8-1c-3.5-0.3-6.7-0.1-10.1,0.6c-0.2,0-2.4,0.9-1.5,1.1c4.1,0.8,7.9,0.5,11.8-0.7c0.4-0.1,2.1-0.9,0.8-1
				c-3.3-0.2-6.3,0.3-9.4,1.4c-1.6,0.6-0.6,1.1,0.6,0.7c5.7-1.5,11.4-3.3,17-5.2c0.4-0.2,1.5-0.8,0.4-0.9c-5.1-0.4-9.7,1.1-13.6,4.5
				c-0.7,0.6,2.1,0.1,2.4-0.1c4.3-2.5,8.8-4,13.8-4.5c0.5,0,3-1.2,1.6-1.1c-1.9,0-3.8,0-5.7,0.1c-0.6,0-3.3,1.2-1.9,1.2
				c1.9,0,3.8,0,5.7-0.1c0.5-0.4,1-0.8,1.6-1.1c-6.2,0.6-11.9,2.5-17.3,5.5c0.8,0,1.6-0.1,2.4-0.1c2.1-1.9,4.8-2.9,7.7-3.4
				c-1.8,0.3-3.6,1.2-5.3,1.7c-3.5,1.1-12.3,1.9-2,2.5c0.3-0.3,0.6-0.7,0.8-1c-3.1,1-6.1,1.2-9.2,0.4c-0.5,0.4-1,0.7-1.5,1.1
				c3-0.6,5.8-0.7,8.8-0.5c0.3-0.3,0.6-0.7,0.8-1c-2.7,0.9-5.4,1.1-8.1,0.8c-0.5,0.4-1,0.8-1.6,1.1c2.9-0.2,5.4,0,8.2,0.7
				c0.7-0.4,1.4-0.8,2.1-1.1c-3,0.1-6.1,0.2-9.1,0.3c-0.4,0-3.1,0.8-2.1,1.1c3.1,1,5.8,1.2,9,0.9c0.5,0,3-1.2,1.6-1.1
				c-0.8,0-8.3,0.7-8.7,0.1c0.3,0.5,4.5-0.7,5-0.8c3-0.4,4.6,0,7.4,0.6C404.7,81.2,402.2,82.3,403,82.4L403,82.4z"/>
		</g>
	</g>
</g>
</svg>
